{
.appVersion = "1199";
copyright = "Copyright (c) 2011, Dan Sayers (i@iotic.com)";
customParameters = (
{
name = license;
value = "This Font Software is licensed under the SIL Open Font License, Version 1.1. This license is available with a FAQ at: http://scripts.sil.org/OFL";
},
{
name = licenseURL;
value = "http://scripts.sil.org/OFL";
},
{
name = vendorID;
value = DANS;
},
{
name = panose;
value = (
2,
0,
6,
3,
0,
0,
0,
0,
0,
4
);
},
{
name = fsType;
value = (
);
},
{
name = "Disable Last Change";
value = 1;
},
{
name = "Use Line Breaks";
value = 1;
},
{
name = "Use Typo Metrics";
value = 1;
},
{
name = Axes;
value = (
{
Name = Weight;
Tag = wght;
}
);
}
);
date = "2011-11-13 19:02:34 +0000";
designer = "Dan Sayers";
designerURL = iotic.com;
disablesNiceNames = 1;
familyName = "Averia Serif Libre";
fontMaster = (
{
ascender = 1622;
capHeight = 700;
customParameters = (
{
name = typoAscender;
value = 1890;
},
{
name = typoDescender;
value = -426;
},
{
name = typoLineGap;
value = 0;
},
{
name = winAscent;
value = 1890;
},
{
name = winDescent;
value = 465;
},
{
name = hheaAscender;
value = 1890;
},
{
name = hheaDescender;
value = -426;
},
{
name = strikeoutPosition;
value = 530;
},
{
name = strikeoutSize;
value = 102;
},
{
name = "Axis Location";
value = (
{
Axis = Weight;
Location = 300;
}
);
}
);
descender = -426;
id = "92A672BF-229C-4BEC-8D25-4DDBB2A38145";
weight = Light;
weightValue = 300;
widthValue = 5;
xHeight = 500;
},
{
ascender = 1622;
capHeight = 700;
customParameters = (
{
name = typoAscender;
value = 1622;
},
{
name = typoDescender;
value = -426;
},
{
name = typoLineGap;
value = 0;
},
{
name = winAscent;
value = 1833;
},
{
name = winDescent;
value = 466;
},
{
name = hheaAscender;
value = 1833;
},
{
name = hheaDescender;
value = -426;
},
{
name = strikeoutPosition;
value = 530;
},
{
name = strikeoutSize;
value = 102;
},
{
name = "Axis Location";
value = (
{
Axis = Weight;
Location = 700;
}
);
}
);
descender = -426;

glyphs = (
{
color = 5;
glyphname = A;
layers = (
{
anchors = (
{
name = bottom;
position = "{694, -2}";
},
{
name = top;
position = "{679, 1390}";
}
);
layerId = "5CBF0BAD-1756-4F16-9711-93DC239D102B";
paths = (
{
closed = 1;
nodes = (
"503 644 OFFCURVE",
"654 1083 OFFCURVE",
"675.5 1083 CURVE SMOOTH",
"692 1083 OFFCURVE",
"848 672 OFFCURVE",
"848 615 CURVE SMOOTH",
"848 587 OFFCURVE",
"837 582 OFFCURVE",
"711 582 CURVE SMOOTH",
"519 582 OFFCURVE",
"503 587 OFFCURVE",
"503 607 CURVE SMOOTH"
);
},
{
closed = 1;
nodes = (
"23 0 OFFCURVE",
"80 -13 OFFCURVE",
"289 -14 CURVE SMOOTH",
"414 -15 OFFCURVE",
"445 -6 OFFCURVE",
"445 28 CURVE SMOOTH",
"445 98 OFFCURVE",
"388 154 OFFCURVE",
"388 234 CURVE SMOOTH",
"388 296 OFFCURVE",
"434 392 OFFCURVE",
"472 416 CURVE SMOOTH",
"499 433 OFFCURVE",
"629 438 OFFCURVE",
"740 438 CURVE SMOOTH",
"817 438 OFFCURVE",
"869 431 OFFCURVE",
"895 405 CURVE SMOOTH",
"920 380 OFFCURVE",
"954 303 OFFCURVE",
"954 220 CURVE SMOOTH",
"954 184 OFFCURVE",
"915 70 OFFCURVE",
"915 48 CURVE SMOOTH",
"915 12 OFFCURVE",
"957 -7 OFFCURVE",
"1041 -6 CURVE SMOOTH",
"1399 0 OFFCURVE",
"1439 12 OFFCURVE",
"1439 63 CURVE SMOOTH",
"1439 110 OFFCURVE",
"1320 154 OFFCURVE",
"1253 315 CURVE SMOOTH",
"1209 421 OFFCURVE",
"998 1043 OFFCURVE",
"895 1232 CURVE SMOOTH",
"841 1331 OFFCURVE",
"788 1390 OFFCURVE",
"700 1390 CURVE SMOOTH",
"594 1390 OFFCURVE",
"539 1331 OFFCURVE",
"461 1021 CURVE SMOOTH",
"422 866 OFFCURVE",
"340 615 OFFCURVE",
"194 273 CURVE SMOOTH",
"152 174 OFFCURVE",
"23 89 OFFCURVE",
"23 71 CURVE SMOOTH"
);
}
);
width = 1474;
},
{
anchors = (
{
name = bottom;
position = "{651, -3}";
},
{
name = top;
position = "{692, 1391}";
}
);
layerId = "92A672BF-229C-4BEC-8D25-4DDBB2A38145";
paths = (
{
closed = 1;
nodes = (
"455 631 OFFCURVE",
"655 1154 OFFCURVE",
"661 1154 CURVE SMOOTH",
"668 1154 OFFCURVE",
"859 699 OFFCURVE",
"859 591 CURVE SMOOTH",
"859 582 OFFCURVE",
"823 577 OFFCURVE",
"652 577 CURVE SMOOTH",
"460 577 OFFCURVE",
"455 583 OFFCURVE",
"455 595 CURVE SMOOTH"
);
},
{
closed = 1;
nodes = (
"20 27 OFFCURVE",
"110 13 OFFCURVE",
"289 13 CURVE SMOOTH",
"354 13 OFFCURVE",
"387 25 OFFCURVE",
"387 48 CURVE SMOOTH",
"387 74 OFFCURVE",
"304 110 OFFCURVE",
"304 173 CURVE SMOOTH",
"304 200 OFFCURVE",
"328 276 OFFCURVE",
"357 348 CURVE SMOOTH",
"410 477 OFFCURVE",
"427 486 OFFCURVE",
"646 486 CURVE SMOOTH",
"819 486 OFFCURVE",
"877 477 OFFCURVE",
"907 436 CURVE SMOOTH",
"932 401 OFFCURVE",
"1005 224 OFFCURVE",
"1005 173.5 CURVE SMOOTH",
"1005 129 OFFCURVE",
"939 73 OFFCURVE",
"939 41 CURVE SMOOTH",
"939 17 OFFCURVE",
"997 5 OFFCURVE",
"1114 5 CURVE SMOOTH",
"1314 5 OFFCURVE",
"1386 8 OFFCURVE",
"1386 44 CURVE SMOOTH",
"1386 81 OFFCURVE",
"1269 113 OFFCURVE",
"1240 186 CURVE SMOOTH",
"1211 259 OFFCURVE",
"980 867 OFFCURVE",
"925 1028 CURVE SMOOTH",
"870 1189 OFFCURVE",
"793 1391 OFFCURVE",
"703 1391 CURVE SMOOTH",
"616 1391 OFFCURVE",
"597 1356 OFFCURVE",
"495 1028 CURVE SMOOTH",
"477 969 OFFCURVE",
"224 348 OFFCURVE",
"174 223 CURVE SMOOTH",
"137 130 OFFCURVE",
"20 88 OFFCURVE",
"20 53 CURVE SMOOTH"
);
}
);
width = 1436;
},
{
layerId = "20E01B96-53C8-4C50-A66A-A7047371F4F1";
paths = (
{
closed = 1;
nodes = (
"503 640 OFFCURVE",
"673 1083 OFFCURVE",
"678 1083 OFFCURVE",
"848 641 OFFCURVE",
"848 598 QCURVE SMOOTH",
"848 582 OFFCURVE",
"711 582 QCURVE SMOOTH",
"596 582 LINE SMOOTH",
"503 582 OFFCURVE",
"503 594 QCURVE SMOOTH",
"503 604 LINE SMOOTH"
);
},
{
closed = 1;
nodes = (
"609 1390 OFFCURVE",
"527 1251 OFFCURVE",
"410 788 OFFCURVE",
"194 273 QCURVE SMOOTH",
"164 202 OFFCURVE",
"114 158 QCURVE SMOOTH",
"23 78 OFFCURVE",
"23 71 QCURVE SMOOTH",
"23 19 OFFCURVE",
"69 6 QCURVE SMOOTH",
"141 -14 OFFCURVE",
"355 -14 QCURVE SMOOTH",
"445 -14 OFFCURVE",
"445 28 QCURVE SMOOTH",
"445 62 OFFCURVE",
"388 182 OFFCURVE",
"388 286 OFFCURVE",
"451 408 OFFCURVE",
"512 438 OFFCURVE",
"745 438 QCURVE SMOOTH",
"872 438 OFFCURVE",
"896 404 QCURVE SMOOTH",
"955 320 OFFCURVE",
"955 197 QCURVE SMOOTH",
"955 171 OFFCURVE",
"915 62 OFFCURVE",
"915 48 QCURVE SMOOTH",
"915 -6 OFFCURVE",
"1041 -6 QCURVE SMOOTH",
"1318 -6 OFFCURVE",
"1388 11 QCURVE SMOOTH",
"1431 22 OFFCURVE",
"1431 91 OFFCURVE",
"1305 185 OFFCURVE",
"1256 288 OFFCURVE",
"1147 603 OFFCURVE",
"1055 831 OFFCURVE",
"927 1177 OFFCURVE",
"895 1232 QCURVE SMOOTH",
"803 1390 OFFCURVE",
"729 1390 QCURVE SMOOTH",
"700 1390 LINE SMOOTH"
);
}
);
width = 1474;
},
{
layerId = "C2CE44A8-31E7-41E3-9ADA-B2F909F658BE";
paths = (
{
closed = 1;
nodes = (
"859 577 OFFCURVE",
"723 577 QCURVE SMOOTH",
"551 577 LINE SMOOTH",
"455 577 OFFCURVE",
"455 595 QCURVE SMOOTH",
"455 618 OFFCURVE",
"656 1154 OFFCURVE",
"665 1154 OFFCURVE",
"689 1094 QCURVE SMOOTH",
"859 669 OFFCURVE",
"859 603 QCURVE SMOOTH",
"859 591 LINE SMOOTH"
);
},
{
closed = 1;
nodes = (
"20 13 OFFCURVE",
"289 13 QCURVE SMOOTH",
"387 13 OFFCURVE",
"387 48 QCURVE SMOOTH",
"387 55 OFFCURVE",
"304 133 OFFCURVE",
"304 213 OFFCURVE",
"390 434 OFFCURVE",
"452 487 OFFCURVE",
"613 487 QCURVE SMOOTH",
"672 487 OFFCURVE",
"702 486 QCURVE SMOOTH",
"760 484 LINE SMOOTH",
"872 484 OFFCURVE",
"907 436 QCURVE SMOOTH",
"926 410 OFFCURVE",
"1005 211 OFFCURVE",
"1005 136 OFFCURVE",
"939 65 OFFCURVE",
"939 41 QCURVE SMOOTH",
"939 5 OFFCURVE",
"1114 5 QCURVE SMOOTH",
"1232 5 LINE SMOOTH",
"1386 5 OFFCURVE",
"1386 44 QCURVE SMOOTH",
"1386 66 OFFCURVE",
"1304 113 QCURVE SMOOTH",
"1264 136 OFFCURVE",
"1216 236 OFFCURVE",
"964 914 OFFCURVE",
"925 1028 QCURVE SMOOTH",
"826 1318 OFFCURVE",
"751 1373 QCURVE SMOOTH",
"726 1391 OFFCURVE",
"703 1391 QCURVE SMOOTH",
"635 1391 OFFCURVE",
"595 1323 QCURVE SMOOTH",
"582 1301 OFFCURVE",
"520 1101 OFFCURVE",
"470 954 OFFCURVE",
"309 573 OFFCURVE",
"175 226 OFFCURVE",
"174 223 QCURVE",
"141 149 OFFCURVE",
"20 73 OFFCURVE",
"20 53 QCURVE SMOOTH"
);
}
);
width = 1436;
}
);
note = uni0041;
unicode = 0041;
},
{
color = 5;
glyphname = Aacute;
layers = (
{
components = (
{
name = A;
},
{
name = acutecomb;
transform = "{1, 0, 0, 1, 694, 344}";
}
);
layerId = "92A672BF-229C-4BEC-8D25-4DDBB2A38145";
width = 1436;
},
{
components = (
{
name = A;
},
{
name = acutecomb;
transform = "{1, 0, 0, 1, 678, 356}";
}
);
layerId = "5CBF0BAD-1756-4F16-9711-93DC239D102B";
width = 1474;
},
{
layerId = "20E01B96-53C8-4C50-A66A-A7047371F4F1";
paths = (
{
closed = 1;
nodes = (
"493 549 OFFCURVE",
"493 561 QCURVE SMOOTH",
"493 567 LINE SMOOTH",
"493 588 OFFCURVE",
"611 896 OFFCURVE",
"654 1036 OFFCURVE",
"662 1036 OFFCURVE",
"682 983 QCURVE SMOOTH",
"825 611 OFFCURVE",
"825 563 QCURVE SMOOTH",
"825 558 LINE SMOOTH",
"825 549 OFFCURVE",
"802 549 QCURVE SMOOTH",
"518 549 LINE SMOOTH"
);
},
{
closed = 1;
nodes = (
"699 1462 OFFCURVE",
"771 1514 QCURVE SMOOTH",
"1025 1699 OFFCURVE",
"1025 1762 QCURVE SMOOTH",
"1025 1773 LINE SMOOTH",
"1025 1781 OFFCURVE",
"955 1823 OFFCURVE",
"896 1823 QCURVE SMOOTH",
"865 1823 LINE SMOOTH",
"796 1823 OFFCURVE",
"755 1770 QCURVE SMOOTH",
"582 1548 OFFCURVE",
"582 1505 QCURVE SMOOTH",
"582 1489 LINE SMOOTH",
"582 1462 OFFCURVE",
"625 1462 QCURVE SMOOTH",
"648 1462 LINE SMOOTH"
);
},
{
closed = 1;
nodes = (
"594 1344 OFFCURVE",
"518 1212 OFFCURVE",
"439 904 OFFCURVE",
"371 728 OFFCURVE",
"367 717 QCURVE SMOOTH",
"302 544 LINE SMOOTH",
"273 469 OFFCURVE",
"218 320 OFFCURVE",
"205 288 QCURVE SMOOTH",
"166 193 OFFCURVE",
"114 146 QCURVE SMOOTH",
"18 59 OFFCURVE",
"18 38 QCURVE SMOOTH",
"18 1 OFFCURVE",
"54 -10 QCURVE SMOOTH",
"91 -21 OFFCURVE",
"257 -21 QCURVE SMOOTH",
"381 -21 LINE SMOOTH",
"473 -21 OFFCURVE",
"473 17 QCURVE SMOOTH",
"473 40 OFFCURVE",
"390 181 OFFCURVE",
"390 272 OFFCURVE",
"440 383 OFFCURVE",
"482 410 OFFCURVE",
"836 410 OFFCURVE",
"881 379 OFFCURVE",
"932 233 OFFCURVE",
"932 164 QCURVE SMOOTH",
"932 139 OFFCURVE",
"878 47 OFFCURVE",
"878 28 QCURVE SMOOTH",
"878 -20 OFFCURVE",
"982 -20 QCURVE SMOOTH",
"1257 -20 OFFCURVE",
"1361 -6 QCURVE SMOOTH",
"1424 2 OFFCURVE",
"1424 42 QCURVE SMOOTH",
"1424 74 OFFCURVE",
"1300 163 OFFCURVE",
"1268 230 QCURVE",
"1086 715 LINE SMOOTH",
"1064 772 OFFCURVE",
"957 1098 OFFCURVE",
"882 1255 OFFCURVE",
"819 1311 QCURVE SMOOTH",
"782 1344 OFFCURVE",
"720 1344 QCURVE SMOOTH"
);
}
);
width = 1457;
},
{
layerId = "C2CE44A8-31E7-41E3-9ADA-B2F909F658BE";
paths = (
{
closed = 1;
nodes = (
"843 579 OFFCURVE",
"700 579 QCURVE SMOOTH",
"562 576 LINE",
"554 575 LINE",
"545 574 LINE",
"482 570 LINE",
"474 569 LINE",
"467 569 LINE SMOOTH",
"439 569 OFFCURVE",
"439 582 QCURVE SMOOTH",
"439 678 OFFCURVE",
"617 1085 QCURVE SMOOTH",
"648 1155 OFFCURVE",
"660 1155 OFFCURVE",
"678 1102 QCURVE SMOOTH",
"843 607 OFFCURVE",
"843 599 QCURVE SMOOTH",
"843 581 LINE SMOOTH"
);
},
{
closed = 1;
nodes = (
"581 1470 OFFCURVE",
"617 1470 QCURVE",
"623 1469 LINE",
"693 1469 OFFCURVE",
"950 1649 QCURVE SMOOTH",
"998 1683 OFFCURVE",
"998 1723 QCURVE SMOOTH",
"998 1739 LINE SMOOTH",
"998 1763 OFFCURVE",
"939 1809 OFFCURVE",
"908 1809 QCURVE SMOOTH",
"886 1809 LINE SMOOTH",
"837 1809 OFFCURVE",
"764 1744 QCURVE SMOOTH",
"749 1731 OFFCURVE",
"712 1681 OFFCURVE",
"677 1642 OFFCURVE",
"664 1625 OFFCURVE",
"637 1594 OFFCURVE",
"626 1580 OFFCURVE",
"581 1533 OFFCURVE",
"581 1511 QCURVE SMOOTH",
"581 1502 LINE SMOOTH"
);
},
{
closed = 1;
nodes = (
"108 22 OFFCURVE",
"320 22 QCURVE SMOOTH",
"398 22 OFFCURVE",
"398 51 QCURVE SMOOTH",
"398 64 OFFCURVE",
"308 125 OFFCURVE",
"308 206 OFFCURVE",
"387 411 OFFCURVE",
"411 433 QCURVE SMOOTH",
"447 466 OFFCURVE",
"833 466 OFFCURVE",
"889 415 OFFCURVE",
"980 205 OFFCURVE",
"980 136 OFFCURVE",
"907 75 OFFCURVE",
"907 18 OFFCURVE",
"1048 18 QCURVE SMOOTH",
"1107 18 LINE",
"1166 20 LINE SMOOTH",
"1351 20 OFFCURVE",
"1351 58 QCURVE SMOOTH",
"1351 86 OFFCURVE",
"1276 130 QCURVE SMOOTH",
"1233 156 OFFCURVE",
"1198 229 OFFCURVE",
"846 1186 OFFCURVE",
"838 1202 QCURVE SMOOTH",
"755 1379 OFFCURVE",
"692 1379 QCURVE SMOOTH",
"608 1379 OFFCURVE",
"570 1298 QCURVE SMOOTH",
"555 1265 OFFCURVE",
"482 1033 OFFCURVE",
"286 531 OFFCURVE",
"268 483 QCURVE SMOOTH",
"221 346 LINE SMOOTH",
"202 293 OFFCURVE",
"148 169 OFFCURVE",
"28 90 OFFCURVE",
"28 55 OFFCURVE",
"52 45 QCURVE SMOOTH"
);
}
);
width = 1431;
}
);
unicode = 00C1;
},
{
color = 5;
glyphname = Acircumflex;
layers = (
{
components = (
{
name = A;
},
{
name = circumflexcomb;
transform = "{1, 0, 0, 1, 692, 288}";
}
);
layerId = "92A672BF-229C-4BEC-8D25-4DDBB2A38145";
width = 1436;
},
{
components = (
{
name = A;
},
{
name = circumflexcomb;
transform = "{1, 0, 0, 1, 679, 325}";
}
);
layerId = "5CBF0BAD-1756-4F16-9711-93DC239D102B";
width = 1474;
},
{
layerId = "20E01B96-53C8-4C50-A66A-A7047371F4F1";
paths = (
{
closed = 1;
nodes = (
"493 551 OFFCURVE",
"493 564 QCURVE SMOOTH",
"493 569 LINE SMOOTH",
"493 591 OFFCURVE",
"596 860 OFFCURVE",
"656 1038 OFFCURVE",
"664 1038 OFFCURVE",
"677 997 OFFCURVE",
"682 985 QCURVE SMOOTH",
"825 642 OFFCURVE",
"825 566 QCURVE SMOOTH",
"825 561 LINE SMOOTH",
"825 551 OFFCURVE",
"733 551 QCURVE SMOOTH",
"567 551 LINE SMOOTH"
);
},
{
closed = 1;
nodes = (
"648 1807 OFFCURVE",
"606 1765 QCURVE SMOOTH",
"397 1556 OFFCURVE",
"397 1499 QCURVE SMOOTH",
"397 1461 OFFCURVE",
"523 1461 OFFCURVE",
"599 1521 QCURVE",
"601 1523 OFFCURVE",
"712 1617 OFFCURVE",
"720 1617 OFFCURVE",
"753 1591 QCURVE SMOOTH",
"815 1541 LINE SMOOTH",
"906 1463 OFFCURVE",
"1042 1463 OFFCURVE",
"1043 1499 QCURVE SMOOTH",
"1043 1506 LINE SMOOTH",
"1043 1518 OFFCURVE",
"985 1581 OFFCURVE",
"852 1750 OFFCURVE",
"790 1807 OFFCURVE",
"739 1807 QCURVE SMOOTH",
"703 1807 LINE SMOOTH"
);
},
{
closed = 1;
nodes = (
"595 1347 OFFCURVE",
"516 1214 OFFCURVE",
"440 909 OFFCURVE",
"382 759 OFFCURVE",
"357 691 QCURVE SMOOTH",
"291 518 LINE SMOOTH",
"202 283 OFFCURVE",
"193 263 QCURVE SMOOTH",
"156 180 OFFCURVE",
"18 71 OFFCURVE",
"18 3 OFFCURVE",
"94 -18 OFFCURVE",
"227 -18 QCURVE SMOOTH",
"381 -18 LINE SMOOTH",
"473 -18 OFFCURVE",
"473 20 QCURVE SMOOTH",
"473 43 OFFCURVE",
"390 184 OFFCURVE",
"390 273 OFFCURVE",
"440 386 OFFCURVE",
"481 412 OFFCURVE",
"837 412 OFFCURVE",
"881 383 OFFCURVE",
"932 233 OFFCURVE",
"932 166 QCURVE SMOOTH",
"932 140 OFFCURVE",
"878 51 OFFCURVE",
"878 30 QCURVE SMOOTH",
"878 -18 OFFCURVE",
"982 -18 QCURVE SMOOTH",
"1012 -18 LINE SMOOTH",
"1015 -18 OFFCURVE",
"1103 -15 QCURVE SMOOTH",
"1162 -13 LINE SMOOTH",
"1336 -13 OFFCURVE",
"1424 12 OFFCURVE",
"1424 75 OFFCURVE",
"1299 168 OFFCURVE",
"1268 233 QCURVE SMOOTH",
"1254 261 OFFCURVE",
"1214 371 QCURVE SMOOTH",
"1172 485 LINE SMOOTH",
"1156 527 OFFCURVE",
"1150 543 QCURVE SMOOTH",
"1129 602 LINE SMOOTH",
"1093 699 OFFCURVE",
"1072 753 OFFCURVE",
"945 1134 OFFCURVE",
"865 1272 OFFCURVE",
"781 1347 OFFCURVE",
"720 1347 QCURVE SMOOTH"
);
}
);
width = 1457;
},
{
layerId = "C2CE44A8-31E7-41E3-9ADA-B2F909F658BE";
paths = (
{
closed = 1;
nodes = (
"438 585 OFFCURVE",
"438 597 QCURVE SMOOTH",
"438 603 LINE SMOOTH",
"438 683 OFFCURVE",
"606 1067 QCURVE SMOOTH",
"642 1149 OFFCURVE",
"649 1149 OFFCURVE",
"679 1074 QCURVE SMOOTH",
"847 654 OFFCURVE",
"847 603 QCURVE SMOOTH",
"847 586 OFFCURVE",
"649 586 QCURVE SMOOTH",
"607 586 LINE",
"599 585 LINE",
"583 585 LINE SMOOTH"
);
},
{
closed = 1;
nodes = (
"999 1468 OFFCURVE",
"999 1498 QCURVE SMOOTH",
"999 1520 OFFCURVE",
"737 1803 OFFCURVE",
"700 1803 QCURVE SMOOTH",
"684 1803 LINE SMOOTH",
"637 1803 OFFCURVE",
"532 1677 QCURVE SMOOTH",
"502 1641 OFFCURVE",
"492 1631 OFFCURVE",
"386 1506 OFFCURVE",
"386 1502 QCURVE SMOOTH",
"386 1496 LINE SMOOTH",
"386 1468 OFFCURVE",
"478 1468 OFFCURVE",
"679 1638 OFFCURVE",
"690 1638 QCURVE SMOOTH",
"692 1638 OFFCURVE",
"913 1468 OFFCURVE",
"950 1468 QCURVE SMOOTH",
"965 1468 LINE SMOOTH"
);
},
{
closed = 1;
nodes = (
"398 6 OFFCURVE",
"398 37 QCURVE SMOOTH",
"398 51 OFFCURVE",
"304 115 OFFCURVE",
"304 203 OFFCURVE",
"386 409 OFFCURVE",
"407 430 QCURVE SMOOTH",
"443 465 OFFCURVE",
"836 465 OFFCURVE",
"894 413 OFFCURVE",
"984 196 OFFCURVE",
"984 124 OFFCURVE",
"906 62 OFFCURVE",
"906 34 QCURVE SMOOTH",
"906 1 OFFCURVE",
"1084 1 QCURVE SMOOTH",
"1114 2 LINE SMOOTH",
"1363 2 OFFCURVE",
"1363 42 QCURVE SMOOTH",
"1363 69 OFFCURVE",
"1285 113 QCURVE SMOOTH",
"1244 136 OFFCURVE",
"1192 245 OFFCURVE",
"1121 461 OFFCURVE",
"968 862 OFFCURVE",
"876 1126 OFFCURVE",
"853 1179 QCURVE SMOOTH",
"764 1385 OFFCURVE",
"618 1385 OFFCURVE",
"580 1326 QCURVE SMOOTH",
"568 1308 OFFCURVE",
"470 1012 OFFCURVE",
"384 790 QCURVE SMOOTH",
"272 502 LINE SMOOTH",
"176 238 OFFCURVE",
"172 228 QCURVE SMOOTH",
"139 153 OFFCURVE",
"93 123 QCURVE SMOOTH",
"17 73 OFFCURVE",
"17 37 OFFCURVE",
"94 6 OFFCURVE",
"288 6 QCURVE SMOOTH"
);
}
);
width = 1433;
}
);
unicode = 00C2;
},
{
color = 5;
glyphname = Adieresis;
layers = (
{
components = (
{
name = A;
},
{
name = dieresiscomb;
transform = "{1, 0, 0, 1, 683, 408}";
}
);
layerId = "92A672BF-229C-4BEC-8D25-4DDBB2A38145";
width = 1436;
},
{
components = (
{
name = A;
},
{
name = dieresiscomb;
transform = "{1, 0, 0, 1, 674, 374}";
}
);
layerId = "5CBF0BAD-1756-4F16-9711-93DC239D102B";
width = 1474;
},
{
layerId = "20E01B96-53C8-4C50-A66A-A7047371F4F1";
paths = (
{
closed = 1;
nodes = (
"497 560 OFFCURVE",
"497 573 QCURVE SMOOTH",
"497 578 LINE SMOOTH",
"497 616 OFFCURVE",
"663 1047 OFFCURVE",
"668 1047 OFFCURVE",
"740 832 OFFCURVE",
"830 598 OFFCURVE",
"830 575 QCURVE SMOOTH",
"830 570 LINE SMOOTH",
"830 560 OFFCURVE",
"786 560 QCURVE SMOOTH",
"529 560 LINE SMOOTH"
);
},
{
closed = 1;
nodes = (
"567 1489 OFFCURVE",
"655 1552 OFFCURVE",
"655 1615 QCURVE SMOOTH",
"655 1648 LINE",
"653 1657 LINE",
"653 1710 OFFCURVE",
"571 1768 OFFCURVE",
"528 1768 QCURVE SMOOTH",
"499 1768 LINE SMOOTH",
"441 1768 OFFCURVE",
"370 1686 OFFCURVE",
"370 1637 QCURVE SMOOTH",
"370 1618 LINE",
"373 1595 LINE",
"373 1547 OFFCURVE",
"455 1489 OFFCURVE",
"503 1489 QCURVE SMOOTH",
"522 1489 LINE SMOOTH"
);
},
{
closed = 1;
nodes = (
"795 1633 LINE",
"795 1618 LINE SMOOTH",
"795 1557 OFFCURVE",
"874 1489 OFFCURVE",
"928 1489 QCURVE SMOOTH",
"947 1489 LINE SMOOTH",
"1005 1489 OFFCURVE",
"1078 1562 OFFCURVE",
"1078 1597 QCURVE",
"1080 1620 LINE",
"1081 1624 LINE",
"1081 1639 LINE SMOOTH",
"1081 1689 OFFCURVE",
"1013 1768 OFFCURVE",
"953 1768 QCURVE SMOOTH",
"929 1768 LINE SMOOTH",
"878 1768 OFFCURVE",
"798 1701 OFFCURVE",
"798 1660 QCURVE",
"796 1637 LINE"
);
},
{
closed = 1;
nodes = (
"652 1355 OFFCURVE",
"574 1318 OFFCURVE",
"523 1216 OFFCURVE",
"437 896 OFFCURVE",
"304 551 OFFCURVE",
"233 355 OFFCURVE",
"165 194 OFFCURVE",
"22 78 OFFCURVE",
"22 12 OFFCURVE",
"98 -9 OFFCURVE",
"261 -9 QCURVE SMOOTH",
"323 -9 LINE",
"354 -10 LINE SMOOTH",
"478 -10 OFFCURVE",
"478 28 QCURVE SMOOTH",
"478 52 OFFCURVE",
"395 193 OFFCURVE",
"395 285 OFFCURVE",
"444 394 OFFCURVE",
"486 421 OFFCURVE",
"840 421 OFFCURVE",
"886 390 OFFCURVE",
"937 239 OFFCURVE",
"937 175 QCURVE SMOOTH",
"937 150 OFFCURVE",
"882 57 OFFCURVE",
"882 39 QCURVE SMOOTH",
"882 -9 OFFCURVE",
"987 -9 QCURVE SMOOTH",
"1018 -9 OFFCURVE",
"1048 -8 QCURVE SMOOTH",
"1078 -7 LINE SMOOTH",
"1330 -7 OFFCURVE",
"1390 9 QCURVE SMOOTH",
"1428 19 OFFCURVE",
"1428 53 QCURVE SMOOTH",
"1428 72 OFFCURVE",
"1337 152 QCURVE SMOOTH",
"1291 192 OFFCURVE",
"1245 308 OFFCURVE",
"1091 726 QCURVE SMOOTH",
"963 1109 OFFCURVE",
"885 1267 OFFCURVE",
"787 1355 OFFCURVE",
"755 1355 QCURVE SMOOTH",
"725 1355 LINE SMOOTH"
);
}
);
width = 1457;
},
{
layerId = "C2CE44A8-31E7-41E3-9ADA-B2F909F658BE";
paths = (
{
closed = 1;
nodes = (
"438 622 OFFCURVE",
"495 764 OFFCURVE",
"521 849 OFFCURVE",
"605 1072 OFFCURVE",
"631 1150 OFFCURVE",
"640 1150 QCURVE SMOOTH",
"642 1150 OFFCURVE",
"669 1083 QCURVE SMOOTH",
"836 666 OFFCURVE",
"836 597 QCURVE SMOOTH",
"836 591 LINE SMOOTH",
"836 577 OFFCURVE",
"645 577 QCURVE SMOOTH",
"604 577 LINE",
"596 576 LINE",
"588 576 LINE SMOOTH",
"438 576 OFFCURVE",
"438 590 QCURVE SMOOTH",
"438 596 LINE SMOOTH"
);
},
{
closed = 1;
nodes = (
"505 1522 LINE",
"526 1525 LINE",
"554 1525 OFFCURVE",
"614 1585 OFFCURVE",
"614 1630 QCURVE SMOOTH",
"614 1641 LINE SMOOTH",
"614 1685 OFFCURVE",
"554 1745 OFFCURVE",
"514 1745 QCURVE SMOOTH",
"492 1745 LINE SMOOTH",
"453 1745 OFFCURVE",
"390 1682 OFFCURVE",
"390 1637 QCURVE SMOOTH",
"390 1630 LINE",
"393 1608 LINE",
"393 1574 OFFCURVE",
"458 1522 OFFCURVE",
"490 1522 QCURVE SMOOTH"
);
},
{
closed = 1;
nodes = (
"990 1616 LINE",
"990 1627 LINE",
"988 1642 LINE",
"988 1646 OFFCURVE",
"986 1652 QCURVE",
"986 1677 OFFCURVE",
"929 1734 OFFCURVE",
"890 1734 QCURVE SMOOTH",
"869 1734 LINE SMOOTH",
"833 1734 OFFCURVE",
"770 1671 OFFCURVE",
"770 1628 QCURVE SMOOTH",
"770 1613 LINE SMOOTH",
"770 1564 OFFCURVE",
"837 1510 OFFCURVE",
"877 1510 QCURVE SMOOTH",
"881 1510 LINE SMOOTH",
"928 1510 OFFCURVE",
"987 1569 OFFCURVE",
"987 1594 QCURVE",
"989 1612 OFFCURVE",
"989 1612 QCURVE"
);
},
{
closed = 1;
nodes = (
"8 6 OFFCURVE",
"279 6 QCURVE SMOOTH",
"390 6 OFFCURVE",
"390 40 QCURVE SMOOTH",
"390 55 OFFCURVE",
"294 119 OFFCURVE",
"294 203 OFFCURVE",
"372 413 OFFCURVE",
"435 473 OFFCURVE",
"839 473 OFFCURVE",
"900 418 OFFCURVE",
"990 198 OFFCURVE",
"990 130 OFFCURVE",
"914 66 OFFCURVE",
"914 34 QCURVE SMOOTH",
"914 -4 OFFCURVE",
"1154 -4 QCURVE SMOOTH",
"1184 -4 LINE SMOOTH",
"1372 -4 OFFCURVE",
"1372 32 QCURVE SMOOTH",
"1372 58 OFFCURVE",
"1252 126 OFFCURVE",
"1205 224 OFFCURVE",
"954 884 OFFCURVE",
"860 1149 OFFCURVE",
"852 1167 QCURVE SMOOTH",
"767 1372 OFFCURVE",
"610 1372 OFFCURVE",
"573 1312 QCURVE SMOOTH",
"559 1289 OFFCURVE",
"493 1074 OFFCURVE",
"452 955 OFFCURVE",
"264 497 OFFCURVE",
"168 233 OFFCURVE",
"120 133 OFFCURVE",
"8 72 OFFCURVE",
"8 48 QCURVE SMOOTH"
);
}
);
width = 1430;
}
);
unicode = 00C4;
},
{
color = 5;
glyphname = Agrave;
layers = (
{
components = (
{
name = A;
},
{
name = gravecomb;
transform = "{1, 0, 0, 1, 692, 384}";
}
);
layerId = "92A672BF-229C-4BEC-8D25-4DDBB2A38145";
width = 1436;
},
{
components = (
{
name = A;
},
{
name = gravecomb;
transform = "{1, 0, 0, 1, 679, 383}";
}
);
layerId = "5CBF0BAD-1756-4F16-9711-93DC239D102B";
width = 1474;
},
{
layerId = "20E01B96-53C8-4C50-A66A-A7047371F4F1";
paths = (
{
closed = 1;
nodes = (
"493 549 OFFCURVE",
"493 561 QCURVE SMOOTH",
"493 566 LINE SMOOTH",
"493 588 OFFCURVE",
"611 896 OFFCURVE",
"654 1036 OFFCURVE",
"660 1036 QCURVE SMOOTH",
"661 1036 OFFCURVE",
"682 982 QCURVE SMOOTH",
"825 610 OFFCURVE",
"825 563 QCURVE SMOOTH",
"825 558 LINE SMOOTH",
"825 549 OFFCURVE",
"802 549 QCURVE SMOOTH",
"518 549 LINE SMOOTH"
);
},
{
closed = 1;
nodes = (
"843 1552 OFFCURVE",
"670 1774 QCURVE SMOOTH",
"631 1824 OFFCURVE",
"561 1824 QCURVE SMOOTH",
"536 1824 LINE SMOOTH",
"482 1824 OFFCURVE",
"418 1789 QCURVE SMOOTH",
"402 1780 OFFCURVE",
"402 1765 QCURVE SMOOTH",
"402 1760 LINE SMOOTH",
"402 1695 OFFCURVE",
"655 1511 QCURVE SMOOTH",
"724 1461 OFFCURVE",
"777 1461 QCURVE SMOOTH",
"794 1461 LINE SMOOTH",
"843 1461 OFFCURVE",
"843 1490 QCURVE SMOOTH",
"843 1500 LINE SMOOTH"
);
},
{
closed = 1;
nodes = (
"595 1344 OFFCURVE",
"518 1214 OFFCURVE",
"439 904 OFFCURVE",
"371 728 OFFCURVE",
"367 717 QCURVE SMOOTH",
"302 544 LINE SMOOTH",
"273 469 OFFCURVE",
"218 320 OFFCURVE",
"205 288 QCURVE SMOOTH",
"165 191 OFFCURVE",
"114 146 QCURVE SMOOTH",
"18 62 OFFCURVE",
"18 38 QCURVE SMOOTH",
"18 1 OFFCURVE",
"54 -10 QCURVE SMOOTH",
"91 -21 OFFCURVE",
"227 -21 QCURVE SMOOTH",
"381 -21 LINE SMOOTH",
"473 -21 OFFCURVE",
"473 17 QCURVE SMOOTH",
"473 40 OFFCURVE",
"390 181 OFFCURVE",
"390 272 OFFCURVE",
"440 383 OFFCURVE",
"482 410 OFFCURVE",
"836 410 OFFCURVE",
"881 379 OFFCURVE",
"932 233 OFFCURVE",
"932 164 QCURVE SMOOTH",
"932 139 OFFCURVE",
"878 47 OFFCURVE",
"878 28 QCURVE SMOOTH",
"878 -21 OFFCURVE",
"1012 -21 QCURVE SMOOTH",
"1250 -21 OFFCURVE",
"1361 -6 QCURVE SMOOTH",
"1424 2 OFFCURVE",
"1424 42 QCURVE SMOOTH",
"1424 74 OFFCURVE",
"1300 163 OFFCURVE",
"1268 230 QCURVE SMOOTH",
"1256 255 OFFCURVE",
"1214 369 QCURVE SMOOTH",
"1172 483 LINE SMOOTH",
"1155 528 OFFCURVE",
"1135 584 OFFCURVE",
"1129 599 QCURVE SMOOTH",
"1107 657 LINE SMOOTH",
"1092 699 OFFCURVE",
"1074 746 OFFCURVE",
"945 1131 OFFCURVE",
"864 1271 OFFCURVE",
"782 1344 OFFCURVE",
"720 1344 QCURVE SMOOTH"
);
}
);
width = 1457;
},
{
layerId = "C2CE44A8-31E7-41E3-9ADA-B2F909F658BE";
paths = (
{
closed = 1;
nodes = (
"607 580 LINE",
"485 584 LINE",
"469 586 LINE",
"445 586 OFFCURVE",
"445 600 QCURVE SMOOTH",
"445 634 OFFCURVE",
"492 757 OFFCURVE",
"505 799 OFFCURVE",
"516 825 OFFCURVE",
"540 903 OFFCURVE",
"605 1066 OFFCURVE",
"633 1151 OFFCURVE",
"641 1151 QCURVE SMOOTH",
"644 1151 OFFCURVE",
"671 1084 QCURVE SMOOTH",
"848 642 OFFCURVE",
"848 599 QCURVE SMOOTH",
"848 593 LINE SMOOTH",
"848 580 OFFCURVE",
"755 580 QCURVE SMOOTH"
);
},
{
closed = 1;
nodes = (
"479 1804 LINE",
"469 1802 LINE",
"392 1802 OFFCURVE",
"392 1748 QCURVE SMOOTH",
"392 1733 LINE SMOOTH",
"392 1693 OFFCURVE",
"495 1624 QCURVE SMOOTH",
"708 1482 OFFCURVE",
"745 1482 QCURVE SMOOTH",
"751 1482 OFFCURVE",
"761 1480 QCURVE",
"798 1480 OFFCURVE",
"798 1509 QCURVE SMOOTH",
"798 1518 LINE SMOOTH",
"798 1573 OFFCURVE",
"601 1748 QCURVE SMOOTH",
"538 1804 OFFCURVE",
"495 1804 QCURVE SMOOTH"
);
},
{
closed = 1;
nodes = (
"10 8 OFFCURVE",
"282 8 QCURVE SMOOTH",
"392 8 OFFCURVE",
"392 44 QCURVE SMOOTH",
"392 57 OFFCURVE",
"297 118 OFFCURVE",
"297 225 OFFCURVE",
"377 417 OFFCURVE",
"401 439 QCURVE SMOOTH",
"440 474 OFFCURVE",
"843 474 OFFCURVE",
"897 428 OFFCURVE",
"992 198 OFFCURVE",
"992 133 OFFCURVE",
"916 69 OFFCURVE",
"916 22 OFFCURVE",
"978 -2 OFFCURVE",
"1124 -2 QCURVE SMOOTH",
"1273 -2 LINE SMOOTH",
"1375 -2 OFFCURVE",
"1375 33 QCURVE SMOOTH",
"1375 59 OFFCURVE",
"1298 103 QCURVE SMOOTH",
"1254 129 OFFCURVE",
"1201 237 OFFCURVE",
"1131 435 OFFCURVE",
"958 870 OFFCURVE",
"885 1087 QCURVE SMOOTH",
"787 1374 OFFCURVE",
"690 1374 QCURVE SMOOTH",
"604 1374 OFFCURVE",
"563 1290 QCURVE SMOOTH",
"548 1258 OFFCURVE",
"491 1062 OFFCURVE",
"448 933 OFFCURVE",
"253 464 OFFCURVE",
"162 217 OFFCURVE",
"151 193 QCURVE SMOOTH",
"125 138 OFFCURVE",
"10 73 OFFCURVE",
"10 47 QCURVE SMOOTH"
);
}
);
width = 1430;
}
);
unicode = 00C0;
},
{
color = 5;
glyphname = Aring;
layers = (
{
components = (
{
name = A;
},
{
name = ringcomb;
transform = "{1, 0, 0, 1, 692, 340}";
}
);
layerId = "92A672BF-229C-4BEC-8D25-4DDBB2A38145";
width = 1436;
},
{
components = (
{
name = A;
},
{
name = ringcomb;
transform = "{1, 0, 0, 1, 679, 364}";
}
);
layerId = "5CBF0BAD-1756-4F16-9711-93DC239D102B";
width = 1474;
},
{
layerId = "20E01B96-53C8-4C50-A66A-A7047371F4F1";
paths = (
{
closed = 1;
nodes = (
"621 1605 LINE",
"624 1622 LINE",
"624 1639 OFFCURVE",
"670 1696 OFFCURVE",
"689 1696 QCURVE",
"719 1701 LINE",
"726 1701 LINE",
"746 1698 LINE",
"768 1698 OFFCURVE",
"824 1642 OFFCURVE",
"824 1606 QCURVE SMOOTH",
"824 1589 LINE",
"821 1568 LINE",
"821 1539 OFFCURVE",
"758 1489 OFFCURVE",
"680 1489 OFFCURVE",
"626 1543 OFFCURVE",
"626 1564 OFFCURVE",
"621 1584 QCURVE"
);
},
{
closed = 1;
nodes = (
"494 534 OFFCURVE",
"494 547 QCURVE SMOOTH",
"494 587 OFFCURVE",
"660 1020 OFFCURVE",
"669 1020 OFFCURVE",
"691 948 OFFCURVE",
"715 885 OFFCURVE",
"725 854 OFFCURVE",
"762 750 OFFCURVE",
"771 719 OFFCURVE",
"831 563 OFFCURVE",
"831 551 QCURVE SMOOTH",
"831 545 LINE SMOOTH",
"831 534 OFFCURVE",
"804 534 QCURVE SMOOTH",
"518 534 LINE SMOOTH"
);
},
{
closed = 1;
nodes = (
"495 1499 OFFCURVE",
"622 1384 OFFCURVE",
"707 1384 QCURVE SMOOTH",
"729 1384 LINE SMOOTH",
"816 1384 OFFCURVE",
"951 1505 OFFCURVE",
"951 1588 QCURVE SMOOTH",
"951 1610 LINE SMOOTH",
"951 1691 OFFCURVE",
"825 1805 OFFCURVE",
"740 1805 QCURVE",
"732 1806 LINE",
"725 1806 LINE SMOOTH",
"630 1806 OFFCURVE",
"495 1685 OFFCURVE",
"495 1602 QCURVE SMOOTH",
"495 1580 LINE SMOOTH"
);
},
{
closed = 1;
nodes = (
"1427 49 OFFCURVE",
"1301 159 OFFCURVE",
"1248 274 OFFCURVE",
"1044 827 OFFCURVE",
"963 1090 OFFCURVE",
"930 1154 QCURVE SMOOTH",
"843 1323 OFFCURVE",
"588 1323 OFFCURVE",
"515 1188 OFFCURVE",
"433 869 OFFCURVE",
"302 529 OFFCURVE",
"210 280 OFFCURVE",
"163 179 OFFCURVE",
"23 50 OFFCURVE",
"23 44 QCURVE SMOOTH",
"23 -9 OFFCURVE",
"116 -32 OFFCURVE",
"238 -32 QCURVE SMOOTH",
"360 -32 LINE SMOOTH",
"471 -32 OFFCURVE",
"471 10 QCURVE SMOOTH",
"471 31 OFFCURVE",
"397 175 OFFCURVE",
"397 205 QCURVE SMOOTH",
"397 317 OFFCURVE",
"455 373 QCURVE SMOOTH",
"481 398 OFFCURVE",
"848 398 OFFCURVE",
"874 373 QCURVE SMOOTH",
"930 319 OFFCURVE",
"930 171 QCURVE SMOOTH",
"930 119 OFFCURVE",
"891 30 OFFCURVE",
"891 11 QCURVE SMOOTH",
"891 -32 OFFCURVE",
"1000 -32 QCURVE SMOOTH",
"1031 -32 LINE SMOOTH",
"1294 -32 OFFCURVE",
"1376 -15 QCURVE SMOOTH",
"1427 -4 OFFCURVE",
"1427 40 QCURVE SMOOTH"
);
}
);
width = 1462;
},
{
layerId = "C2CE44A8-31E7-41E3-9ADA-B2F909F658BE";
paths = (
{
closed = 1;
nodes = (
"560 1682 OFFCURVE",
"627 1735 OFFCURVE",
"666 1735 QCURVE",
"670 1736 LINE",
"720 1736 OFFCURVE",
"783 1673 OFFCURVE",
"783 1631 QCURVE SMOOTH",
"783 1624 LINE",
"780 1603 LINE",
"780 1570 OFFCURVE",
"715 1518 OFFCURVE",
"684 1518 QCURVE SMOOTH",
"665 1518 LINE",
"647 1521 LINE",
"619 1521 OFFCURVE",
"563 1577 OFFCURVE",
"563 1602 QCURVE",
"561 1615 LINE",
"561 1619 OFFCURVE",
"561 1623 QCURVE",
"560 1626 LINE",
"560 1634 LINE SMOOTH"
);
},
{
closed = 1;
nodes = (
"776 554 LINE",
"703 557 LINE",
"686 557 LINE",
"513 555 LINE",
"505 554 LINE",
"459 554 LINE SMOOTH",
"439 554 OFFCURVE",
"439 563 QCURVE SMOOTH",
"439 590 OFFCURVE",
"633 1134 OFFCURVE",
"641 1134 OFFCURVE",
"674 1018 OFFCURVE",
"722 916 OFFCURVE",
"765 769 OFFCURVE",
"770 753 QCURVE SMOOTH",
"786 697 LINE",
"808 628 LINE SMOOTH",
"826 576 OFFCURVE",
"826 570 QCURVE SMOOTH",
"826 564 LINE SMOOTH",
"826 554 OFFCURVE",
"799 554 QCURVE SMOOTH"
);
},
{
closed = 1;
nodes = (
"746 1441 OFFCURVE",
"869 1540 OFFCURVE",
"869 1616 QCURVE SMOOTH",
"869 1641 LINE SMOOTH",
"869 1711 OFFCURVE",
"756 1812 OFFCURVE",
"684 1812 QCURVE SMOOTH",
"664 1812 LINE SMOOTH",
"590 1812 OFFCURVE",
"473 1708 OFFCURVE",
"473 1631 QCURVE SMOOTH",
"473 1625 LINE SMOOTH",
"473 1548 OFFCURVE",
"580 1441 OFFCURVE",
"659 1441 QCURVE SMOOTH",
"678 1441 LINE SMOOTH"
);
},
{
closed = 1;
nodes = (
"384 -1 OFFCURVE",
"384 29 QCURVE SMOOTH",
"384 39 OFFCURVE",
"292 111 OFFCURVE",
"292 145 QCURVE SMOOTH",
"292 206 OFFCURVE",
"358 352 QCURVE SMOOTH",
"392 427 OFFCURVE",
"458 461 OFFCURVE",
"830 461 OFFCURVE",
"875 416 OFFCURVE",
"971 203 OFFCURVE",
"971 113 OFFCURVE",
"892 55 OFFCURVE",
"892 -4 OFFCURVE",
"953 -4 QCURVE SMOOTH",
"1063 -7 LINE",
"1124 -7 LINE SMOOTH",
"1344 -7 OFFCURVE",
"1344 33 QCURVE SMOOTH",
"1344 60 OFFCURVE",
"1268 104 QCURVE SMOOTH",
"1224 129 OFFCURVE",
"1177 229 OFFCURVE",
"860 1122 OFFCURVE",
"841 1163 QCURVE SMOOTH",
"751 1362 OFFCURVE",
"678 1362 QCURVE SMOOTH",
"591 1362 OFFCURVE",
"551 1284 QCURVE SMOOTH",
"539 1260 OFFCURVE",
"468 1023 OFFCURVE",
"275 533 OFFCURVE",
"163 225 OFFCURVE",
"161 221 QCURVE",
"132 157 OFFCURVE",
"13 67 OFFCURVE",
"13 50 QCURVE SMOOTH",
"13 -1 OFFCURVE",
"309 -1 QCURVE SMOOTH"
);
}
);
width = 1432;
}
);
unicode = 00C5;
},
{
color = 5;
glyphname = Atilde;
layers = (
{
components = (
{
name = A;
},
{
name = tildecomb;
transform = "{1, 0, 0, 1, 692, 324}";
}
);
layerId = "92A672BF-229C-4BEC-8D25-4DDBB2A38145";
width = 1436;
},
{
components = (
{
name = A;
},
{
name = tildecomb;
transform = "{1, 0, 0, 1, 679, 322}";
}
);
layerId = "5CBF0BAD-1756-4F16-9711-93DC239D102B";
width = 1474;
},
{
layerId = "20E01B96-53C8-4C50-A66A-A7047371F4F1";
paths = (
{
closed = 1;
nodes = (
"493 554 OFFCURVE",
"493 567 QCURVE SMOOTH",
"493 572 LINE SMOOTH",
"493 594 OFFCURVE",
"613 906 OFFCURVE",
"654 1041 OFFCURVE",
"662 1041 OFFCURVE",
"682 988 QCURVE SMOOTH",
"825 616 OFFCURVE",
"825 569 QCURVE SMOOTH",
"825 564 LINE SMOOTH",
"825 554 OFFCURVE",
"781 554 QCURVE SMOOTH",
"525 554 LINE SMOOTH"
);
},
{
closed = 1;
nodes = (
"491 1762 OFFCURVE",
"349 1609 OFFCURVE",
"349 1547 QCURVE SMOOTH",
"349 1495 OFFCURVE",
"412 1495 QCURVE SMOOTH",
"430 1495 OFFCURVE",
"521 1579 OFFCURVE",
"604 1579 OFFCURVE",
"796 1483 OFFCURVE",
"853 1483 QCURVE",
"863 1482 LINE",
"872 1482 LINE SMOOTH",
"948 1482 OFFCURVE",
"1007 1541 QCURVE SMOOTH",
"1093 1627 OFFCURVE",
"1093 1696 QCURVE SMOOTH",
"1093 1706 LINE SMOOTH",
"1093 1749 OFFCURVE",
"1038 1749 QCURVE SMOOTH",
"1009 1749 OFFCURVE",
"928 1668 OFFCURVE",
"837 1668 OFFCURVE",
"649 1762 OFFCURVE",
"590 1762 QCURVE SMOOTH",
"563 1762 LINE SMOOTH"
);
},
{
closed = 1;
nodes = (
"569 1312 OFFCURVE",
"511 1196 OFFCURVE",
"439 910 OFFCURVE",
"381 758 OFFCURVE",
"203 288 OFFCURVE",
"193 266 QCURVE SMOOTH",
"158 186 OFFCURVE",
"18 72 OFFCURVE",
"18 6 OFFCURVE",
"94 -15 OFFCURVE",
"257 -15 QCURVE SMOOTH",
"287 -15 LINE",
"319 -16 LINE",
"349 -16 LINE SMOOTH",
"473 -16 OFFCURVE",
"473 22 QCURVE SMOOTH",
"473 46 OFFCURVE",
"390 187 OFFCURVE",
"390 277 OFFCURVE",
"440 388 OFFCURVE",
"482 415 OFFCURVE",
"835 415 OFFCURVE",
"881 384 OFFCURVE",
"932 236 OFFCURVE",
"932 169 QCURVE SMOOTH",
"932 144 OFFCURVE",
"878 53 OFFCURVE",
"878 33 QCURVE SMOOTH",
"878 -15 OFFCURVE",
"982 -15 QCURVE SMOOTH",
"1013 -15 OFFCURVE",
"1044 -14 QCURVE SMOOTH",
"1074 -13 LINE SMOOTH",
"1325 -13 OFFCURVE",
"1386 3 QCURVE SMOOTH",
"1424 13 OFFCURVE",
"1424 77 OFFCURVE",
"1299 170 OFFCURVE",
"1268 235 QCURVE",
"1086 720 LINE SMOOTH",
"1065 775 OFFCURVE",
"948 1133 OFFCURVE",
"865 1275 OFFCURVE",
"781 1350 OFFCURVE",
"650 1350 OFFCURVE",
"609 1331 QCURVE SMOOTH"
);
}
);
width = 1457;
},
{
layerId = "C2CE44A8-31E7-41E3-9ADA-B2F909F658BE";
paths = (
{
closed = 1;
nodes = (
"439 584 OFFCURVE",
"439 603 QCURVE SMOOTH",
"439 645 OFFCURVE",
"640 1147 OFFCURVE",
"651 1147 OFFCURVE",
"677 1081 QCURVE SMOOTH",
"849 651 OFFCURVE",
"849 603 QCURVE SMOOTH",
"849 585 OFFCURVE",
"659 585 QCURVE SMOOTH",
"643 585 LINE",
"634 584 LINE",
"519 584 LINE SMOOTH"
);
},
{
closed = 1;
nodes = (
"500 1739 OFFCURVE",
"452 1698 QCURVE SMOOTH",
"362 1622 OFFCURVE",
"362 1558 QCURVE SMOOTH",
"362 1551 LINE SMOOTH",
"362 1523 OFFCURVE",
"393 1523 QCURVE SMOOTH",
"402 1523 OFFCURVE",
"497 1602 OFFCURVE",
"584 1602 OFFCURVE",
"762 1513 OFFCURVE",
"809 1513 QCURVE SMOOTH",
"841 1513 LINE SMOOTH",
"895 1513 OFFCURVE",
"1025 1632 OFFCURVE",
"1025 1692 QCURVE SMOOTH",
"1025 1700 LINE SMOOTH",
"1025 1728 OFFCURVE",
"987 1728 QCURVE SMOOTH",
"979 1728 OFFCURVE",
"923 1677 OFFCURVE",
"883 1649 OFFCURVE",
"811 1649 OFFCURVE",
"619 1739 OFFCURVE",
"580 1739 QCURVE SMOOTH",
"565 1739 LINE SMOOTH"
);
},
{
closed = 1;
nodes = (
"10 8 OFFCURVE",
"282 8 QCURVE SMOOTH",
"392 8 OFFCURVE",
"392 43 QCURVE SMOOTH",
"392 55 OFFCURVE",
"296 122 OFFCURVE",
"296 211 OFFCURVE",
"376 416 OFFCURVE",
"439 476 OFFCURVE",
"840 476 OFFCURVE",
"902 422 OFFCURVE",
"992 201 OFFCURVE",
"992 132 OFFCURVE",
"916 68 OFFCURVE",
"916 37 QCURVE SMOOTH",
"916 -1 OFFCURVE",
"1124 -1 QCURVE SMOOTH",
"1244 -1 LINE SMOOTH",
"1375 -1 OFFCURVE",
"1375 69 OFFCURVE",
"1264 119 OFFCURVE",
"1241 157 QCURVE SMOOTH",
"1234 168 OFFCURVE",
"983 814 OFFCURVE",
"857 1165 OFFCURVE",
"844 1194 QCURVE SMOOTH",
"762 1375 OFFCURVE",
"692 1375 QCURVE SMOOTH",
"615 1375 OFFCURVE",
"578 1316 QCURVE SMOOTH",
"567 1298 OFFCURVE",
"457 963 OFFCURVE",
"258 478 OFFCURVE",
"221 373 QCURVE SMOOTH",
"183 268 OFFCURVE",
"127 142 OFFCURVE",
"85 116 QCURVE SMOOTH",
"10 69 OFFCURVE",
"10 51 QCURVE SMOOTH"
);
}
);
width = 1427;
}
);
unicode = 00C3;
},
{
color = 5;
glyphname = AE;
layers = (
{
layerId = "92A672BF-229C-4BEC-8D25-4DDBB2A38145";
paths = (
{
closed = 1;
nodes = (
"1671 1 OFFCURVE",
"1792 25 OFFCURVE",
"1792 206 CURVE SMOOTH",
"1792 252 OFFCURVE",
"1786 262 OFFCURVE",
"1765 262 CURVE SMOOTH",
"1746 262 OFFCURVE",
"1627 123 OFFCURVE",
"1371 123 CURVE SMOOTH",
"1169 123 OFFCURVE",
"1138 268 OFFCURVE",
"1138 468 CURVE SMOOTH",
"1138 575 OFFCURVE",
"1196 634 OFFCURVE",
"1299 634 CURVE SMOOTH",
"1395 634 OFFCURVE",
"1473 553 OFFCURVE",
"1507 553 CURVE SMOOTH",
"1543 553 OFFCURVE",
"1564 601 OFFCURVE",
"1564 707.5 CURVE SMOOTH",
"1564 815 OFFCURVE",
"1543 866 OFFCURVE",
"1504 866 CURVE SMOOTH",
"1462 866 OFFCURVE",
"1367 785 OFFCURVE",
"1294 785 CURVE SMOOTH",
"1200 785 OFFCURVE",
"1134 838 OFFCURVE",
"1134 942 CURVE SMOOTH",
"1134 1201 OFFCURVE",
"1174 1270 OFFCURVE",
"1315 1270 CURVE SMOOTH",
"1570 1270 OFFCURVE",
"1673 1143 OFFCURVE",
"1708 1143 CURVE SMOOTH",
"1723 1143 OFFCURVE",
"1728 1164 OFFCURVE",
"1728 1206 CURVE SMOOTH",
"1728 1330 OFFCURVE",
"1613 1381 OFFCURVE",
"1486 1381 CURVE SMOOTH",
"1340 1381 OFFCURVE",
"1194 1380 OFFCURVE",
"1048 1380 CURVE SMOOTH",
"927 1380 OFFCURVE",
"844.167 1374.167 OFFCURVE",
"800.5 1362.5 CURVE SMOOTH",
"756.833 1350.833 OFFCURVE",
"732 1322 OFFCURVE",
"732 1271 CURVE SMOOTH",
"732 1251 OFFCURVE",
"738 1238 OFFCURVE",
"734 1206 CURVE SMOOTH",
"728 1155 OFFCURVE",
"579 915 OFFCURVE",
"190.5 220.5 CURVE SMOOTH",
"160 166 OFFCURVE",
"39 93 OFFCURVE",
"39 52 CURVE SMOOTH",
"39 22.667 OFFCURVE",
"95.833 8 OFFCURVE",
"209.5 8 CURVE SMOOTH",
"323.167 8 OFFCURVE",
"380 21.667 OFFCURVE",
"380 49 CURVE SMOOTH",
"380 88 OFFCURVE",
"339 133 OFFCURVE",
"339 166 CURVE SMOOTH",
"339 229 OFFCURVE",
"420 398 OFFCURVE",
"489 462 CURVE SMOOTH",
"538 508 OFFCURVE",
"631 531 OFFCURVE",
"767 531 CURVE SMOOTH",
"872 531 OFFCURVE",
"924 458 OFFCURVE",
"924 311 CURVE SMOOTH",
"924 161 OFFCURVE",
"861 145 OFFCURVE",
"861 92 CURVE SMOOTH",
"861 8 OFFCURVE",
"981 -1 OFFCURVE",
"1315 0 CURVE SMOOTH"
);
},
{
closed = 1;
nodes = (
"582 615 OFFCURVE",
"563 622 OFFCURVE",
"563 644 CURVE SMOOTH",
"563 659 OFFCURVE",
"863 1215 OFFCURVE",
"904 1215 CURVE SMOOTH",
"936 1215 OFFCURVE",
"907 649 OFFCURVE",
"900 637 CURVE SMOOTH",
"893 624 OFFCURVE",
"775 618 OFFCURVE",
"736 617 CURVE SMOOTH"
);
}
);
width = 1942;
},
{
layerId = "5CBF0BAD-1756-4F16-9711-93DC239D102B";
paths = (
{
closed = 1;
nodes = (
"1610 -15 OFFCURVE",
"1814 38 OFFCURVE",
"1814 173 CURVE SMOOTH",
"1814 249 OFFCURVE",
"1808 277 OFFCURVE",
"1761 277 CURVE SMOOTH",
"1727 277 OFFCURVE",
"1459 172 OFFCURVE",
"1370 172 CURVE SMOOTH",
"1277 172 OFFCURVE",
"1209 326 OFFCURVE",
"1209 429 CURVE SMOOTH",
"1209 517 OFFCURVE",
"1232 577 OFFCURVE",
"1322 577 CURVE SMOOTH",
"1383 577 OFFCURVE",
"1447 529 OFFCURVE",
"1497 529 CURVE SMOOTH",
"1554 529 OFFCURVE",
"1585 636 OFFCURVE",
"1583 709 CURVE SMOOTH",
"1583 782 OFFCURVE",
"1557 847 OFFCURVE",
"1498 847 CURVE SMOOTH",
"1477 847 OFFCURVE",
"1379 772 OFFCURVE",
"1308 775 CURVE SMOOTH",
"1214 781 OFFCURVE",
"1186 840 OFFCURVE",
"1188 946 CURVE SMOOTH",
"1188 1052 OFFCURVE",
"1226 1193 OFFCURVE",
"1307 1193 CURVE SMOOTH",
"1518 1193 OFFCURVE",
"1629 1059 OFFCURVE",
"1708 1059 CURVE SMOOTH",
"1736 1059 OFFCURVE",
"1750 1099 OFFCURVE",
"1752 1147 CURVE SMOOTH",
"1758 1301 OFFCURVE",
"1673 1353 OFFCURVE",
"1515 1353 CURVE SMOOTH",
"1427 1353 OFFCURVE",
"1339 1352 OFFCURVE",
"1251 1352 CURVE SMOOTH",
"928 1352 OFFCURVE",
"758 1349 OFFCURVE",
"742 1344 CURVE SMOOTH",
"707 1332 OFFCURVE",
"690 1309 OFFCURVE",
"689 1274 CURVE SMOOTH",
"688 1240 OFFCURVE",
"705 1222 OFFCURVE",
"705 1185 CURVE SMOOTH",
"705 1069 OFFCURVE",
"240 253 OFFCURVE",
"139 173 CURVE SMOOTH",
"67 117 OFFCURVE",
"31 75 OFFCURVE",
"31 46 CURVE SMOOTH",
"31 12 OFFCURVE",
"124 -5 OFFCURVE",
"310 -5 CURVE SMOOTH",
"411.333 -5 OFFCURVE",
"462 7 OFFCURVE",
"462 31 CURVE SMOOTH",
"462 78 OFFCURVE",
"417 102 OFFCURVE",
"422 178 CURVE SMOOTH",
"423 210 OFFCURVE",
"433 250 OFFCURVE",
"452 302 CURVE SMOOTH",
"492 417 OFFCURVE",
"520 460 OFFCURVE",
"756 460 CURVE SMOOTH",
"881.333 460 OFFCURVE",
"913 422.167 OFFCURVE",
"913 313.5 CURVE SMOOTH",
"913 200 OFFCURVE",
"827 117 OFFCURVE",
"827 83 CURVE SMOOTH",
"827 25 OFFCURVE",
"886 -7 OFFCURVE",
"1415 -13 CURVE SMOOTH"
);
},
{
closed = 1;
nodes = (
"649 597 OFFCURVE",
"607 609 OFFCURVE",
"608 629 CURVE SMOOTH",
"610 665 OFFCURVE",
"856 1100 OFFCURVE",
"886 1099 CURVE SMOOTH",
"920 1098 OFFCURVE",
"907 861 OFFCURVE",
"907 680 CURVE SMOOTH",
"907 615 OFFCURVE",
"868 597 OFFCURVE",
"742 597 CURVE SMOOTH"
);
}
);
width = 1890;
},
{
layerId = "20E01B96-53C8-4C50-A66A-A7047371F4F1";
paths = (
{
closed = 1;
nodes = (
"904 844 OFFCURVE",
"904 830 QCURVE",
"905 815 LINE",
"905 786 LINE",
"906 772 LINE",
"906 758 OFFCURVE",
"906 744 QCURVE",
"907 729 LINE",
"907 715 OFFCURVE",
"907 701 QCURVE",
"908 687 LINE",
"908 645 LINE",
"909 638 LINE",
"909 623 LINE SMOOTH",
"909 600 OFFCURVE",
"881 600 QCURVE",
"854 598 LINE",
"840 598 LINE",
"833 597 LINE",
"667 597 LINE SMOOTH",
"602 597 OFFCURVE",
"602 608 QCURVE SMOOTH",
"602 609 OFFCURVE",
"734 854 OFFCURVE",
"776 926 OFFCURVE",
"875 1110 OFFCURVE",
"904 1110 OFFCURVE",
"904 858 QCURVE SMOOTH"
);
},
{
closed = 1;
nodes = (
"850 460 OFFCURVE",
"913 395 OFFCURVE",
"913 232 OFFCURVE",
"882 176 QCURVE",
"859 144 LINE",
"840 113 LINE",
"827 83 LINE",
"827 30 OFFCURVE",
"902 -5 OFFCURVE",
"1200 -5 QCURVE SMOOTH",
"1254 -5 LINE",
"1308 -6 LINE",
"1415 -6 LINE SMOOTH",
"1600 -6 OFFCURVE",
"1748 57 OFFCURVE",
"1814 143 OFFCURVE",
"1814 173 QCURVE SMOOTH",
"1814 210 LINE SMOOTH",
"1814 277 OFFCURVE",
"1761 277 QCURVE SMOOTH",
"1745 277 OFFCURVE",
"1634 230 QCURVE",
"1593 215 LINE SMOOTH",
"1464 172 OFFCURVE",
"1370 172 QCURVE SMOOTH",
"1309 172 OFFCURVE",
"1267 243 QCURVE SMOOTH",
"1209 341 OFFCURVE",
"1209 517 OFFCURVE",
"1234 540 QCURVE SMOOTH",
"1275 577 OFFCURVE",
"1359 577 OFFCURVE",
"1471 529 OFFCURVE",
"1497 529 QCURVE SMOOTH",
"1537 529 OFFCURVE",
"1563 595 QCURVE SMOOTH",
"1579 636 OFFCURVE",
"1579 790 OFFCURVE",
"1543 847 OFFCURVE",
"1498 847 QCURVE SMOOTH",
"1486 847 OFFCURVE",
"1434 814 QCURVE SMOOTH",
"1401 794 LINE",
"1360 775 OFFCURVE",
"1254 775 OFFCURVE",
"1188 845 OFFCURVE",
"1188 1040 OFFCURVE",
"1214 1102 QCURVE SMOOTH",
"1252 1193 OFFCURVE",
"1307 1193 QCURVE SMOOTH",
"1456 1193 OFFCURVE",
"1664 1059 OFFCURVE",
"1752 1059 OFFCURVE",
"1752 1245 OFFCURVE",
"1716 1288 QCURVE SMOOTH",
"1662 1353 OFFCURVE",
"1515 1353 QCURVE SMOOTH",
"1462 1353 LINE",
"1251 1352 LINE SMOOTH",
"766 1352 OFFCURVE",
"742 1344 QCURVE SMOOTH",
"689 1326 OFFCURVE",
"689 1274 QCURVE",
"697 1244 LINE",
"705 1209 LINE",
"705 1130 OFFCURVE",
"634 987 OFFCURVE",
"257 330 QCURVE SMOOTH",
"190 213 OFFCURVE",
"139 173 QCURVE SMOOTH",
"31 89 OFFCURVE",
"31 46 QCURVE SMOOTH",
"31 -5 OFFCURVE",
"310 -5 QCURVE SMOOTH",
"462 -5 OFFCURVE",
"462 31 QCURVE SMOOTH",
"462 48 OFFCURVE",
"446 83 QCURVE",
"431 112 LINE",
"421 138 OFFCURVE",
"421 215 OFFCURVE",
"482 388 OFFCURVE",
"579 460 OFFCURVE",
"756 460 QCURVE SMOOTH"
);
}
);
width = 1890;
},
{
layerId = "C2CE44A8-31E7-41E3-9ADA-B2F909F658BE";
paths = (
{
closed = 1;
nodes = (
"911 781 LINE",
"911 716 LINE SMOOTH",
"911 660 OFFCURVE",
"900 637 QCURVE SMOOTH",
"889 615 OFFCURVE",
"830 615 QCURVE SMOOTH",
"815 615 LINE",
"807 614 LINE",
"799 614 LINE",
"749 618 LINE",
"683 620 LINE SMOOTH",
"653 620 OFFCURVE",
"644 619 QCURVE",
"609 619 LINE SMOOTH",
"555 619 OFFCURVE",
"555 637 OFFCURVE",
"625 742 QCURVE SMOOTH",
"635 757 OFFCURVE",
"747 982 OFFCURVE",
"783 1036 OFFCURVE",
"789 1048 OFFCURVE",
"799 1065 OFFCURVE",
"808 1085 OFFCURVE",
"811 1091 QCURVE SMOOTH",
"873 1215 OFFCURVE",
"907 1215 QCURVE SMOOTH",
"912 1215 LINE SMOOTH",
"922 1215 OFFCURVE",
"922 1156 QCURVE SMOOTH",
"922 1149 LINE",
"921 1133 LINE",
"921 1125 OFFCURVE",
"921 1117 QCURVE",
"909 924 LINE",
"909 874 LINE",
"912 799 LINE"
);
},
{
closed = 1;
nodes = (
"924 229 OFFCURVE",
"904 183 QCURVE",
"869 119 LINE",
"861 92 LINE",
"861 37 OFFCURVE",
"1029 5 OFFCURVE",
"1289 5 QCURVE SMOOTH",
"1343 5 LINE",
"1398 4 LINE",
"1453 4 LINE SMOOTH",
"1637 4 OFFCURVE",
"1685 28 QCURVE SMOOTH",
"1792 82 OFFCURVE",
"1792 206 QCURVE SMOOTH",
"1792 238 LINE SMOOTH",
"1792 262 OFFCURVE",
"1770 262 QCURVE SMOOTH",
"1759 262 OFFCURVE",
"1710 227 QCURVE SMOOTH",
"1567 123 OFFCURVE",
"1371 123 QCURVE SMOOTH",
"1252 123 OFFCURVE",
"1183 206 OFFCURVE",
"1137 373 OFFCURVE",
"1137 529 OFFCURVE",
"1159 566 QCURVE SMOOTH",
"1199 634 OFFCURVE",
"1299 634 QCURVE SMOOTH",
"1361 634 OFFCURVE",
"1489 553 OFFCURVE",
"1507 553 QCURVE",
"1534 567 LINE",
"1564 596 OFFCURVE",
"1564 819 OFFCURVE",
"1530 853 QCURVE",
"1504 866 LINE",
"1488 866 OFFCURVE",
"1365 788 OFFCURVE",
"1222 788 OFFCURVE",
"1134 866 OFFCURVE",
"1134 942 QCURVE SMOOTH",
"1134 1136 OFFCURVE",
"1209 1270 OFFCURVE",
"1315 1270 QCURVE SMOOTH",
"1499 1270 OFFCURVE",
"1648 1177 QCURVE SMOOTH",
"1702 1143 OFFCURVE",
"1710 1143 QCURVE SMOOTH",
"1728 1143 OFFCURVE",
"1728 1206 QCURVE SMOOTH",
"1728 1299 OFFCURVE",
"1588 1381 OFFCURVE",
"1421 1381 QCURVE SMOOTH",
"1366 1381 LINE",
"1257 1378 LINE",
"1048 1380 LINE SMOOTH",
"866 1380 OFFCURVE",
"735 1345 OFFCURVE",
"735 1193 OFFCURVE",
"704 1132 QCURVE",
"679 1087 LINE SMOOTH",
"664 1061 OFFCURVE",
"626 997 QCURVE SMOOTH",
"598 950 LINE SMOOTH",
"570 903 OFFCURVE",
"228 271 OFFCURVE",
"153 170 OFFCURVE",
"107 135 QCURVE SMOOTH",
"71 108 LINE",
"39 78 OFFCURVE",
"39 52 QCURVE SMOOTH",
"39 8 OFFCURVE",
"380 8 OFFCURVE",
"380 49 QCURVE SMOOTH",
"380 67 OFFCURVE",
"339 154 OFFCURVE",
"339 166 QCURVE SMOOTH",
"339 213 OFFCURVE",
"437 414 OFFCURVE",
"489 462 QCURVE SMOOTH",
"563 531 OFFCURVE",
"767 531 QCURVE SMOOTH",
"924 531 OFFCURVE",
"924 311 QCURVE SMOOTH"
);
}
);
width = 1942;
}
);
note = uni00C6;
unicode = 00C6;
},
{
color = 5;
glyphname = B;
layers = (
{
layerId = "92A672BF-229C-4BEC-8D25-4DDBB2A38145";
paths = (
{
closed = 1;
nodes = (
"943 -11 OFFCURVE",
"1186 92 OFFCURVE",
"1186 345 CURVE SMOOTH",
"1186 651 OFFCURVE",
"886 718 OFFCURVE",
"886 734 CURVE SMOOTH",
"886 748 OFFCURVE",
"1101 844 OFFCURVE",
"1101 1051 CURVE SMOOTH",
"1101 1310 OFFCURVE",
"877 1390 OFFCURVE",
"569 1388 CURVE SMOOTH",
"180 1385 OFFCURVE",
"95 1385 OFFCURVE",
"95 1346 CURVE SMOOTH",
"95 1301 OFFCURVE",
"213 1292 OFFCURVE",
"229 1233 CURVE SMOOTH",
"246 1170 OFFCURVE",
"251 1020 OFFCURVE",
"251 725 CURVE SMOOTH",
"251 208 OFFCURVE",
"237 140 OFFCURVE",
"208 114 CURVE SMOOTH",
"183 92 OFFCURVE",
"106 75 OFFCURVE",
"106 32 CURVE SMOOTH",
"106 5 OFFCURVE",
"229 -11 OFFCURVE",
"669 -11 CURVE SMOOTH"
);
},
{
closed = 1;
nodes = (
"464 86 OFFCURVE",
"452 99 OFFCURVE",
"452 248 CURVE SMOOTH",
"452 540 LINE SMOOTH",
"452 664 OFFCURVE",
"458 676 OFFCURVE",
"552 676 CURVE SMOOTH",
"872 676 OFFCURVE",
"983 593 OFFCURVE",
"984 364 CURVE SMOOTH",
"984 167 OFFCURVE",
"860 86 OFFCURVE",
"592 86 CURVE SMOOTH"
);
},
{
closed = 1;
nodes = (
"469 767 OFFCURVE",
"453 777 OFFCURVE",
"453 847 CURVE SMOOTH",
"454 1174 LINE SMOOTH",
"454 1276 OFFCURVE",
"469 1297 OFFCURVE",
"555 1297 CURVE SMOOTH",
"804 1297 OFFCURVE",
"913 1211 OFFCURVE",
"913 1051 CURVE SMOOTH",
"913 854 OFFCURVE",
"840 767 OFFCURVE",
"520 767 CURVE SMOOTH"
);
}
);
width = 1314;
},
{
layerId = "5CBF0BAD-1756-4F16-9711-93DC239D102B";
paths = (
{
closed = 1;
nodes = (
"1072 -9 OFFCURVE",
"1268 99 OFFCURVE",
"1268 414 CURVE SMOOTH",
"1268 660 OFFCURVE",
"994 718 OFFCURVE",
"994 740 CURVE SMOOTH",
"994 770 OFFCURVE",
"1187 815 OFFCURVE",
"1187 1053 CURVE SMOOTH",
"1187 1368 OFFCURVE",
"849 1395 OFFCURVE",
"450 1381 CURVE SMOOTH",
"129 1376 OFFCURVE",
"95 1360 OFFCURVE",
"95 1318.5 CURVE SMOOTH",
"95 1221 OFFCURVE",
"192 1254 OFFCURVE",
"219.5 1140 CURVE SMOOTH",
"228.5 1102.667 OFFCURVE",
"238 917 OFFCURVE",
"238 661 CURVE SMOOTH",
"238 362 OFFCURVE",
"217 231 OFFCURVE",
"184 179 CURVE SMOOTH",
"155 134 OFFCURVE",
"94 94 OFFCURVE",
"94 51 CURVE SMOOTH",
"94 0 OFFCURVE",
"189 -9 OFFCURVE",
"563 -9 CURVE SMOOTH"
);
},
{
closed = 1;
nodes = (
"569 133 OFFCURVE",
"526 143 OFFCURVE",
"526 195 CURVE SMOOTH",
"526 559 LINE SMOOTH",
"526 615 OFFCURVE",
"566 650 OFFCURVE",
"677 650 CURVE SMOOTH",
"874.333 650 OFFCURVE",
"969 539.667 OFFCURVE",
"969 405 CURVE SMOOTH",
"969 240 OFFCURVE",
"895 133 OFFCURVE",
"657 133 CURVE SMOOTH"
);
},
{
closed = 1;
nodes = (
"600 776 OFFCURVE",
"527 775 OFFCURVE",
"527 813 CURVE SMOOTH",
"524 1161 LINE SMOOTH",
"524 1217 OFFCURVE",
"538 1244 OFFCURVE",
"644 1244 CURVE SMOOTH",
"816 1244 OFFCURVE",
"902 1158.333 OFFCURVE",
"902 1037 CURVE SMOOTH",
"900 879 OFFCURVE",
"818 776 OFFCURVE",
"689 776 CURVE SMOOTH"
);
}
);
width = 1338;
},
{
layerId = "20E01B96-53C8-4C50-A66A-A7047371F4F1";
paths = (
{
closed = 1;
nodes = (
"524 856 LINE",
"524 1036 LINE SMOOTH",
"524 1200 OFFCURVE",
"528 1212 QCURVE SMOOTH",
"539 1244 OFFCURVE",
"605 1244 QCURVE SMOOTH",
"644 1244 LINE SMOOTH",
"773 1244 OFFCURVE",
"902 1128 OFFCURVE",
"902 1037 QCURVE SMOOTH",
"902 1005 LINE",
"900 989 LINE",
"900 901 OFFCURVE",
"772 786 OFFCURVE",
"695 786 QCURVE SMOOTH",
"687 786 OFFCURVE",
"679 785 QCURVE",
"625 783 LINE",
"617 782 LINE",
"571 782 LINE SMOOTH",
"527 782 OFFCURVE",
"527 813 QCURVE",
"525 848 LINE"
);
},
{
closed = 1;
nodes = (
"523 244 LINE",
"523 253 OFFCURVE",
"523 262 QCURVE",
"522 270 LINE",
"522 287 LINE",
"521 295 LINE",
"521 303 LINE",
"522 337 LINE",
"522 354 LINE",
"523 362 LINE",
"523 387 LINE",
"524 404 LINE",
"524 615 OFFCURVE",
"539 650 OFFCURVE",
"615 650 QCURVE SMOOTH",
"677 650 LINE SMOOTH",
"825 650 OFFCURVE",
"969 506 OFFCURVE",
"969 405 QCURVE SMOOTH",
"969 367 LINE SMOOTH",
"969 259 OFFCURVE",
"830 133 OFFCURVE",
"731 133 QCURVE SMOOTH",
"686 133 LINE",
"650 134 LINE",
"642 135 LINE",
"633 136 LINE",
"526 136 OFFCURVE",
"526 195 QCURVE",
"524 236 LINE"
);
},
{
closed = 1;
nodes = (
"554 1385 OFFCURVE",
"450 1381 QCURVE SMOOTH",
"346 1377 LINE",
"174 1377 OFFCURVE",
"95 1353 OFFCURVE",
"95 1284 OFFCURVE",
"206 1196 OFFCURVE",
"233 1084 OFFCURVE",
"233 325 OFFCURVE",
"204 171 OFFCURVE",
"160 134 QCURVE SMOOTH",
"94 79 OFFCURVE",
"94 51 QCURVE SMOOTH",
"94 12 OFFCURVE",
"146 2 QCURVE SMOOTH",
"166 -2 OFFCURVE",
"275 -2 QCURVE SMOOTH",
"404 -5 LINE SMOOTH",
"431 -5 OFFCURVE",
"457 -6 QCURVE SMOOTH",
"510 -8 LINE",
"536 -8 OFFCURVE",
"563 -9 QCURVE SMOOTH",
"590 -10 LINE",
"643 -10 LINE SMOOTH",
"816 -10 OFFCURVE",
"911 11 QCURVE SMOOTH",
"1268 90 OFFCURVE",
"1268 388 QCURVE SMOOTH",
"1268 414 LINE SMOOTH",
"1268 516 OFFCURVE",
"1195 603 QCURVE SMOOTH",
"1149 657 OFFCURVE",
"994 735 OFFCURVE",
"994 745 OFFCURVE",
"1107 820 OFFCURVE",
"1187 966 OFFCURVE",
"1187 1053 QCURVE SMOOTH",
"1187 1205 OFFCURVE",
"935 1385 OFFCURVE",
"687 1385 QCURVE SMOOTH",
"579 1385 LINE SMOOTH"
);
}
);
width = 1338;
},
{
layerId = "C2CE44A8-31E7-41E3-9ADA-B2F909F658BE";
paths = (
{
closed = 1;
nodes = (
"739 1297 OFFCURVE",
"810 1248 QCURVE SMOOTH",
"913 1177 OFFCURVE",
"913 1051 QCURVE SMOOTH",
"913 1023 LINE SMOOTH",
"913 901 OFFCURVE",
"823 825 QCURVE SMOOTH",
"754 767 OFFCURVE",
"601 767 QCURVE SMOOTH",
"530 767 LINE SMOOTH",
"479 767 OFFCURVE",
"453 795 OFFCURVE",
"453 877 QCURVE SMOOTH",
"453 975 LINE",
"454 1001 LINE",
"454 1124 LINE SMOOTH",
"454 1238 OFFCURVE",
"461 1262 QCURVE SMOOTH",
"472 1297 OFFCURVE",
"565 1297 QCURVE SMOOTH",
"583 1297 LINE SMOOTH"
);
},
{
closed = 1;
nodes = (
"797 676 OFFCURVE",
"983 527 OFFCURVE",
"983 386 QCURVE",
"984 375 LINE",
"984 364 LINE SMOOTH",
"984 296 OFFCURVE",
"956 236 QCURVE SMOOTH",
"884 86 OFFCURVE",
"654 86 QCURVE SMOOTH",
"592 86 LINE SMOOTH",
"487 86 OFFCURVE",
"464 119 QCURVE SMOOTH",
"452 136 OFFCURVE",
"452 248 QCURVE SMOOTH",
"452 490 LINE SMOOTH",
"452 630 OFFCURVE",
"472 676 OFFCURVE",
"552 676 QCURVE SMOOTH",
"642 676 LINE SMOOTH"
);
},
{
closed = 1;
nodes = (
"379 -3 LINE",
"457 -6 LINE",
"614 -10 LINE",
"693 -10 LINE SMOOTH",
"814 -10 OFFCURVE",
"923 24 QCURVE SMOOTH",
"1087 76 OFFCURVE",
"1152 202 QCURVE SMOOTH",
"1186 270 OFFCURVE",
"1186 345 QCURVE SMOOTH",
"1186 371 LINE SMOOTH",
"1186 483 OFFCURVE",
"1109 580 QCURVE SMOOTH",
"1064 637 OFFCURVE",
"995 676 QCURVE SMOOTH",
"990 679 OFFCURVE",
"886 727 OFFCURVE",
"886 741 OFFCURVE",
"1002 812 OFFCURVE",
"1101 951 OFFCURVE",
"1101 1051 QCURVE SMOOTH",
"1101 1217 OFFCURVE",
"848 1388 OFFCURVE",
"617 1388 QCURVE SMOOTH",
"460 1388 LINE",
"305 1385 LINE SMOOTH",
"95 1385 OFFCURVE",
"95 1346 QCURVE SMOOTH",
"95 1319 OFFCURVE",
"215 1274 OFFCURVE",
"229 1233 QCURVE SMOOTH",
"251 1167 OFFCURVE",
"251 725 QCURVE SMOOTH",
"251 685 OFFCURVE",
"251 645 QCURVE SMOOTH",
"252 567 LINE",
"252 514 LINE",
"251 488 LINE",
"251 462 OFFCURVE",
"250 436 QCURVE SMOOTH",
"249 410 LINE",
"249 190 OFFCURVE",
"216 103 OFFCURVE",
"106 62 OFFCURVE",
"106 32 QCURVE SMOOTH",
"106 -3 OFFCURVE",
"277 -3 QCURVE SMOOTH"
);
}
);
width = 1314;
}
);
unicode = 0042;
},
{
color = 5;
glyphname = C;
layers = (
{
layerId = "92A672BF-229C-4BEC-8D25-4DDBB2A38145";
paths = (
{
closed = 1;
nodes = (
"944 -15 OFFCURVE",
"1090 29 OFFCURVE",
"1167 77 CURVE SMOOTH",
"1194 94 OFFCURVE",
"1259 200 OFFCURVE",
"1259 269 CURVE SMOOTH",
"1259 297 OFFCURVE",
"1251 314 OFFCURVE",
"1220 314 CURVE SMOOTH",
"1146 314 OFFCURVE",
"1080 100 OFFCURVE",
"809 100 CURVE SMOOTH",
"475 100 OFFCURVE",
"333 357 OFFCURVE",
"333 731 CURVE SMOOTH",
"333 1048 OFFCURVE",
"486 1296 OFFCURVE",
"777 1296 CURVE SMOOTH",
"1087 1296 OFFCURVE",
"1121 1040 OFFCURVE",
"1181 1040 CURVE SMOOTH",
"1220 1040 OFFCURVE",
"1239 1068 OFFCURVE",
"1239 1153 CURVE SMOOTH",
"1239 1288 OFFCURVE",
"1217 1348 OFFCURVE",
"1181 1348 CURVE SMOOTH",
"1092 1348 OFFCURVE",
"942 1404 OFFCURVE",
"760 1404 CURVE SMOOTH",
"364 1404 OFFCURVE",
"106 1095 OFFCURVE",
"106 678 CURVE SMOOTH",
"106 279 OFFCURVE",
"349 -15 OFFCURVE",
"730 -15 CURVE SMOOTH"
);
}
);
width = 1361;
},
{
layerId = "5CBF0BAD-1756-4F16-9711-93DC239D102B";
paths = (
{
closed = 1;
nodes = (
"900.667 -23 OFFCURVE",
"1007.333 -2 OFFCURVE",
"1098 40 CURVE SMOOTH",
"1185 80 OFFCURVE",
"1269 181 OFFCURVE",
"1269 264 CURVE SMOOTH",
"1269 294.667 OFFCURVE",
"1252.667 310 OFFCURVE",
"1220 310 CURVE SMOOTH",
"1185 310 OFFCURVE",
"964 143 OFFCURVE",
"828 143 CURVE SMOOTH",
"548 143 OFFCURVE",
"390 389 OFFCURVE",
"390 684 CURVE SMOOTH",
"390 984 OFFCURVE",
"497 1247 OFFCURVE",
"753 1247 CURVE SMOOTH",
"935 1247 OFFCURVE",
"1138 1030 OFFCURVE",
"1192 1030 CURVE SMOOTH",
"1231.333 1030 OFFCURVE",
"1251 1063.667 OFFCURVE",
"1251 1131 CURVE SMOOTH",
"1251 1246.333 OFFCURVE",
"1228.667 1317 OFFCURVE",
"1184 1343 CURVE SMOOTH",
"1116 1383 OFFCURVE",
"976.667 1403 OFFCURVE",
"766 1403 CURVE SMOOTH",
"378 1403 OFFCURVE",
"83 1102 OFFCURVE",
"83 717 CURVE SMOOTH",
"83 254 OFFCURVE",
"334 -23 OFFCURVE",
"778 -23 CURVE SMOOTH"
);
}
);
width = 1363;
},
{
layerId = "20E01B96-53C8-4C50-A66A-A7047371F4F1";
paths = (
{
closed = 1;
nodes = (
"1251 1304 OFFCURVE",
"1184 1343 QCURVE SMOOTH",
"1082 1403 OFFCURVE",
"766 1403 QCURVE SMOOTH",
"733 1403 LINE SMOOTH",
"607 1403 OFFCURVE",
"478 1347 QCURVE SMOOTH",
"233 1241 OFFCURVE",
"132 972 QCURVE SMOOTH",
"83 842 OFFCURVE",
"83 717 QCURVE SMOOTH",
"83 647 LINE SMOOTH",
"83 521 OFFCURVE",
"134 388 QCURVE SMOOTH",
"229 139 OFFCURVE",
"474 31 QCURVE SMOOTH",
"597 -23 OFFCURVE",
"744 -23 QCURVE SMOOTH",
"778 -23 LINE SMOOTH",
"962 -23 OFFCURVE",
"1098 40 QCURVE SMOOTH",
"1176 76 OFFCURVE",
"1269 216 OFFCURVE",
"1269 239 QCURVE SMOOTH",
"1269 264 LINE SMOOTH",
"1269 310 OFFCURVE",
"1220 310 QCURVE SMOOTH",
"1206 310 OFFCURVE",
"1112 245 QCURVE SMOOTH",
"966 143 OFFCURVE",
"830 143 QCURVE SMOOTH",
"829 143 OFFCURVE",
"828 143 QCURVE SMOOTH",
"531 143 OFFCURVE",
"426 462 QCURVE SMOOTH",
"390 570 OFFCURVE",
"390 684 QCURVE SMOOTH",
"390 1083 OFFCURVE",
"598 1204 QCURVE SMOOTH",
"672 1247 OFFCURVE",
"753 1247 QCURVE SMOOTH",
"754 1247 OFFCURVE",
"756 1247 QCURVE SMOOTH",
"840 1247 OFFCURVE",
"970 1186 OFFCURVE",
"1166 1030 OFFCURVE",
"1192 1030 QCURVE SMOOTH",
"1251 1030 OFFCURVE",
"1251 1131 QCURVE SMOOTH"
);
}
);
width = 1363;
},
{
layerId = "C2CE44A8-31E7-41E3-9ADA-B2F909F658BE";
paths = (
{
closed = 1;
nodes = (
"106 678 LINE SMOOTH",
"106 536 OFFCURVE",
"149 405 QCURVE SMOOTH",
"235 143 OFFCURVE",
"480 38 QCURVE SMOOTH",
"603 -14 OFFCURVE",
"730 -15 QCURVE SMOOTH",
"800 -15 LINE SMOOTH",
"881 -15 OFFCURVE",
"1110 42 OFFCURVE",
"1190 92 OFFCURVE",
"1259 224 OFFCURVE",
"1259 314 OFFCURVE",
"1190 314 OFFCURVE",
"1070 182 OFFCURVE",
"1025 155 QCURVE SMOOTH",
"934 100 OFFCURVE",
"809 100 QCURVE SMOOTH",
"570 100 OFFCURVE",
"444 278 QCURVE SMOOTH",
"333 434 OFFCURVE",
"333 731 QCURVE SMOOTH",
"333 966 OFFCURVE",
"434 1115 QCURVE SMOOTH",
"558 1296 OFFCURVE",
"777 1296 QCURVE SMOOTH",
"898 1296 OFFCURVE",
"1004 1233 QCURVE SMOOTH",
"1051 1205 OFFCURVE",
"1162 1040 OFFCURVE",
"1184 1040 QCURVE SMOOTH",
"1242 1040 OFFCURVE",
"1242 1153 QCURVE SMOOTH",
"1242 1311 OFFCURVE",
"1194 1342 QCURVE SMOOTH",
"1179 1352 OFFCURVE",
"1069 1360 OFFCURVE",
"883 1404 OFFCURVE",
"637 1404 OFFCURVE",
"390 1309 OFFCURVE",
"208 1114 OFFCURVE",
"106 846 OFFCURVE",
"106 714 QCURVE SMOOTH"
);
}
);
width = 1361;
}
);
unicode = 0043;
},
{
color = 5;
glyphname = Ccedilla;
layers = (
{
layerId = "92A672BF-229C-4BEC-8D25-4DDBB2A38145";
paths = (
{
closed = 1;
nodes = (
"822 -446 OFFCURVE",
"953 -377 OFFCURVE",
"954 -278 CURVE SMOOTH",
"955 -217 OFFCURVE",
"913 -152 OFFCURVE",
"884 -121 CURVE SMOOTH",
"864 -99 OFFCURVE",
"834 -85 OFFCURVE",
"813 -50 CURVE",
"997 -48 OFFCURVE",
"1265 59 OFFCURVE",
"1265 226 CURVE SMOOTH",
"1265 262 OFFCURVE",
"1255 272 OFFCURVE",
"1234 272 CURVE SMOOTH",
"1162 272 OFFCURVE",
"1088 88 OFFCURVE",
"728 88 CURVE SMOOTH",
"498 88 OFFCURVE",
"341 322 OFFCURVE",
"341 622 CURVE SMOOTH",
"341 977 OFFCURVE",
"508 1188 OFFCURVE",
"762 1188 CURVE SMOOTH",
"1024 1188 OFFCURVE",
"1098 965 OFFCURVE",
"1190 965 CURVE SMOOTH",
"1237 965 OFFCURVE",
"1255 1003 OFFCURVE",
"1255 1079 CURVE SMOOTH",
"1255 1165 OFFCURVE",
"1224 1203 OFFCURVE",
"1178 1224 CURVE SMOOTH",
"1169 1228 OFFCURVE",
"1127 1238 OFFCURVE",
"1068 1238 CURVE SMOOTH",
"1032 1238 OFFCURVE",
"916 1307 OFFCURVE",
"757 1307 CURVE SMOOTH",
"376 1307 OFFCURVE",
"146 995 OFFCURVE",
"146 623 CURVE SMOOTH",
"146 258 OFFCURVE",
"388 -46 OFFCURVE",
"708 -46 CURVE",
"694 -64 OFFCURVE",
"688 -76 OFFCURVE",
"688 -99 CURVE SMOOTH",
"688 -122 OFFCURVE",
"781 -174 OFFCURVE",
"781 -248 CURVE SMOOTH",
"781 -322 OFFCURVE",
"736 -345 OFFCURVE",
"655 -345 CURVE SMOOTH",
"628 -345 OFFCURVE",
"611 -359 OFFCURVE",
"611 -414 CURVE SMOOTH",
"611 -436 OFFCURVE",
"618 -446 OFFCURVE",
"679 -446 CURVE SMOOTH"
);
}
);
width = 1456;
},
{
layerId = "5CBF0BAD-1756-4F16-9711-93DC239D102B";
paths = (
{
closed = 1;
nodes = (
"881 -456 OFFCURVE",
"972 -382 OFFCURVE",
"972 -241 CURVE SMOOTH",
"972 -174 OFFCURVE",
"934 -129 OFFCURVE",
"858 -104 CURVE SMOOTH",
"824 -93 OFFCURVE",
"809 -81 OFFCURVE",
"805 -34 CURVE",
"1146 -34 OFFCURVE",
"1348 92 OFFCURVE",
"1348 283 CURVE SMOOTH",
"1348 306.333 OFFCURVE",
"1336.333 318 OFFCURVE",
"1313 318 CURVE SMOOTH",
"1187 318 OFFCURVE",
"1034 174 OFFCURVE",
"877 174 CURVE SMOOTH",
"609 174 OFFCURVE",
"455 396 OFFCURVE",
"455 716 CURVE SMOOTH",
"455 1036 OFFCURVE",
"595.667 1208 OFFCURVE",
"785 1208 CURVE SMOOTH",
"892 1208 OFFCURVE",
"1185 1024 OFFCURVE",
"1299 1024 CURVE SMOOTH",
"1332 1024 OFFCURVE",
"1347 1070 OFFCURVE",
"1347 1127 CURVE SMOOTH",
"1347 1201 OFFCURVE",
"1322 1293 OFFCURVE",
"1276.5 1320 CURVE SMOOTH",
"1258 1331 OFFCURVE",
"1212 1346 OFFCURVE",
"1144 1361 CURVE SMOOTH",
"1047 1381 OFFCURVE",
"907 1399 OFFCURVE",
"742 1399 CURVE SMOOTH",
"364 1399 OFFCURVE",
"77 1083 OFFCURVE",
"77 690 CURVE SMOOTH",
"77 282 OFFCURVE",
"319 2 OFFCURVE",
"716 -31 CURVE",
"693.333 -46.333 OFFCURVE",
"682 -81.667 OFFCURVE",
"682 -137 CURVE SMOOTH",
"682 -189 OFFCURVE",
"791 -190 OFFCURVE",
"791 -256 CURVE SMOOTH",
"791 -319 OFFCURVE",
"739 -335 OFFCURVE",
"629 -340 CURVE SMOOTH",
"596 -342 OFFCURVE",
"579 -358.667 OFFCURVE",
"579 -396 CURVE SMOOTH",
"579 -437 OFFCURVE",
"608 -456 OFFCURVE",
"699 -456 CURVE SMOOTH"
);
}
);
width = 1456;
},
{
layerId = "20E01B96-53C8-4C50-A66A-A7047371F4F1";
paths = (
{
closed = 1;
nodes = (
"651 -343 LINE",
"629 -340 LINE",
"579 -340 OFFCURVE",
"579 -396 QCURVE SMOOTH",
"579 -404 LINE SMOOTH",
"579 -456 OFFCURVE",
"699 -456 QCURVE SMOOTH",
"735 -456 LINE SMOOTH",
"830 -456 OFFCURVE",
"972 -347 OFFCURVE",
"972 -267 QCURVE SMOOTH",
"972 -241 LINE SMOOTH",
"972 -142 OFFCURVE",
"858 -104 QCURVE SMOOTH",
"809 -88 OFFCURVE",
"809 -54 QCURVE SMOOTH",
"809 -42 OFFCURVE",
"805 -34 QCURVE",
"834 -34 LINE SMOOTH",
"947 -34 OFFCURVE",
"1184 28 OFFCURVE",
"1258 81 OFFCURVE",
"1348 229 OFFCURVE",
"1348 262 QCURVE SMOOTH",
"1348 283 LINE SMOOTH",
"1348 318 OFFCURVE",
"1313 318 QCURVE SMOOTH",
"1250 318 OFFCURVE",
"991 174 OFFCURVE",
"877 174 QCURVE SMOOTH",
"676 174 OFFCURVE",
"455 476 OFFCURVE",
"455 956 OFFCURVE",
"643 1208 OFFCURVE",
"785 1208 QCURVE SMOOTH",
"846 1208 OFFCURVE",
"1234 1024 OFFCURVE",
"1299 1024 QCURVE SMOOTH",
"1343 1024 OFFCURVE",
"1343 1195 OFFCURVE",
"1298 1307 OFFCURVE",
"1255 1333 OFFCURVE",
"854 1399 OFFCURVE",
"630 1399 OFFCURVE",
"509 1353 QCURVE SMOOTH",
"230 1247 OFFCURVE",
"126 962 QCURVE SMOOTH",
"78 830 OFFCURVE",
"77 690 QCURVE SMOOTH",
"77 654 LINE SMOOTH",
"77 516 OFFCURVE",
"181 247 OFFCURVE",
"298 140 QCURVE SMOOTH",
"462 -10 OFFCURVE",
"716 -31 QCURVE",
"682 -54 OFFCURVE",
"682 -137 QCURVE SMOOTH",
"682 -164 OFFCURVE",
"791 -214 OFFCURVE",
"791 -256 QCURVE SMOOTH",
"791 -343 OFFCURVE",
"673 -343 QCURVE SMOOTH"
);
}
);
width = 1456;
},
{
layerId = "C2CE44A8-31E7-41E3-9ADA-B2F909F658BE";
paths = (
{
closed = 1;
nodes = (
"556 -36 OFFCURVE",
"665 -46 QCURVE",
"641 -87 OFFCURVE",
"641 -98 QCURVE SMOOTH",
"641 -114 OFFCURVE",
"729 -194 OFFCURVE",
"729 -248 QCURVE SMOOTH",
"729 -347 OFFCURVE",
"619 -347 QCURVE SMOOTH",
"618 -347 OFFCURVE",
"617 -347 QCURVE SMOOTH",
"611 -347 OFFCURVE",
"601 -345 QCURVE",
"560 -345 OFFCURVE",
"560 -414 QCURVE SMOOTH",
"560 -420 LINE SMOOTH",
"560 -446 OFFCURVE",
"636 -446 QCURVE",
"646 -447 LINE",
"734 -447 OFFCURVE",
"901 -347 OFFCURVE",
"901 -299 QCURVE",
"902 -293 LINE",
"902 -278 LINE SMOOTH",
"902 -220 OFFCURVE",
"843 -137 QCURVE SMOOTH",
"831 -121 OFFCURVE",
"794 -87 QCURVE SMOOTH",
"767 -62 OFFCURVE",
"760 -50 QCURVE",
"921 -48 OFFCURVE",
"1098 49 QCURVE SMOOTH",
"1146 75 OFFCURVE",
"1215 185 OFFCURVE",
"1215 226 QCURVE SMOOTH",
"1215 251 LINE SMOOTH",
"1215 272 OFFCURVE",
"1152 272 OFFCURVE",
"1090 218 QCURVE SMOOTH",
"938 88 OFFCURVE",
"708 88 QCURVE SMOOTH",
"523 88 OFFCURVE",
"415 217 QCURVE SMOOTH",
"291 368 OFFCURVE",
"291 876 OFFCURVE",
"510 1187 OFFCURVE",
"712 1187 QCURVE SMOOTH",
"820 1187 OFFCURVE",
"913 1135 QCURVE SMOOTH",
"945 1117 OFFCURVE",
"1105 965 OFFCURVE",
"1150 965 QCURVE SMOOTH",
"1205 965 OFFCURVE",
"1205 1193 OFFCURVE",
"1134 1222 QCURVE SMOOTH",
"1121 1227 OFFCURVE",
"1018 1238 QCURVE SMOOTH",
"1006 1239 OFFCURVE",
"822 1306 OFFCURVE",
"720 1306 QCURVE SMOOTH",
"687 1306 LINE SMOOTH",
"562 1306 OFFCURVE",
"436 1244 QCURVE SMOOTH",
"219 1137 OFFCURVE",
"138 883 QCURVE SMOOTH",
"96 752 OFFCURVE",
"96 494 OFFCURVE",
"180 234 OFFCURVE",
"350 44 OFFCURVE",
"470 -3 QCURVE SMOOTH"
);
}
);
width = 1356;
}
);
note = uni00C7;
unicode = 00C7;
},
{
color = 5;
glyphname = D;
layers = (
{
layerId = "92A672BF-229C-4BEC-8D25-4DDBB2A38145";
paths = (
{
closed = 1;
nodes = (
"1100 -5 OFFCURVE",
"1388 274 OFFCURVE",
"1388 702.5 CURVE SMOOTH",
"1388 1122 OFFCURVE",
"1134 1395 OFFCURVE",
"722 1395 CURVE SMOOTH",
"124 1395 OFFCURVE",
"111 1374 OFFCURVE",
"111 1335 CURVE SMOOTH",
"111 1302.873 OFFCURVE",
"194.942 1294.588 OFFCURVE",
"226.5 1269 CURVE SMOOTH",
"278 1227 OFFCURVE",
"273 914 OFFCURVE",
"273 656 CURVE SMOOTH",
"273 359.333 OFFCURVE",
"269 195 OFFCURVE",
"259 161.5 CURVE SMOOTH",
"240 95 OFFCURVE",
"119 76 OFFCURVE",
"119 31 CURVE SMOOTH",
"119 -2 OFFCURVE",
"209 -5 OFFCURVE",
"665 -5 CURVE SMOOTH"
);
},
{
closed = 1;
nodes = (
"478 95 OFFCURVE",
"460 122 OFFCURVE",
"461 273 CURVE SMOOTH",
"464 1098 LINE SMOOTH",
"465 1271 OFFCURVE",
"471 1302 OFFCURVE",
"597 1302 CURVE SMOOTH",
"991 1302 OFFCURVE",
"1154 1102 OFFCURVE",
"1154 642 CURVE SMOOTH",
"1154 309 OFFCURVE",
"978 95 OFFCURVE",
"618 95 CURVE SMOOTH"
);
}
);
width = 1513;
},
{
layerId = "5CBF0BAD-1756-4F16-9711-93DC239D102B";
paths = (
{
closed = 1;
nodes = (
"1028 0 OFFCURVE",
"1408 117 OFFCURVE",
"1408 704 CURVE SMOOTH",
"1408 1079 OFFCURVE",
"1199 1392 OFFCURVE",
"606 1392 CURVE SMOOTH",
"377 1392 OFFCURVE",
"93 1403 OFFCURVE",
"93 1322 CURVE SMOOTH",
"93 1255 OFFCURVE",
"196 1249 OFFCURVE",
"221 1189 CURVE SMOOTH",
"243 1139 OFFCURVE",
"242 1094 OFFCURVE",
"236 700 CURVE SMOOTH",
"233 501 OFFCURVE",
"231 258 OFFCURVE",
"222 221 CURVE SMOOTH",
"206 153 OFFCURVE",
"75 103 OFFCURVE",
"75 56 CURVE SMOOTH",
"75 6 OFFCURVE",
"122 -3 OFFCURVE",
"468 -2 CURVE SMOOTH"
);
},
{
closed = 1;
nodes = (
"512.333 135 OFFCURVE",
"499 161 OFFCURVE",
"499 273 CURVE SMOOTH",
"504 1093 LINE SMOOTH",
"504 1204 OFFCURVE",
"533 1250 OFFCURVE",
"649 1249 CURVE SMOOTH",
"961 1246 OFFCURVE",
"1077 994 OFFCURVE",
"1077 650 CURVE SMOOTH",
"1077 327 OFFCURVE",
"920 135 OFFCURVE",
"627 135 CURVE SMOOTH"
);
}
);
width = 1499;
},
{
layerId = "20E01B96-53C8-4C50-A66A-A7047371F4F1";
paths = (
{
closed = 1;
nodes = (
"1077 539 OFFCURVE",
"1014 342 OFFCURVE",
"924 221 OFFCURVE",
"771 135 OFFCURVE",
"687 135 QCURVE SMOOTH",
"627 135 LINE SMOOTH",
"541 135 OFFCURVE",
"499 189 OFFCURVE",
"499 273 QCURVE SMOOTH",
"499 289 LINE",
"500 334 LINE SMOOTH",
"500 349 OFFCURVE",
"500 364 QCURVE SMOOTH",
"503 469 LINE SMOOTH",
"503 484 OFFCURVE",
"503 499 QCURVE",
"504 514 LINE",
"504 898 LINE SMOOTH",
"504 1186 OFFCURVE",
"507 1197 QCURVE SMOOTH",
"521 1248 OFFCURVE",
"635 1248 QCURVE",
"649 1249 LINE",
"740 1249 OFFCURVE",
"817 1215 QCURVE SMOOTH",
"986 1140 OFFCURVE",
"1048 925 QCURVE SMOOTH",
"1077 824 OFFCURVE",
"1077 718 QCURVE SMOOTH",
"1077 650 LINE SMOOTH"
);
},
{
closed = 1;
nodes = (
"242 1139 OFFCURVE",
"242 1003 QCURVE SMOOTH",
"240 928 LINE SMOOTH",
"240 903 OFFCURVE",
"239 877 QCURVE SMOOTH",
"238 852 LINE",
"235 701 LINE",
"237 573 LINE SMOOTH",
"237 274 OFFCURVE",
"207 168 OFFCURVE",
"91 91 OFFCURVE",
"91 69 QCURVE SMOOTH",
"91 31 OFFCURVE",
"132 5 OFFCURVE",
"244 5 QCURVE SMOOTH",
"468 -2 LINE SMOOTH",
"493 -2 OFFCURVE",
"519 -3 QCURVE SMOOTH",
"573 -4 LINE",
"599 -5 LINE",
"678 -5 LINE SMOOTH",
"1008 -5 OFFCURVE",
"1408 383 OFFCURVE",
"1408 1025 OFFCURVE",
"1008 1392 OFFCURVE",
"659 1392 QCURVE SMOOTH",
"606 1392 LINE SMOOTH",
"276 1392 OFFCURVE",
"141 1369 QCURVE SMOOTH",
"93 1361 OFFCURVE",
"93 1280 OFFCURVE",
"207 1222 OFFCURVE",
"221 1189 QCURVE SMOOTH"
);
}
);
width = 1499;
},
{
layerId = "C2CE44A8-31E7-41E3-9ADA-B2F909F658BE";
paths = (
{
closed = 1;
nodes = (
"766 1302 OFFCURVE",
"854 1264 QCURVE SMOOTH",
"1057 1176 OFFCURVE",
"1121 948 QCURVE SMOOTH",
"1154 830 OFFCURVE",
"1154 716 QCURVE SMOOTH",
"1154 642 LINE SMOOTH",
"1154 528 OFFCURVE",
"1116 420 QCURVE SMOOTH",
"1000 96 OFFCURVE",
"668 95 QCURVE SMOOTH",
"618 95 LINE SMOOTH",
"502 95 OFFCURVE",
"461 160 OFFCURVE",
"461 273 QCURVE SMOOTH",
"461 374 LINE",
"462 443 LINE",
"462 528 LINE",
"463 563 LINE",
"463 648 LINE",
"464 682 LINE",
"464 968 LINE SMOOTH",
"464 1236 OFFCURVE",
"470 1256 QCURVE SMOOTH",
"484 1302 OFFCURVE",
"597 1302 QCURVE SMOOTH",
"647 1302 LINE SMOOTH"
);
},
{
closed = 1;
nodes = (
"644 1395 LINE",
"299 1382 LINE",
"111 1382 OFFCURVE",
"111 1351 QCURVE SMOOTH",
"111 1335 LINE SMOOTH",
"111 1314 OFFCURVE",
"208 1284 OFFCURVE",
"245 1254 OFFCURVE",
"273 1101 OFFCURVE",
"273 211 OFFCURVE",
"245 112 OFFCURVE",
"119 61 OFFCURVE",
"119 1 OFFCURVE",
"321 1 QCURVE SMOOTH",
"393 1 LINE",
"466 -1 LINE SMOOTH",
"491 -1 OFFCURVE",
"516 -2 QCURVE SMOOTH",
"616 -4 LINE",
"641 -5 LINE",
"665 -5 LINE SMOOTH",
"983 -5 OFFCURVE",
"1177 177 QCURVE SMOOTH",
"1388 377 OFFCURVE",
"1388 1028 OFFCURVE",
"1198 1218 QCURVE SMOOTH",
"1108 1308 OFFCURVE",
"981 1351 QCURVE SMOOTH",
"854 1395 OFFCURVE",
"722 1395 QCURVE SMOOTH"
);
}
);
width = 1513;
}
);
unicode = 0044;
},
{
color = 5;
glyphname = Eth;
layers = (
{
layerId = "92A672BF-229C-4BEC-8D25-4DDBB2A38145";
paths = (
{
closed = 1;
nodes = (
"1102 -4 OFFCURVE",
"1393 250.333 OFFCURVE",
"1393 713 CURVE SMOOTH",
"1393 1150 OFFCURVE",
"1113 1386 OFFCURVE",
"655 1386 CURVE SMOOTH",
"502 1384 OFFCURVE",
"457 1383 OFFCURVE",
"227 1376 CURVE SMOOTH",
"153 1376 OFFCURVE",
"116 1364.667 OFFCURVE",
"116 1342 CURVE SMOOTH",
"116 1308 OFFCURVE",
"208 1288 OFFCURVE",
"227 1260 CURVE SMOOTH",
"250 1227 OFFCURVE",
"268 1164 OFFCURVE",
"268 1003 CURVE SMOOTH",
"268 849 OFFCURVE",
"273 796 OFFCURVE",
"254 780 CURVE SMOOTH",
"249 776 OFFCURVE",
"220 770 OFFCURVE",
"165 762 CURVE SMOOTH",
"127 757 OFFCURVE",
"108 739 OFFCURVE",
"108 708.5 CURVE SMOOTH",
"108 678.167 OFFCURVE",
"129.667 660.167 OFFCURVE",
"173 654.5 CURVE SMOOTH",
"216 649 OFFCURVE",
"244 642 OFFCURVE",
"255 633 CURVE SMOOTH",
"266 624 OFFCURVE",
"271 561 OFFCURVE",
"270 444 CURVE SMOOTH",
"267 264 OFFCURVE",
"262 194 OFFCURVE",
"251 162.5 CURVE SMOOTH",
"228 100 OFFCURVE",
"114 92 OFFCURVE",
"114 35 CURVE SMOOTH",
"114 -11 OFFCURVE",
"319 1 OFFCURVE",
"662 -4 CURVE SMOOTH"
);
},
{
closed = 1;
nodes = (
"496.333 84 OFFCURVE",
"470 110.333 OFFCURVE",
"470 245 CURVE SMOOTH",
"470 378 OFFCURVE",
"471 455 OFFCURVE",
"475 527 CURVE SMOOTH",
"477 559 OFFCURVE",
"489 591 OFFCURVE",
"508 608 CURVE SMOOTH",
"533 632 OFFCURVE",
"599 643 OFFCURVE",
"647.5 645 CURVE SMOOTH",
"733 648 OFFCURVE",
"776 667.333 OFFCURVE",
"776 692 CURVE SMOOTH",
"776 724 OFFCURVE",
"761 740 OFFCURVE",
"738 748 CURVE SMOOTH",
"668 773 OFFCURVE",
"516 739 OFFCURVE",
"488 806 CURVE SMOOTH",
"480 826 OFFCURVE",
"475 919 OFFCURVE",
"474 1017 CURVE SMOOTH",
"474 1123 OFFCURVE",
"479 1234 OFFCURVE",
"490 1260 CURVE SMOOTH",
"500 1283.333 OFFCURVE",
"531.667 1295 OFFCURVE",
"585 1295 CURVE SMOOTH",
"975 1295 OFFCURVE",
"1140 1069 OFFCURVE",
"1140 712 CURVE SMOOTH",
"1140 281 OFFCURVE",
"971 84 OFFCURVE",
"607 84 CURVE SMOOTH"
);
}
);
width = 1526;
},
{
layerId = "5CBF0BAD-1756-4F16-9711-93DC239D102B";
paths = (
{
closed = 1;
nodes = (
"1102 -10 OFFCURVE",
"1393 243 OFFCURVE",
"1393 670 CURVE SMOOTH",
"1392 1069 OFFCURVE",
"1125 1348 OFFCURVE",
"732 1348 CURVE SMOOTH",
"515 1348 OFFCURVE",
"366 1331 OFFCURVE",
"183 1323 CURVE SMOOTH",
"138 1323 OFFCURVE",
"115 1305 OFFCURVE",
"114 1283 CURVE SMOOTH",
"113 1241 OFFCURVE",
"241 1183.333 OFFCURVE",
"249 1170 CURVE SMOOTH",
"271.667 1132.667 OFFCURVE",
"283 1071.667 OFFCURVE",
"283 987 CURVE SMOOTH",
"285 938 OFFCURVE",
"286 888 OFFCURVE",
"288 839 CURVE SMOOTH",
"288 799.667 OFFCURVE",
"264.5 774.833 OFFCURVE",
"217.5 764.5 CURVE SMOOTH",
"170.5 754.167 OFFCURVE",
"147 724.667 OFFCURVE",
"147 676 CURVE SMOOTH",
"147 643.333 OFFCURVE",
"173 620 OFFCURVE",
"225 606 CURVE SMOOTH",
"267 594.667 OFFCURVE",
"288 567 OFFCURVE",
"288 523 CURVE SMOOTH",
"288 470 OFFCURVE",
"287 425 OFFCURVE",
"286 385 CURVE SMOOTH",
"283 303 OFFCURVE",
"278 249 OFFCURVE",
"269.5 225 CURVE SMOOTH",
"244 152 OFFCURVE",
"122 103 OFFCURVE",
"122 60.5 CURVE SMOOTH",
"122 -38 OFFCURVE",
"294 -6 OFFCURVE",
"661 -10 CURVE SMOOTH"
);
},
{
closed = 1;
nodes = (
"537.333 118 OFFCURVE",
"503 145 OFFCURVE",
"503 199 CURVE SMOOTH",
"503 280 OFFCURVE",
"503 362 OFFCURVE",
"503 443 CURVE SMOOTH",
"503 503 OFFCURVE",
"515 545 OFFCURVE",
"540 568 CURVE SMOOTH",
"574 602 OFFCURVE",
"652 586 OFFCURVE",
"710 593 CURVE SMOOTH",
"749 598 OFFCURVE",
"778 612 OFFCURVE",
"778 658 CURVE SMOOTH",
"778 709.333 OFFCURVE",
"750.333 735 OFFCURVE",
"695 735 CURVE SMOOTH",
"600 735 OFFCURVE",
"553 729 OFFCURVE",
"530 753 CURVE SMOOTH",
"506 778 OFFCURVE",
"508 836 OFFCURVE",
"508 969 CURVE SMOOTH",
"508 1025 OFFCURVE",
"507 1082 OFFCURVE",
"507 1138 CURVE SMOOTH",
"507 1184 OFFCURVE",
"533.667 1207 OFFCURVE",
"587 1207 CURVE SMOOTH",
"872 1207 OFFCURVE",
"1055 1031 OFFCURVE",
"1055 764 CURVE SMOOTH",
"1061 354 OFFCURVE",
"990 118 OFFCURVE",
"606 118 CURVE SMOOTH"
);
}
);
width = 1492;
},
{
layerId = "20E01B96-53C8-4C50-A66A-A7047371F4F1";
paths = (
{
closed = 1;
nodes = (
"548 735 OFFCURVE",
"508 775 OFFCURVE",
"508 969 QCURVE SMOOTH",
"509 1022 LINE",
"509 1106 LINE",
"507 1138 LINE",
"507 1207 OFFCURVE",
"587 1207 QCURVE SMOOTH",
"636 1207 LINE SMOOTH",
"712 1207 OFFCURVE",
"868 1149 OFFCURVE",
"983 1028 OFFCURVE",
"1055 846 OFFCURVE",
"1055 764 QCURVE SMOOTH",
"1058 653 LINE",
"1058 634 LINE",
"1059 615 LINE",
"1059 579 LINE SMOOTH",
"1059 475 OFFCURVE",
"1018 377 QCURVE SMOOTH",
"944 203 OFFCURVE",
"798 148 QCURVE SMOOTH",
"716 118 OFFCURVE",
"655 118 QCURVE SMOOTH",
"606 118 LINE SMOOTH",
"503 118 OFFCURVE",
"503 199 QCURVE SMOOTH",
"503 443 LINE SMOOTH",
"503 533 OFFCURVE",
"540 568 QCURVE SMOOTH",
"548 576 OFFCURVE",
"743 600 OFFCURVE",
"778 617 OFFCURVE",
"778 658 QCURVE SMOOTH",
"778 735 OFFCURVE",
"695 735 QCURVE SMOOTH"
);
},
{
closed = 1;
nodes = (
"283 1114 OFFCURVE",
"283 987 QCURVE SMOOTH",
"284 915 LINE",
"287 864 LINE",
"288 839 LINE",
"288 780 OFFCURVE",
"147 749 OFFCURVE",
"147 676 QCURVE SMOOTH",
"147 627 OFFCURVE",
"225 606 QCURVE SMOOTH",
"288 589 OFFCURVE",
"288 523 QCURVE SMOOTH",
"288 279 OFFCURVE",
"251 171 OFFCURVE",
"122 99 OFFCURVE",
"122 22 OFFCURVE",
"191 -8 OFFCURVE",
"359 -8 OFFCURVE",
"385 -9 QCURVE SMOOTH",
"412 -10 LINE",
"661 -10 LINE SMOOTH",
"1168 -10 OFFCURVE",
"1336 380 QCURVE SMOOTH",
"1393 512 OFFCURVE",
"1393 670 QCURVE",
"1392 984 OFFCURVE",
"1216 1155 QCURVE SMOOTH",
"1130 1239 OFFCURVE",
"844 1348 OFFCURVE",
"732 1348 QCURVE SMOOTH",
"705 1348 LINE",
"598 1347 LINE SMOOTH",
"367 1347 OFFCURVE",
"196 1323 OFFCURVE",
"183 1323 QCURVE SMOOTH",
"114 1323 OFFCURVE",
"114 1244 OFFCURVE",
"237 1190 OFFCURVE",
"249 1170 QCURVE SMOOTH"
);
}
);
width = 1492;
},
{
layerId = "C2CE44A8-31E7-41E3-9ADA-B2F909F658BE";
paths = (
{
closed = 1;
nodes = (
"769 1295 OFFCURVE",
"946 1212 OFFCURVE",
"1014 1130 QCURVE SMOOTH",
"1140 978 OFFCURVE",
"1140 712 QCURVE SMOOTH",
"1140 626 LINE SMOOTH",
"1140 382 OFFCURVE",
"987 217 QCURVE SMOOTH",
"865 84 OFFCURVE",
"646 84 QCURVE SMOOTH",
"607 84 LINE SMOOTH",
"524 84 OFFCURVE",
"470 144 OFFCURVE",
"470 245 QCURVE SMOOTH",
"470 283 LINE",
"471 343 LINE SMOOTH",
"471 566 OFFCURVE",
"519 635 OFFCURVE",
"776 655 OFFCURVE",
"776 692 QCURVE SMOOTH",
"776 740 OFFCURVE",
"729 761 OFFCURVE",
"507 761 OFFCURVE",
"488 806 QCURVE SMOOTH",
"475 836 OFFCURVE",
"475 1225 OFFCURVE",
"505 1295 OFFCURVE",
"585 1295 QCURVE SMOOTH",
"643 1295 LINE SMOOTH"
);
},
{
closed = 1;
nodes = (
"522 -3 LINE",
"549 -4 LINE",
"662 -4 LINE SMOOTH",
"992 -4 OFFCURVE",
"1393 366 OFFCURVE",
"1393 713 QCURVE SMOOTH",
"1393 872 OFFCURVE",
"1342 998 QCURVE SMOOTH",
"1185 1386 OFFCURVE",
"655 1386 QCURVE SMOOTH",
"572 1386 LINE",
"518 1384 LINE",
"490 1384 OFFCURVE",
"437 1382 QCURVE SMOOTH",
"358 1379 LINE",
"227 1376 LINE SMOOTH",
"116 1376 OFFCURVE",
"116 1342 QCURVE SMOOTH",
"116 1320 OFFCURVE",
"188 1290 QCURVE SMOOTH",
"231 1272 OFFCURVE",
"268 1169 OFFCURVE",
"268 1003 QCURVE SMOOTH",
"269 949 LINE",
"271 895 LINE",
"271 794 OFFCURVE",
"254 780 QCURVE SMOOTH",
"247 774 OFFCURVE",
"165 762 QCURVE SMOOTH",
"108 754 OFFCURVE",
"108 663 OFFCURVE",
"238 646 OFFCURVE",
"271 619 OFFCURVE",
"271 472 OFFCURVE",
"270 444 QCURVE SMOOTH",
"267 362 LINE",
"267 207 OFFCURVE",
"235 118 OFFCURVE",
"114 69 OFFCURVE",
"114 1 OFFCURVE",
"259 1 QCURVE SMOOTH"
);
}
);
width = 1526;
}
);
note = uni00D0;
unicode = 00D0;
},
{
color = 5;
glyphname = E;
layers = (
{
anchors = (
{
name = top;
position = "{620, 1394}";
}
);
layerId = "92A672BF-229C-4BEC-8D25-4DDBB2A38145";
paths = (
{
closed = 1;
nodes = (
"938 -2 OFFCURVE",
"1065 1 OFFCURVE",
"1096 21 CURVE SMOOTH",
"1145.333 53 OFFCURVE",
"1170 109 OFFCURVE",
"1170 218 CURVE SMOOTH",
"1170 266 OFFCURVE",
"1163 280 OFFCURVE",
"1145 280 CURVE SMOOTH",
"1117 280 OFFCURVE",
"1052 181 OFFCURVE",
"951.5 150 CURVE SMOOTH",
"895 133 OFFCURVE",
"792 117 OFFCURVE",
"699 119 CURVE SMOOTH",
"494 124 OFFCURVE",
"471 186 OFFCURVE",
"471 398.5 CURVE SMOOTH",
"471 568 OFFCURVE",
"480 659 OFFCURVE",
"631 659 CURVE SMOOTH",
"786 659 OFFCURVE",
"828 561 OFFCURVE",
"879 561 CURVE SMOOTH",
"916 561 OFFCURVE",
"937 609 OFFCURVE",
"937 703 CURVE SMOOTH",
"937 780 OFFCURVE",
"921 869 OFFCURVE",
"869 869 CURVE SMOOTH",
"834 869 OFFCURVE",
"756 782 OFFCURVE",
"694 782 CURVE SMOOTH",
"560 782 OFFCURVE",
"487 824 OFFCURVE",
"487 940 CURVE SMOOTH",
"487 1144 OFFCURVE",
"540 1273 OFFCURVE",
"656 1273 CURVE SMOOTH",
"808 1273 OFFCURVE",
"898 1258 OFFCURVE",
"956 1235 CURVE SMOOTH",
"1015 1212 OFFCURVE",
"1075 1142 OFFCURVE",
"1092 1142 CURVE SMOOTH",
"1112 1142 OFFCURVE",
"1117 1158 OFFCURVE",
"1117 1211 CURVE SMOOTH",
"1117 1385 OFFCURVE",
"1071 1397 OFFCURVE",
"680 1397 CURVE SMOOTH",
"139 1397 OFFCURVE",
"128 1387 OFFCURVE",
"128 1353 CURVE SMOOTH",
"128 1303 OFFCURVE",
"211 1286 OFFCURVE",
"232 1261 CURVE SMOOTH",
"251 1239 OFFCURVE",
"259 1180 OFFCURVE",
"255 710 CURVE SMOOTH",
"253 446 OFFCURVE",
"247 218.333 OFFCURVE",
"231 171 CURVE SMOOTH",
"215.241 123.723 OFFCURVE",
"122 74.278 OFFCURVE",
"122 39.5 CURVE SMOOTH",
"122 -12 OFFCURVE",
"317 -2 OFFCURVE",
"590 -2 CURVE SMOOTH"
);
}
);
width = 1272;
},
{
anchors = (
{
name = top;
position = "{645, 1389}";
}
);
layerId = "5CBF0BAD-1756-4F16-9711-93DC239D102B";
paths = (
{
closed = 1;
nodes = (
"996 -9 OFFCURVE",
"1087 0 OFFCURVE",
"1131 37 CURVE SMOOTH",
"1182 80 OFFCURVE",
"1199 158 OFFCURVE",
"1199 219 CURVE SMOOTH",
"1199 273 OFFCURVE",
"1184.667 300 OFFCURVE",
"1156 300 CURVE SMOOTH",
"1115 300 OFFCURVE",
"1057 273 OFFCURVE",
"991 244 CURVE SMOOTH",
"906 205 OFFCURVE",
"793 161 OFFCURVE",
"714 161 CURVE SMOOTH",
"566 161 OFFCURVE",
"526 243 OFFCURVE",
"525 413.5 CURVE SMOOTH",
"524 561 OFFCURVE",
"539 626 OFFCURVE",
"697 626 CURVE SMOOTH",
"762 626 OFFCURVE",
"802 540 OFFCURVE",
"884 540 CURVE SMOOTH",
"944 540 OFFCURVE",
"964 603 OFFCURVE",
"964 741 CURVE SMOOTH",
"964 815.667 OFFCURVE",
"944 878 OFFCURVE",
"884 878 CURVE SMOOTH",
"864 878 OFFCURVE",
"734 794 OFFCURVE",
"657 794 CURVE SMOOTH",
"563 794 OFFCURVE",
"522 834 OFFCURVE",
"522 975 CURVE SMOOTH",
"522 1126 OFFCURVE",
"568 1232 OFFCURVE",
"689 1232 CURVE SMOOTH",
"762 1232 OFFCURVE",
"858 1209 OFFCURVE",
"944 1171 CURVE SMOOTH",
"991 1150 OFFCURVE",
"1041 1105 OFFCURVE",
"1072 1105 CURVE SMOOTH",
"1120 1105 OFFCURVE",
"1149 1123.667 OFFCURVE",
"1149 1213 CURVE SMOOTH",
"1149 1395 OFFCURVE",
"1079 1397 OFFCURVE",
"637 1397 CURVE SMOOTH",
"122 1397 OFFCURVE",
"92 1377 OFFCURVE",
"92 1330 CURVE SMOOTH",
"92 1275 OFFCURVE",
"196 1242 OFFCURVE",
"218 1151 CURVE SMOOTH",
"227 1114 OFFCURVE",
"232 955 OFFCURVE",
"232 675 CURVE SMOOTH",
"232 395 OFFCURVE",
"219 212 OFFCURVE",
"202 198 CURVE SMOOTH",
"136 144 OFFCURVE",
"87 113 OFFCURVE",
"88 59 CURVE SMOOTH",
"89 15 OFFCURVE",
"128 -9 OFFCURVE",
"408 -9 CURVE SMOOTH"
);
}
);
width = 1278;
},
{
layerId = "20E01B96-53C8-4C50-A66A-A7047371F4F1";
paths = (
{
closed = 1;
nodes = (
"1149 1313 OFFCURVE",
"1081 1361 QCURVE SMOOTH",
"1040 1390 OFFCURVE",
"939 1390 QCURVE SMOOTH",
"897 1390 LINE",
"637 1389 LINE SMOOTH",
"236 1389 OFFCURVE",
"92 1380 OFFCURVE",
"92 1347 QCURVE SMOOTH",
"92 1301 OFFCURVE",
"204 1207 OFFCURVE",
"232 1095 OFFCURVE",
"232 255 OFFCURVE",
"211 176 OFFCURVE",
"88 108 OFFCURVE",
"88 74 QCURVE SMOOTH",
"88 42 LINE SMOOTH",
"88 -1 OFFCURVE",
"254 -1 QCURVE SMOOTH",
"979 -1 LINE SMOOTH",
"1075 -1 OFFCURVE",
"1159 55 OFFCURVE",
"1199 155 OFFCURVE",
"1199 183 QCURVE SMOOTH",
"1199 219 LINE SMOOTH",
"1199 300 OFFCURVE",
"1156 300 QCURVE SMOOTH",
"1133 300 OFFCURVE",
"816 161 OFFCURVE",
"612 161 OFFCURVE",
"582 200 QCURVE SMOOTH",
"525 273 OFFCURVE",
"525 554 OFFCURVE",
"544 578 QCURVE SMOOTH",
"583 626 OFFCURVE",
"697 626 QCURVE SMOOTH",
"733 626 OFFCURVE",
"810 567 QCURVE SMOOTH",
"845 540 OFFCURVE",
"904 540 QCURVE",
"931 555 LINE",
"964 590 OFFCURVE",
"964 741 QCURVE SMOOTH",
"964 797 OFFCURVE",
"918 878 OFFCURVE",
"857 878 OFFCURVE",
"712 794 OFFCURVE",
"592 794 OFFCURVE",
"524 860 OFFCURVE",
"524 915 QCURVE SMOOTH",
"524 1108 OFFCURVE",
"603 1232 OFFCURVE",
"775 1232 OFFCURVE",
"974 1162 OFFCURVE",
"1009 1142 QCURVE SMOOTH",
"1033 1128 LINE",
"1054 1114 LINE",
"1072 1105 LINE",
"1111 1105 OFFCURVE",
"1149 1146 OFFCURVE",
"1149 1213 QCURVE SMOOTH"
);
}
);
width = 1278;
},
{
layerId = "C2CE44A8-31E7-41E3-9ADA-B2F909F658BE";
paths = (
{
closed = 1;
nodes = (
"128 1317 OFFCURVE",
"235 1273 OFFCURVE",
"259 1198 OFFCURVE",
"259 1030 QCURVE SMOOTH",
"255 638 LINE SMOOTH",
"255 242 OFFCURVE",
"231 171 QCURVE SMOOTH",
"218 132 OFFCURVE",
"122 67 OFFCURVE",
"122 12 OFFCURVE",
"247 -2 OFFCURVE",
"590 -2 QCURVE SMOOTH",
"767 -2 LINE SMOOTH",
"1061 -2 OFFCURVE",
"1096 21 QCURVE SMOOTH",
"1170 69 OFFCURVE",
"1170 248 QCURVE SMOOTH",
"1170 280 OFFCURVE",
"1150 280 QCURVE SMOOTH",
"1137 280 OFFCURVE",
"1031 181 OFFCURVE",
"872 119 OFFCURVE",
"558 119 OFFCURVE",
"525 163 QCURVE SMOOTH",
"471 236 OFFCURVE",
"471 561 OFFCURVE",
"497 600 QCURVE SMOOTH",
"536 659 OFFCURVE",
"726 659 OFFCURVE",
"773 625 QCURVE SMOOTH",
"862 561 OFFCURVE",
"880 561 QCURVE",
"905 573 LINE",
"937 605 OFFCURVE",
"937 801 OFFCURVE",
"892 869 OFFCURVE",
"846 869 OFFCURVE",
"732 782 OFFCURVE",
"694 782 QCURVE SMOOTH",
"592 782 OFFCURVE",
"487 853 OFFCURVE",
"487 940 QCURVE SMOOTH",
"487 1093 OFFCURVE",
"569 1273 OFFCURVE",
"656 1273 QCURVE SMOOTH",
"821 1273 OFFCURVE",
"956 1235 QCURVE SMOOTH",
"997 1224 OFFCURVE",
"1086 1142 OFFCURVE",
"1095 1142 QCURVE SMOOTH",
"1117 1142 OFFCURVE",
"1117 1191 QCURVE SMOOTH",
"1117 1304 OFFCURVE",
"1032 1395 OFFCURVE",
"938 1395 QCURVE SMOOTH",
"640 1394 LINE SMOOTH",
"251 1394 OFFCURVE",
"212 1390 QCURVE SMOOTH",
"128 1381 OFFCURVE",
"128 1353 QCURVE SMOOTH"
);
}
);
width = 1272;
}
);
note = uni0045;
unicode = 0045;
},
{
color = 5;
glyphname = Eacute;
layers = (
{
components = (
{
name = E;
},
{
name = acutecomb;
transform = "{1, 0, 0, 1, 622, 347}";
}
);
layerId = "92A672BF-229C-4BEC-8D25-4DDBB2A38145";
width = 1272;
},
{
components = (
{
name = E;
},
{
name = acutecomb;
transform = "{1, 0, 0, 1, 644, 355}";
}
);
layerId = "5CBF0BAD-1756-4F16-9711-93DC239D102B";
width = 1278;
},
{
layerId = "20E01B96-53C8-4C50-A66A-A7047371F4F1";
paths = (
{
closed = 1;
nodes = (
"745 1828 OFFCURVE",
"701 1778 QCURVE SMOOTH",
"523 1578 OFFCURVE",
"523 1510 QCURVE SMOOTH",
"523 1494 LINE SMOOTH",
"523 1466 OFFCURVE",
"572 1466 QCURVE SMOOTH",
"578 1466 LINE SMOOTH",
"639 1466 OFFCURVE",
"717 1523 QCURVE SMOOTH",
"964 1703 OFFCURVE",
"964 1765 QCURVE SMOOTH",
"964 1770 LINE SMOOTH",
"964 1784 OFFCURVE",
"890 1828 OFFCURVE",
"830 1828 QCURVE SMOOTH",
"818 1828 LINE SMOOTH"
);
},
{
closed = 1;
nodes = (
"1151 1256 OFFCURVE",
"1035 1342 OFFCURVE",
"923 1342 QCURVE SMOOTH",
"838 1342 LINE",
"624 1341 LINE SMOOTH",
"214 1341 OFFCURVE",
"168 1336 QCURVE SMOOTH",
"86 1327 OFFCURVE",
"86 1273 QCURVE SMOOTH",
"86 1240 OFFCURVE",
"203 1142 OFFCURVE",
"228 1070 OFFCURVE",
"228 242 OFFCURVE",
"202 162 OFFCURVE",
"86 90 OFFCURVE",
"86 57 QCURVE SMOOTH",
"86 27 LINE SMOOTH",
"86 -3 OFFCURVE",
"170 -16 QCURVE SMOOTH",
"190 -19 OFFCURVE",
"582 -19 QCURVE SMOOTH",
"625 -19 LINE",
"668 -20 LINE",
"963 -20 LINE SMOOTH",
"1087 -20 OFFCURVE",
"1191 69 OFFCURVE",
"1191 182 QCURVE SMOOTH",
"1191 218 LINE SMOOTH",
"1191 303 OFFCURVE",
"1130 303 QCURVE SMOOTH",
"1115 303 OFFCURVE",
"828 146 OFFCURVE",
"615 146 OFFCURVE",
"539 277 OFFCURVE",
"539 473 QCURVE SMOOTH",
"539 537 OFFCURVE",
"608 601 OFFCURVE",
"693 601 QCURVE SMOOTH",
"728 601 OFFCURVE",
"850 509 OFFCURVE",
"899 509 QCURVE",
"925 524 LINE",
"956 558 OFFCURVE",
"956 808 OFFCURVE",
"916 841 QCURVE",
"888 855 LINE",
"855 855 OFFCURVE",
"723 770 OFFCURVE",
"609 770 OFFCURVE",
"541 845 OFFCURVE",
"541 902 QCURVE SMOOTH",
"541 1045 OFFCURVE",
"621 1176 OFFCURVE",
"807 1176 OFFCURVE",
"1072 1052 OFFCURVE",
"1105 1052 OFFCURVE",
"1151 1093 OFFCURVE",
"1151 1149 QCURVE SMOOTH"
);
}
);
width = 1278;
},
{
layerId = "C2CE44A8-31E7-41E3-9ADA-B2F909F658BE";
paths = (
{
closed = 1;
nodes = (
"928 1817 OFFCURVE",
"837 1817 QCURVE SMOOTH",
"831 1817 LINE SMOOTH",
"786 1817 OFFCURVE",
"733 1770 QCURVE SMOOTH",
"525 1585 OFFCURVE",
"525 1520 QCURVE SMOOTH",
"525 1516 LINE SMOOTH",
"525 1479 OFFCURVE",
"570 1479 QCURVE SMOOTH",
"575 1479 LINE SMOOTH",
"601 1479 OFFCURVE",
"810 1625 QCURVE SMOOTH",
"927 1707 OFFCURVE",
"927 1752 QCURVE",
"928 1757 LINE",
"928 1766 LINE SMOOTH"
);
},
{
closed = 1;
nodes = (
"830 885 OFFCURVE",
"760 821 OFFCURVE",
"706 791 OFFCURVE",
"651 791 QCURVE SMOOTH",
"547 791 OFFCURVE",
"500 847 QCURVE SMOOTH",
"470 883 OFFCURVE",
"470 942 QCURVE SMOOTH",
"470 1123 OFFCURVE",
"527 1214 QCURVE SMOOTH",
"563 1271 OFFCURVE",
"677 1271 QCURVE SMOOTH",
"905 1271 OFFCURVE",
"1014 1181 QCURVE SMOOTH",
"1064 1140 OFFCURVE",
"1076 1140 QCURVE SMOOTH",
"1095 1140 OFFCURVE",
"1095 1197 QCURVE SMOOTH",
"1095 1308 OFFCURVE",
"996 1387 OFFCURVE",
"862 1387 QCURVE SMOOTH",
"775 1386 LINE",
"388 1383 LINE SMOOTH",
"105 1383 OFFCURVE",
"105 1341 QCURVE SMOOTH",
"105 1312 OFFCURVE",
"210 1260 OFFCURVE",
"240 1172 OFFCURVE",
"240 266 OFFCURVE",
"217 150 OFFCURVE",
"177 122 QCURVE SMOOTH",
"105 72 OFFCURVE",
"105 69 QCURVE SMOOTH",
"105 24 OFFCURVE",
"193 15 QCURVE SMOOTH",
"222 12 OFFCURVE",
"573 12 QCURVE SMOOTH",
"661 12 LINE",
"705 11 LINE",
"792 11 LINE SMOOTH",
"1038 11 OFFCURVE",
"1099 50 OFFCURVE",
"1149 145 OFFCURVE",
"1149 295 OFFCURVE",
"1130 295 QCURVE SMOOTH",
"1118 295 OFFCURVE",
"1065 237 QCURVE SMOOTH",
"964 126 OFFCURVE",
"698 126 QCURVE SMOOTH",
"548 126 OFFCURVE",
"518 169 QCURVE SMOOTH",
"464 248 OFFCURVE",
"464 457 QCURVE SMOOTH",
"464 573 OFFCURVE",
"487 603 QCURVE SMOOTH",
"530 659 OFFCURVE",
"673 659 QCURVE SMOOTH",
"731 659 OFFCURVE",
"834 554 OFFCURVE",
"872 554 QCURVE SMOOTH",
"916 554 OFFCURVE",
"916 885 OFFCURVE",
"849 885 QCURVE SMOOTH"
);
}
);
width = 1272;
}
);
unicode = 00C9;
},
{
color = 5;
glyphname = Ecircumflex;
layers = (
{
components = (
{
name = E;
},
{
name = circumflexcomb;
transform = "{1, 0, 0, 1, 620, 291}";
}
);
layerId = "92A672BF-229C-4BEC-8D25-4DDBB2A38145";
width = 1272;
},
{
components = (
{
name = E;
},
{
name = circumflexcomb;
transform = "{1, 0, 0, 1, 645, 324}";
}
);
layerId = "5CBF0BAD-1756-4F16-9711-93DC239D102B";
width = 1278;
},
{
layerId = "20E01B96-53C8-4C50-A66A-A7047371F4F1";
paths = (
{
closed = 1;
nodes = (
"464 1465 OFFCURVE",
"548 1531 QCURVE SMOOTH",
"558 1539 OFFCURVE",
"655 1621 OFFCURVE",
"665 1621 OFFCURVE",
"730 1566 OFFCURVE",
"858 1466 OFFCURVE",
"986 1466 OFFCURVE",
"986 1502 QCURVE SMOOTH",
"986 1509 LINE SMOOTH",
"986 1518 OFFCURVE",
"948 1563 QCURVE SMOOTH",
"842 1690 LINE SMOOTH",
"784 1764 OFFCURVE",
"766 1779 QCURVE SMOOTH",
"729 1810 OFFCURVE",
"682 1810 QCURVE SMOOTH",
"646 1810 LINE SMOOTH",
"592 1810 OFFCURVE",
"550 1768 QCURVE SMOOTH",
"340 1558 OFFCURVE",
"340 1502 QCURVE SMOOTH",
"340 1465 OFFCURVE",
"402 1465 QCURVE SMOOTH",
"419 1465 LINE SMOOTH"
);
},
{
closed = 1;
nodes = (
"582 1340 LINE SMOOTH",
"210 1340 OFFCURVE",
"168 1335 QCURVE SMOOTH",
"86 1325 OFFCURVE",
"86 1272 QCURVE SMOOTH",
"86 1241 OFFCURVE",
"203 1139 OFFCURVE",
"228 1066 OFFCURVE",
"228 240 OFFCURVE",
"202 164 OFFCURVE",
"85 89 OFFCURVE",
"85 16 OFFCURVE",
"103 4 QCURVE SMOOTH",
"138 -20 OFFCURVE",
"290 -20 QCURVE SMOOTH",
"333 -20 LINE",
"456 -19 LINE",
"497 -20 LINE",
"963 -20 LINE SMOOTH",
"1087 -20 OFFCURVE",
"1191 66 OFFCURVE",
"1191 182 QCURVE SMOOTH",
"1191 251 OFFCURVE",
"1166 302 OFFCURVE",
"1108 302 OFFCURVE",
"830 145 OFFCURVE",
"699 145 QCURVE SMOOTH",
"615 145 OFFCURVE",
"539 275 OFFCURVE",
"539 472 QCURVE SMOOTH",
"539 600 OFFCURVE",
"671 600 QCURVE SMOOTH",
"733 600 OFFCURVE",
"856 509 OFFCURVE",
"899 509 QCURVE",
"925 524 LINE",
"955 557 OFFCURVE",
"955 810 OFFCURVE",
"916 841 QCURVE",
"887 854 LINE",
"852 854 OFFCURVE",
"768 799 QCURVE SMOOTH",
"722 769 OFFCURVE",
"648 769 QCURVE SMOOTH",
"610 769 OFFCURVE",
"541 841 OFFCURVE",
"541 901 QCURVE SMOOTH",
"541 1047 OFFCURVE",
"620 1175 OFFCURVE",
"811 1175 OFFCURVE",
"1070 1052 OFFCURVE",
"1093 1052 QCURVE SMOOTH",
"1150 1052 OFFCURVE",
"1150 1255 OFFCURVE",
"1035 1342 OFFCURVE",
"922 1342 QCURVE SMOOTH"
);
}
);
width = 1278;
},
{
layerId = "C2CE44A8-31E7-41E3-9ADA-B2F909F658BE";
paths = (
{
closed = 1;
nodes = (
"416 1496 OFFCURVE",
"632 1662 OFFCURVE",
"649 1662 OFFCURVE",
"865 1496 OFFCURVE",
"895 1496 QCURVE SMOOTH",
"902 1496 LINE SMOOTH",
"943 1496 OFFCURVE",
"943 1524 QCURVE SMOOTH",
"943 1525 OFFCURVE",
"797 1698 QCURVE SMOOTH",
"697 1816 OFFCURVE",
"650 1816 QCURVE SMOOTH",
"634 1816 LINE SMOOTH",
"586 1816 OFFCURVE",
"487 1699 QCURVE SMOOTH",
"477 1687 OFFCURVE",
"338 1536 OFFCURVE",
"338 1526 QCURVE SMOOTH",
"338 1496 OFFCURVE",
"371 1496 QCURVE SMOOTH",
"385 1496 LINE SMOOTH"
);
},
{
closed = 1;
nodes = (
"462 227 OFFCURVE",
"462 441 QCURVE SMOOTH",
"462 559 OFFCURVE",
"484 590 QCURVE SMOOTH",
"524 646 OFFCURVE",
"672 646 QCURVE SMOOTH",
"731 646 OFFCURVE",
"835 540 OFFCURVE",
"874 540 QCURVE SMOOTH",
"919 540 OFFCURVE",
"919 700 QCURVE SMOOTH",
"919 797 OFFCURVE",
"876 874 OFFCURVE",
"827 874 OFFCURVE",
"795 846 QCURVE",
"771 821 LINE",
"745 801 LINE",
"710 780 OFFCURVE",
"651 780 QCURVE SMOOTH",
"548 780 OFFCURVE",
"497 836 QCURVE SMOOTH",
"466 870 OFFCURVE",
"466 931 QCURVE SMOOTH",
"466 1116 OFFCURVE",
"525 1207 QCURVE SMOOTH",
"562 1264 OFFCURVE",
"693 1264 QCURVE SMOOTH",
"920 1264 OFFCURVE",
"1024 1170 QCURVE SMOOTH",
"1066 1132 OFFCURVE",
"1080 1131 QCURVE",
"1101 1131 OFFCURVE",
"1101 1187 QCURVE SMOOTH",
"1101 1294 OFFCURVE",
"1048 1346 QCURVE SMOOTH",
"1010 1383 OFFCURVE",
"866 1383 QCURVE SMOOTH",
"736 1383 LINE",
"562 1382 LINE SMOOTH",
"215 1382 OFFCURVE",
"177 1378 QCURVE SMOOTH",
"100 1370 OFFCURVE",
"100 1339 QCURVE SMOOTH",
"100 1321 OFFCURVE",
"179 1269 QCURVE SMOOTH",
"215 1245 OFFCURVE",
"238 1120 OFFCURVE",
"238 256 OFFCURVE",
"213 128 OFFCURVE",
"177 104 QCURVE SMOOTH",
"103 55 OFFCURVE",
"103 50 QCURVE SMOOTH",
"103 3 OFFCURVE",
"189 -6 QCURVE SMOOTH",
"219 -9 OFFCURVE",
"575 -9 QCURVE SMOOTH",
"840 -9 LINE",
"927 -8 LINE",
"970 -9 LINE SMOOTH",
"1067 -9 OFFCURVE",
"1156 94 OFFCURVE",
"1156 211 QCURVE SMOOTH",
"1156 244 LINE SMOOTH",
"1156 277 OFFCURVE",
"1121 277 OFFCURVE",
"1020 171 OFFCURVE",
"965 149 QCURVE SMOOTH",
"856 106 OFFCURVE",
"547 106 OFFCURVE",
"517 149 QCURVE SMOOTH"
);
}
);
width = 1272;
}
);
unicode = 00CA;
},
{
color = 5;
glyphname = Edieresis;
layers = (
{
components = (
{
name = E;
},
{
name = dieresiscomb;
transform = "{1, 0, 0, 1, 611, 411}";
}
);
layerId = "92A672BF-229C-4BEC-8D25-4DDBB2A38145";
width = 1272;
},
{
components = (
{
name = E;
},
{
name = dieresiscomb;
transform = "{1, 0, 0, 1, 640, 373}";
}
);
layerId = "5CBF0BAD-1756-4F16-9711-93DC239D102B";
width = 1278;
},
{
layerId = "20E01B96-53C8-4C50-A66A-A7047371F4F1";
paths = (
{
closed = 1;
nodes = (
"507 1488 OFFCURVE",
"593 1549 OFFCURVE",
"593 1617 QCURVE SMOOTH",
"593 1641 LINE SMOOTH",
"593 1646 OFFCURVE",
"589 1664 QCURVE",
"589 1703 OFFCURVE",
"515 1765 OFFCURVE",
"457 1765 QCURVE SMOOTH",
"452 1765 LINE SMOOTH",
"397 1765 OFFCURVE",
"310 1703 OFFCURVE",
"310 1635 QCURVE SMOOTH",
"310 1616 LINE",
"313 1593 LINE",
"313 1545 OFFCURVE",
"392 1488 OFFCURVE",
"437 1488 QCURVE SMOOTH",
"461 1488 LINE SMOOTH"
);
},
{
closed = 1;
nodes = (
"1016 1699 OFFCURVE",
"940 1764 OFFCURVE",
"886 1764 QCURVE",
"881 1765 LINE",
"876 1765 LINE",
"848 1762 LINE",
"800 1762 OFFCURVE",
"736 1688 OFFCURVE",
"736 1659 QCURVE SMOOTH",
"736 1655 OFFCURVE",
"734 1645 QCURVE",
"734 1636 LINE",
"733 1631 LINE",
"733 1617 LINE SMOOTH",
"733 1566 OFFCURVE",
"796 1491 OFFCURVE",
"835 1491 QCURVE SMOOTH",
"844 1491 OFFCURVE",
"859 1488 QCURVE",
"883 1488 LINE",
"906 1491 LINE",
"950 1491 OFFCURVE",
"1016 1568 OFFCURVE",
"1016 1616 QCURVE SMOOTH",
"1016 1640 LINE SMOOTH"
);
},
{
closed = 1;
nodes = (
"758 1346 LINE",
"589 1345 LINE SMOOTH",
"217 1345 OFFCURVE",
"175 1340 QCURVE SMOOTH",
"92 1330 OFFCURVE",
"92 1277 QCURVE SMOOTH",
"92 1247 OFFCURVE",
"210 1144 OFFCURVE",
"235 1071 OFFCURVE",
"235 247 OFFCURVE",
"208 167 OFFCURVE",
"92 95 OFFCURVE",
"92 62 QCURVE SMOOTH",
"92 2 OFFCURVE",
"177 -11 QCURVE SMOOTH",
"203 -15 OFFCURVE",
"546 -15 QCURVE SMOOTH",
"760 -15 LINE",
"802 -16 LINE",
"928 -16 LINE SMOOTH",
"1094 -16 OFFCURVE",
"1198 73 OFFCURVE",
"1198 258 OFFCURVE",
"1173 307 OFFCURVE",
"1137 307 QCURVE SMOOTH",
"1120 307 OFFCURVE",
"833 150 OFFCURVE",
"706 150 QCURVE SMOOTH",
"546 150 OFFCURVE",
"546 404 QCURVE SMOOTH",
"546 528 OFFCURVE",
"555 546 QCURVE SMOOTH",
"586 605 OFFCURVE",
"741 605 OFFCURVE",
"862 514 OFFCURVE",
"906 514 QCURVE",
"932 529 LINE",
"962 563 OFFCURVE",
"962 814 OFFCURVE",
"922 845 QCURVE",
"894 859 LINE",
"858 859 OFFCURVE",
"728 774 OFFCURVE",
"616 774 OFFCURVE",
"548 847 OFFCURVE",
"548 906 QCURVE SMOOTH",
"548 1050 OFFCURVE",
"626 1180 OFFCURVE",
"809 1180 OFFCURVE",
"1083 1056 OFFCURVE",
"1099 1056 QCURVE SMOOTH",
"1157 1056 OFFCURVE",
"1157 1244 OFFCURVE",
"1064 1346 OFFCURVE",
"929 1346 QCURVE SMOOTH"
);
}
);
width = 1278;
},
{
layerId = "C2CE44A8-31E7-41E3-9ADA-B2F909F658BE";
paths = (
{
closed = 1;
nodes = (
"490 1527 OFFCURVE",
"549 1586 OFFCURVE",
"549 1613 QCURVE SMOOTH",
"549 1617 OFFCURVE",
"551 1623 QCURVE",
"551 1649 LINE",
"548 1668 LINE",
"548 1694 OFFCURVE",
"495 1747 OFFCURVE",
"460 1747 OFFCURVE",
"448 1750 QCURVE",
"437 1750 LINE",
"415 1747 LINE",
"387 1747 OFFCURVE",
"328 1688 OFFCURVE",
"328 1649 QCURVE SMOOTH",
"328 1627 LINE",
"331 1609 LINE",
"331 1583 OFFCURVE",
"384 1530 OFFCURVE",
"412 1530 OFFCURVE",
"424 1527 QCURVE",
"453 1527 LINE SMOOTH"
);
},
{
closed = 1;
nodes = (
"838 1527 LINE",
"856 1530 LINE",
"884 1530 OFFCURVE",
"942 1588 OFFCURVE",
"942 1636 QCURVE",
"943 1640 LINE",
"943 1683 OFFCURVE",
"892 1747 OFFCURVE",
"863 1747 QCURVE SMOOTH",
"857 1747 OFFCURVE",
"845 1750 QCURVE",
"823 1750 LINE",
"805 1747 LINE",
"777 1747 OFFCURVE",
"718 1688 OFFCURVE",
"718 1641 QCURVE SMOOTH",
"718 1637 LINE SMOOTH",
"718 1588 OFFCURVE",
"776 1530 OFFCURVE",
"804 1530 OFFCURVE",
"816 1527 QCURVE"
);
},
{
closed = 1;
nodes = (
"821 871 OFFCURVE",
"750 810 OFFCURVE",
"685 776 OFFCURVE",
"554 776 OFFCURVE",
"447 843 OFFCURVE",
"447 932 QCURVE SMOOTH",
"447 1123 OFFCURVE",
"504 1214 QCURVE SMOOTH",
"539 1270 OFFCURVE",
"658 1270 QCURVE SMOOTH",
"906 1270 OFFCURVE",
"1007 1169 QCURVE SMOOTH",
"1053 1123 OFFCURVE",
"1096 1123 OFFCURVE",
"1096 1182 QCURVE SMOOTH",
"1096 1302 OFFCURVE",
"1009 1374 OFFCURVE",
"911 1374 QCURVE SMOOTH",
"868 1373 LINE",
"566 1370 LINE SMOOTH",
"100 1370 OFFCURVE",
"100 1300 OFFCURVE",
"211 1252 OFFCURVE",
"240 1159 OFFCURVE",
"240 255 OFFCURVE",
"214 132 OFFCURVE",
"176 103 QCURVE SMOOTH",
"107 50 OFFCURVE",
"107 48 QCURVE SMOOTH",
"107 -5 OFFCURVE",
"234 -5 QCURVE SMOOTH",
"446 -2 LINE",
"925 -6 LINE",
"968 -7 LINE SMOOTH",
"1063 -7 OFFCURVE",
"1098 36 QCURVE SMOOTH",
"1150 99 OFFCURVE",
"1150 208 QCURVE SMOOTH",
"1150 270 OFFCURVE",
"1126 270 QCURVE SMOOTH",
"1118 270 OFFCURVE",
"1061 212 QCURVE SMOOTH",
"946 95 OFFCURVE",
"630 95 QCURVE SMOOTH",
"528 95 OFFCURVE",
"501 139 QCURVE SMOOTH",
"442 236 OFFCURVE",
"442 431 QCURVE SMOOTH",
"442 549 OFFCURVE",
"467 581 QCURVE SMOOTH",
"511 638 OFFCURVE",
"707 638 OFFCURVE",
"751 599 QCURVE SMOOTH",
"824 535 OFFCURVE",
"828 535 QCURVE SMOOTH",
"873 535 OFFCURVE",
"902 627 OFFCURVE",
"902 871 OFFCURVE",
"835 871 QCURVE SMOOTH"
);
}
);
width = 1272;
}
);
unicode = 00CB;
},
{
color = 5;
glyphname = Egrave;
layers = (
{
components = (
{
name = E;
},
{
name = gravecomb;
transform = "{1, 0, 0, 1, 620, 387}";
}
);
layerId = "92A672BF-229C-4BEC-8D25-4DDBB2A38145";
width = 1272;
},
{
components = (
{
name = E;
},
{
name = gravecomb;
transform = "{1, 0, 0, 1, 645, 382}";
}
);
layerId = "5CBF0BAD-1756-4F16-9711-93DC239D102B";
width = 1278;
},
{
layerId = "20E01B96-53C8-4C50-A66A-A7047371F4F1";
paths = (
{
closed = 1;
nodes = (
"445 1829 OFFCURVE",
"358 1786 OFFCURVE",
"358 1774 QCURVE SMOOTH",
"358 1769 LINE",
"357 1764 LINE",
"357 1699 OFFCURVE",
"608 1516 QCURVE SMOOTH",
"677 1466 OFFCURVE",
"730 1466 QCURVE SMOOTH",
"747 1466 LINE SMOOTH",
"796 1466 OFFCURVE",
"796 1500 QCURVE SMOOTH",
"796 1505 LINE SMOOTH",
"796 1555 OFFCURVE",
"623 1777 QCURVE SMOOTH",
"583 1828 OFFCURVE",
"509 1828 QCURVE",
"503 1829 LINE",
"491 1829 LINE SMOOTH"
);
},
{
closed = 1;
nodes = (
"795 1342 LINE",
"624 1341 LINE SMOOTH",
"215 1341 OFFCURVE",
"168 1336 QCURVE SMOOTH",
"86 1327 OFFCURVE",
"86 1273 QCURVE SMOOTH",
"86 1240 OFFCURVE",
"203 1141 OFFCURVE",
"228 1067 OFFCURVE",
"228 240 OFFCURVE",
"202 164 OFFCURVE",
"85 89 OFFCURVE",
"85 58 QCURVE SMOOTH",
"85 -2 OFFCURVE",
"170 -15 QCURVE SMOOTH",
"196 -19 OFFCURVE",
"581 -19 QCURVE SMOOTH",
"667 -19 LINE",
"710 -20 LINE",
"963 -20 LINE SMOOTH",
"1087 -20 OFFCURVE",
"1191 69 OFFCURVE",
"1191 183 QCURVE SMOOTH",
"1191 252 OFFCURVE",
"1166 303 OFFCURVE",
"1130 303 QCURVE SMOOTH",
"1115 303 OFFCURVE",
"828 146 OFFCURVE",
"614 146 OFFCURVE",
"539 275 OFFCURVE",
"539 473 QCURVE SMOOTH",
"539 538 OFFCURVE",
"609 601 OFFCURVE",
"692 601 QCURVE SMOOTH",
"730 601 OFFCURVE",
"808 541 QCURVE SMOOTH",
"850 509 OFFCURVE",
"899 509 QCURVE",
"925 525 LINE",
"955 559 OFFCURVE",
"955 809 OFFCURVE",
"916 841 QCURVE",
"887 855 LINE",
"854 855 OFFCURVE",
"724 770 OFFCURVE",
"609 770 OFFCURVE",
"541 843 OFFCURVE",
"541 902 QCURVE SMOOTH",
"541 1047 OFFCURVE",
"619 1176 OFFCURVE",
"809 1176 OFFCURVE",
"1070 1052 OFFCURVE",
"1093 1052 QCURVE SMOOTH",
"1150 1052 OFFCURVE",
"1150 1254 OFFCURVE",
"1036 1342 OFFCURVE",
"922 1342 QCURVE SMOOTH"
);
}
);
width = 1278;
},
{
layerId = "C2CE44A8-31E7-41E3-9ADA-B2F909F658BE";
paths = (
{
closed = 1;
nodes = (
"351 1714 OFFCURVE",
"447 1647 QCURVE SMOOTH",
"660 1498 OFFCURVE",
"714 1498 QCURVE SMOOTH",
"730 1498 LINE SMOOTH",
"760 1498 OFFCURVE",
"760 1528 QCURVE SMOOTH",
"760 1533 LINE SMOOTH",
"760 1588 OFFCURVE",
"568 1759 QCURVE SMOOTH",
"497 1822 OFFCURVE",
"447 1822 QCURVE SMOOTH",
"442 1822 LINE SMOOTH",
"398 1822 OFFCURVE",
"351 1781 OFFCURVE",
"351 1763 QCURVE SMOOTH",
"351 1744 LINE SMOOTH"
);
},
{
closed = 1;
nodes = (
"829 874 OFFCURVE",
"761 815 OFFCURVE",
"694 779 OFFCURVE",
"559 779 OFFCURVE",
"454 847 OFFCURVE",
"454 935 QCURVE SMOOTH",
"454 1128 OFFCURVE",
"511 1216 QCURVE SMOOTH",
"548 1273 OFFCURVE",
"818 1273 OFFCURVE",
"935 1226 QCURVE SMOOTH",
"969 1212 OFFCURVE",
"1062 1125 OFFCURVE",
"1103 1125 OFFCURVE",
"1103 1185 QCURVE SMOOTH",
"1103 1305 OFFCURVE",
"1016 1377 OFFCURVE",
"918 1377 QCURVE SMOOTH",
"833 1375 LINE",
"660 1373 LINE",
"357 1372 LINE SMOOTH",
"314 1372 OFFCURVE",
"271 1373 QCURVE SMOOTH",
"229 1374 LINE SMOOTH",
"107 1374 OFFCURVE",
"107 1303 OFFCURVE",
"217 1255 OFFCURVE",
"247 1161 OFFCURVE",
"247 259 OFFCURVE",
"221 136 OFFCURVE",
"183 106 QCURVE SMOOTH",
"115 53 OFFCURVE",
"115 51 QCURVE SMOOTH",
"115 -2 OFFCURVE",
"241 -2 QCURVE SMOOTH",
"324 -2 OFFCURVE",
"367 -1 QCURVE SMOOTH",
"410 0 LINE",
"933 -3 LINE",
"976 -4 LINE SMOOTH",
"1071 -4 OFFCURVE",
"1105 39 QCURVE SMOOTH",
"1157 105 OFFCURVE",
"1157 272 OFFCURVE",
"1133 272 QCURVE SMOOTH",
"1126 272 OFFCURVE",
"1072 218 QCURVE SMOOTH",
"952 98 OFFCURVE",
"681 98 QCURVE SMOOTH",
"534 98 OFFCURVE",
"508 141 QCURVE SMOOTH",
"449 238 OFFCURVE",
"449 434 QCURVE SMOOTH",
"449 552 OFFCURVE",
"474 584 QCURVE SMOOTH",
"519 641 OFFCURVE",
"666 641 QCURVE SMOOTH",
"714 641 OFFCURVE",
"831 538 OFFCURVE",
"835 538 QCURVE SMOOTH",
"880 538 OFFCURVE",
"909 629 OFFCURVE",
"909 874 OFFCURVE",
"843 874 QCURVE SMOOTH"
);
}
);
width = 1272;
}
);
unicode = 00C8;
},
{
color = 5;
glyphname = F;
layers = (
{
layerId = "92A672BF-229C-4BEC-8D25-4DDBB2A38145";
paths = (
{
closed = 1;
nodes = (
"525 -6 OFFCURVE",
"585 -2 OFFCURVE",
"585 32 CURVE SMOOTH",
"585 53 OFFCURVE",
"525 70 OFFCURVE",
"506 182 CURVE SMOOTH",
"497 235 OFFCURVE",
"482 349 OFFCURVE",
"484 449 CURVE SMOOTH",
"487 580 OFFCURVE",
"555 614 OFFCURVE",
"676 614 CURVE SMOOTH",
"745 614 OFFCURVE",
"817 553 OFFCURVE",
"856 553 CURVE SMOOTH",
"904 553 OFFCURVE",
"930 615.333 OFFCURVE",
"930 698 CURVE SMOOTH",
"930 801.333 OFFCURVE",
"911.333 853 OFFCURVE",
"874 853 CURVE SMOOTH",
"833 853 OFFCURVE",
"766 770 OFFCURVE",
"672 770 CURVE SMOOTH",
"512 770 OFFCURVE",
"480 807.167 OFFCURVE",
"480 998.5 CURVE SMOOTH",
"480 1189.833 OFFCURVE",
"509.333 1284 OFFCURVE",
"712 1284 CURVE SMOOTH",
"827 1284 OFFCURVE",
"939 1269 OFFCURVE",
"1007 1203 CURVE SMOOTH",
"1033 1178 OFFCURVE",
"1064 1116 OFFCURVE",
"1088 1116 CURVE SMOOTH",
"1113.333 1116 OFFCURVE",
"1126 1138 OFFCURVE",
"1126 1182 CURVE SMOOTH",
"1126 1372 OFFCURVE",
"1080 1399 OFFCURVE",
"939 1399 CURVE SMOOTH",
"208 1399 OFFCURVE",
"119 1390 OFFCURVE",
"119 1358 CURVE SMOOTH",
"119 1323 OFFCURVE",
"222 1283 OFFCURVE",
"239 1237 CURVE SMOOTH",
"254.333 1194.333 OFFCURVE",
"262 1090.333 OFFCURVE",
"262 925 CURVE SMOOTH",
"254 331 OFFCURVE",
"247 199 OFFCURVE",
"242.5 175 CURVE SMOOTH",
"233 129 OFFCURVE",
"130 90 OFFCURVE",
"130 63 CURVE SMOOTH",
"130 0 OFFCURVE",
"254 -6 OFFCURVE",
"373 -6 CURVE SMOOTH"
);
}
);
width = 1194;
},
{
layerId = "5CBF0BAD-1756-4F16-9711-93DC239D102B";
paths = (
{
closed = 1;
nodes = (
"584 -11 OFFCURVE",
"630 -6 OFFCURVE",
"630 43 CURVE SMOOTH",
"630 73 OFFCURVE",
"589 133 OFFCURVE",
"568 204 CURVE SMOOTH",
"549 266 OFFCURVE",
"533 323 OFFCURVE",
"532 424 CURVE SMOOTH",
"531 541 OFFCURVE",
"574 581 OFFCURVE",
"702 581 CURVE SMOOTH",
"767.315 581 OFFCURVE",
"790 530 OFFCURVE",
"876 530 CURVE SMOOTH",
"922 530 OFFCURVE",
"936 622.667 OFFCURVE",
"936 686 CURVE SMOOTH",
"936 801.333 OFFCURVE",
"910 859 OFFCURVE",
"859 859 CURVE SMOOTH",
"790 859 OFFCURVE",
"759 782 OFFCURVE",
"672 782 CURVE SMOOTH",
"576 782 OFFCURVE",
"528 852.667 OFFCURVE",
"528 994 CURVE SMOOTH",
"528 1137 OFFCURVE",
"579 1232 OFFCURVE",
"700 1232 CURVE SMOOTH",
"809 1232 OFFCURVE",
"848.333 1209.333 OFFCURVE",
"939 1164 CURVE SMOOTH",
"1029.667 1118.667 OFFCURVE",
"1076.667 1096 OFFCURVE",
"1080 1096 CURVE SMOOTH",
"1118 1096 OFFCURVE",
"1137 1140 OFFCURVE",
"1137 1239 CURVE SMOOTH",
"1137 1371 OFFCURVE",
"1118 1390 OFFCURVE",
"595 1390 CURVE SMOOTH",
"114 1390 OFFCURVE",
"92 1365 OFFCURVE",
"92 1320 CURVE SMOOTH",
"92 1281 OFFCURVE",
"206 1194 OFFCURVE",
"222.5 1105 CURVE SMOOTH",
"229 1069 OFFCURVE",
"233 912 OFFCURVE",
"234 634 CURVE SMOOTH",
"234 517 OFFCURVE",
"233 378 OFFCURVE",
"233 218 CURVE SMOOTH",
"233 150 OFFCURVE",
"97 113 OFFCURVE",
"97 61 CURVE SMOOTH",
"97 0 OFFCURVE",
"142 -11 OFFCURVE",
"457 -11 CURVE SMOOTH"
);
}
);
width = 1194;
},
{
layerId = "20E01B96-53C8-4C50-A66A-A7047371F4F1";
paths = (
{
closed = 1;
nodes = (
"1137 1330 OFFCURVE",
"1078 1369 QCURVE SMOOTH",
"1043 1392 OFFCURVE",
"846 1392 QCURVE SMOOTH",
"811 1393 LINE",
"703 1393 LINE",
"595 1390 LINE SMOOTH",
"233 1390 OFFCURVE",
"143 1375 QCURVE SMOOTH",
"92 1367 OFFCURVE",
"92 1301 OFFCURVE",
"208 1182 OFFCURVE",
"237 1028 OFFCURVE",
"237 237 OFFCURVE",
"233 218 QCURVE SMOOTH",
"222 168 OFFCURVE",
"97 98 OFFCURVE",
"97 24 OFFCURVE",
"141 10 QCURVE SMOOTH",
"208 -11 OFFCURVE",
"457 -11 QCURVE SMOOTH",
"492 -11 LINE",
"526 -12 LINE SMOOTH",
"630 -12 OFFCURVE",
"630 41 QCURVE SMOOTH",
"630 42 OFFCURVE",
"581 138 OFFCURVE",
"527 317 OFFCURVE",
"527 507 OFFCURVE",
"559 537 QCURVE SMOOTH",
"606 581 OFFCURVE",
"702 581 QCURVE SMOOTH",
"725 581 OFFCURVE",
"842 534 OFFCURVE",
"884 534 OFFCURVE",
"900 552 QCURVE SMOOTH",
"936 591 OFFCURVE",
"936 686 QCURVE SMOOTH",
"936 859 OFFCURVE",
"859 859 QCURVE SMOOTH",
"849 859 OFFCURVE",
"716 782 OFFCURVE",
"672 782 QCURVE SMOOTH",
"528 782 OFFCURVE",
"528 994 QCURVE SMOOTH",
"528 1101 OFFCURVE",
"573 1184 OFFCURVE",
"666 1232 OFFCURVE",
"700 1232 QCURVE SMOOTH",
"803 1232 OFFCURVE",
"1075 1096 OFFCURVE",
"1080 1096 QCURVE SMOOTH",
"1137 1096 OFFCURVE",
"1137 1179 QCURVE SMOOTH",
"1137 1211 LINE SMOOTH"
);
}
);
width = 1194;
},
{
layerId = "C2CE44A8-31E7-41E3-9ADA-B2F909F658BE";
paths = (
{
closed = 1;
nodes = (
"1126 1317 OFFCURVE",
"1054 1399 OFFCURVE",
"971 1399 QCURVE SMOOTH",
"716 1396 LINE SMOOTH",
"680 1396 OFFCURVE",
"643 1395 QCURVE SMOOTH",
"570 1393 LINE",
"353 1390 LINE SMOOTH",
"119 1390 OFFCURVE",
"119 1358 QCURVE SMOOTH",
"119 1336 OFFCURVE",
"227 1269 OFFCURVE",
"239 1237 QCURVE SMOOTH",
"262 1173 OFFCURVE",
"262 925 QCURVE SMOOTH",
"254 491 LINE SMOOTH",
"254 209 OFFCURVE",
"231 141 OFFCURVE",
"130 73 OFFCURVE",
"130 63 QCURVE SMOOTH",
"130 26 OFFCURVE",
"240 -6 OFFCURVE",
"373 -6 QCURVE SMOOTH",
"444 -6 LINE SMOOTH",
"586 -6 OFFCURVE",
"586 32 QCURVE SMOOTH",
"586 37 OFFCURVE",
"557 65 OFFCURVE",
"527 103 OFFCURVE",
"485 261 OFFCURVE",
"485 521 OFFCURVE",
"507 550 QCURVE SMOOTH",
"555 614 OFFCURVE",
"676 614 QCURVE SMOOTH",
"727 614 OFFCURVE",
"844 553 OFFCURVE",
"856 553 QCURVE SMOOTH",
"892 553 OFFCURVE",
"930 636 OFFCURVE",
"930 698 QCURVE SMOOTH",
"930 853 OFFCURVE",
"874 853 QCURVE SMOOTH",
"854 853 OFFCURVE",
"735 770 OFFCURVE",
"672 770 QCURVE SMOOTH",
"552 770 OFFCURVE",
"480 855 OFFCURVE",
"480 1142 OFFCURVE",
"560 1284 OFFCURVE",
"712 1284 QCURVE SMOOTH",
"945 1284 OFFCURVE",
"1036 1177 QCURVE",
"1064 1141 LINE SMOOTH",
"1084 1116 OFFCURVE",
"1088 1116 QCURVE SMOOTH",
"1126 1116 OFFCURVE",
"1126 1182 QCURVE SMOOTH"
);
}
);
width = 1194;
}
);
note = uni0046;
unicode = 0046;
},
{
color = 5;
glyphname = G;
layers = (
{
layerId = "92A672BF-229C-4BEC-8D25-4DDBB2A38145";
paths = (
{
closed = 1;
nodes = (
"972 -23 OFFCURVE",
"1275 46 OFFCURVE",
"1275 177 CURVE SMOOTH",
"1275 264 OFFCURVE",
"1287 397 OFFCURVE",
"1291 455 CURVE SMOOTH",
"1295 510 OFFCURVE",
"1350 532 OFFCURVE",
"1350 576 CURVE SMOOTH",
"1350 608 OFFCURVE",
"1285 625 OFFCURVE",
"1155 625 CURVE SMOOTH",
"1025 625 OFFCURVE",
"960 612 OFFCURVE",
"960 585 CURVE SMOOTH",
"960 537 OFFCURVE",
"1084 517 OFFCURVE",
"1084 421 CURVE SMOOTH",
"1084 180 OFFCURVE",
"1012 102 OFFCURVE",
"841 102 CURVE SMOOTH",
"503 102 OFFCURVE",
"330 340 OFFCURVE",
"330 683 CURVE SMOOTH",
"330 1008 OFFCURVE",
"486 1298 OFFCURVE",
"769 1298 CURVE SMOOTH",
"946 1298 OFFCURVE",
"1044 1263 OFFCURVE",
"1136 1129 CURVE SMOOTH",
"1173 1076 OFFCURVE",
"1211 1049 OFFCURVE",
"1229 1049 CURVE SMOOTH",
"1273 1049 OFFCURVE",
"1276 1089 OFFCURVE",
"1276 1168 CURVE SMOOTH",
"1276 1271 OFFCURVE",
"1248 1349 OFFCURVE",
"1212 1349 CURVE SMOOTH",
"1108 1349 OFFCURVE",
"896 1401 OFFCURVE",
"800 1401 CURVE SMOOTH",
"400 1401 OFFCURVE",
"109 1117 OFFCURVE",
"109 711 CURVE SMOOTH",
"109 279 OFFCURVE",
"351 -23 OFFCURVE",
"768 -23 CURVE SMOOTH"
);
}
);
width = 1471;
},
{
layerId = "5CBF0BAD-1756-4F16-9711-93DC239D102B";
paths = (
{
closed = 1;
nodes = (
"1035 -17 OFFCURVE",
"1271 28 OFFCURVE",
"1298 222 CURVE SMOOTH",
"1305.397 281.175 OFFCURVE",
"1311.853 386.119 OFFCURVE",
"1324 459 CURVE SMOOTH",
"1330.983 500.898 OFFCURVE",
"1377 544.854 OFFCURVE",
"1377 586 CURVE SMOOTH",
"1377 658 OFFCURVE",
"1240 662 OFFCURVE",
"1103 662 CURVE SMOOTH",
"978.333 662 OFFCURVE",
"916 642.333 OFFCURVE",
"916 603 CURVE SMOOTH",
"916 565 OFFCURVE",
"1008 490 OFFCURVE",
"1008 397 CURVE SMOOTH",
"1008 222 OFFCURVE",
"939 150 OFFCURVE",
"801 149 CURVE SMOOTH",
"569 149 OFFCURVE",
"389 371.333 OFFCURVE",
"389 706 CURVE SMOOTH",
"389 992 OFFCURVE",
"520 1234 OFFCURVE",
"775 1237 CURVE SMOOTH",
"897.667 1237 OFFCURVE",
"944.333 1215 OFFCURVE",
"1083 1111 CURVE SMOOTH",
"1152.333 1059 OFFCURVE",
"1196.333 1033 OFFCURVE",
"1215 1033 CURVE SMOOTH",
"1255 1033 OFFCURVE",
"1275 1084 OFFCURVE",
"1275 1186 CURVE SMOOTH",
"1275 1334 OFFCURVE",
"1190.833 1384 OFFCURVE",
"1059.5 1384 CURVE SMOOTH",
"974.799 1384 OFFCURVE",
"824.089 1402 OFFCURVE",
"785 1402 CURVE SMOOTH",
"381 1402 OFFCURVE",
"82 1107 OFFCURVE",
"82 708 CURVE SMOOTH",
"82 275 OFFCURVE",
"327 -17 OFFCURVE",
"744 -17 CURVE SMOOTH"
);
}
);
width = 1457;
},
{
layerId = "20E01B96-53C8-4C50-A66A-A7047371F4F1";
paths = (
{
closed = 1;
nodes = (
"627 149 OFFCURVE",
"389 455 OFFCURVE",
"389 706 QCURVE SMOOTH",
"389 1060 OFFCURVE",
"609 1192 QCURVE SMOOTH",
"683 1236 OFFCURVE",
"775 1237 QCURVE SMOOTH",
"867 1237 OFFCURVE",
"979 1189 OFFCURVE",
"1187 1033 OFFCURVE",
"1215 1033 QCURVE SMOOTH",
"1275 1033 OFFCURVE",
"1275 1186 QCURVE SMOOTH",
"1275 1297 OFFCURVE",
"1158 1384 OFFCURVE",
"961 1384 OFFCURVE",
"833 1402 OFFCURVE",
"785 1402 QCURVE SMOOTH",
"633 1402 OFFCURVE",
"513 1356 QCURVE SMOOTH",
"252 1257 OFFCURVE",
"138 982 QCURVE SMOOTH",
"82 848 OFFCURVE",
"82 708 QCURVE SMOOTH",
"82 666 LINE SMOOTH",
"82 519 OFFCURVE",
"130 390 QCURVE SMOOTH",
"223 141 OFFCURVE",
"474 37 QCURVE SMOOTH",
"604 -17 OFFCURVE",
"744 -17 QCURVE SMOOTH",
"784 -17 LINE SMOOTH",
"942 -17 OFFCURVE",
"1125 38 QCURVE SMOOTH",
"1212 64 OFFCURVE",
"1285 130 OFFCURVE",
"1298 222 QCURVE SMOOTH",
"1299 230 OFFCURVE",
"1320 435 OFFCURVE",
"1328 483 OFFCURVE",
"1377 561 OFFCURVE",
"1377 586 QCURVE SMOOTH",
"1377 630 OFFCURVE",
"1321 643 QCURVE SMOOTH",
"1241 662 OFFCURVE",
"1103 662 QCURVE SMOOTH",
"916 662 OFFCURVE",
"916 603 QCURVE SMOOTH",
"916 588 OFFCURVE",
"974 513 QCURVE SMOOTH",
"1008 470 OFFCURVE",
"1008 358 QCURVE SMOOTH",
"1008 150 OFFCURVE",
"801 149 QCURVE SMOOTH"
);
}
);
width = 1457;
},
{
layerId = "C2CE44A8-31E7-41E3-9ADA-B2F909F658BE";
paths = (
{
closed = 1;
nodes = (
"649 1401 OFFCURVE",
"517 1350 QCURVE SMOOTH",
"271 1256 OFFCURVE",
"164 990 QCURVE SMOOTH",
"109 854 OFFCURVE",
"109 716 QCURVE SMOOTH",
"109 713 OFFCURVE",
"109 711 QCURVE SMOOTH",
"109 669 LINE SMOOTH",
"109 524 OFFCURVE",
"161 385 QCURVE SMOOTH",
"259 125 OFFCURVE",
"514 26 QCURVE SMOOTH",
"640 -22 OFFCURVE",
"768 -23 QCURVE SMOOTH",
"896 -23 OFFCURVE",
"1208 69 OFFCURVE",
"1269 126 OFFCURVE",
"1279 254 OFFCURVE",
"1285 421 OFFCURVE",
"1297 488 OFFCURVE",
"1350 565 OFFCURVE",
"1350 576 QCURVE SMOOTH",
"1350 625 OFFCURVE",
"960 625 OFFCURVE",
"960 585 QCURVE SMOOTH",
"960 572 OFFCURVE",
"1034 524 OFFCURVE",
"1045 511 QCURVE SMOOTH",
"1084 467 OFFCURVE",
"1084 401 QCURVE SMOOTH",
"1084 228 OFFCURVE",
"969 102 OFFCURVE",
"713 102 OFFCURVE",
"553 165 OFFCURVE",
"409 317 OFFCURVE",
"330 558 OFFCURVE",
"330 683 QCURVE SMOOTH",
"330 1101 OFFCURVE",
"588 1248 QCURVE SMOOTH",
"674 1298 OFFCURVE",
"769 1298 QCURVE SMOOTH",
"934 1298 OFFCURVE",
"1037 1236 QCURVE SMOOTH",
"1081 1209 OFFCURVE",
"1191 1049 OFFCURVE",
"1210 1049 QCURVE SMOOTH",
"1276 1049 OFFCURVE",
"1276 1168 QCURVE SMOOTH",
"1276 1323 OFFCURVE",
"1212 1349 QCURVE SMOOTH",
"1197 1355 OFFCURVE",
"1149 1360 QCURVE SMOOTH",
"1115 1363 LINE",
"1079 1367 LINE SMOOTH",
"831 1401 OFFCURVE",
"800 1401 QCURVE SMOOTH"
);
}
);
width = 1471;
}
);
note = uni0047;
unicode = 0047;
},
{
color = 5;
glyphname = H;
layers = (
{
layerId = "92A672BF-229C-4BEC-8D25-4DDBB2A38145";
paths = (
{
closed = 1;
nodes = (
"502 -6 OFFCURVE",
"577 0 OFFCURVE",
"577 25 CURVE SMOOTH",
"577 58 OFFCURVE",
"503.408 114.417 OFFCURVE",
"491 146 CURVE SMOOTH",
"481 170 OFFCURVE",
"480 312 OFFCURVE",
"480 437 CURVE SMOOTH",
"480 532 OFFCURVE",
"496 616 OFFCURVE",
"510 631 CURVE SMOOTH",
"529 651 OFFCURVE",
"643.333 667 OFFCURVE",
"808 667 CURVE SMOOTH",
"972.667 667 OFFCURVE",
"1070 657.5 OFFCURVE",
"1100 638.5 CURVE SMOOTH",
"1130 619.5 OFFCURVE",
"1145 541 OFFCURVE",
"1145 402 CURVE SMOOTH",
"1145 173 OFFCURVE",
"1132 150 OFFCURVE",
"1109 131 CURVE SMOOTH",
"1087 112 OFFCURVE",
"1046 75 OFFCURVE",
"1046 38 CURVE SMOOTH",
"1046 10.667 OFFCURVE",
"1120.667 -3 OFFCURVE",
"1270 -3 CURVE SMOOTH",
"1419.333 -3 OFFCURVE",
"1494 11.333 OFFCURVE",
"1494 40 CURVE SMOOTH",
"1494 67 OFFCURVE",
"1408 97 OFFCURVE",
"1387 127 CURVE SMOOTH",
"1346 183 OFFCURVE",
"1356 253 OFFCURVE",
"1363 842 CURVE SMOOTH",
"1363 1072.667 OFFCURVE",
"1366 1198 OFFCURVE",
"1373 1219 CURVE SMOOTH",
"1389 1270 OFFCURVE",
"1500 1296 OFFCURVE",
"1500 1345 CURVE SMOOTH",
"1500 1371.667 OFFCURVE",
"1454 1385 OFFCURVE",
"1361 1385 CURVE SMOOTH",
"1141 1385 OFFCURVE",
"1031 1372.667 OFFCURVE",
"1031 1348 CURVE SMOOTH",
"1031 1329 OFFCURVE",
"1049 1312 OFFCURVE",
"1104 1258 CURVE SMOOTH",
"1143 1219 OFFCURVE",
"1138 1146 OFFCURVE",
"1135 1054 CURVE SMOOTH",
"1132 880 OFFCURVE",
"1126 823 OFFCURVE",
"1098.5 803 CURVE SMOOTH",
"1076.167 787 OFFCURVE",
"914 779 OFFCURVE",
"768 779 CURVE SMOOTH",
"661 779 OFFCURVE",
"541 792 OFFCURVE",
"519.5 806 CURVE SMOOTH",
"499 819 OFFCURVE",
"477 895 OFFCURVE",
"477 999 CURVE SMOOTH",
"477 1084 OFFCURVE",
"482 1192 OFFCURVE",
"486 1227 CURVE SMOOTH",
"492 1279 OFFCURVE",
"578 1303 OFFCURVE",
"578 1351 CURVE SMOOTH",
"578 1375 OFFCURVE",
"521.333 1387 OFFCURVE",
"408 1387 CURVE SMOOTH",
"212.667 1387 OFFCURVE",
"115 1372 OFFCURVE",
"115 1346 CURVE SMOOTH",
"115 1316 OFFCURVE",
"239 1287 OFFCURVE",
"249.5 1193.5 CURVE SMOOTH",
"255 1147 OFFCURVE",
"263 1024 OFFCURVE",
"263 675 CURVE SMOOTH",
"263 375.667 OFFCURVE",
"254 211 OFFCURVE",
"248 178.5 CURVE SMOOTH",
"235 111 OFFCURVE",
"112 91 OFFCURVE",
"112 45 CURVE SMOOTH",
"112 7 OFFCURVE",
"179 -5 OFFCURVE",
"340 -5 CURVE SMOOTH"
);
}
);
width = 1608;
},
{
layerId = "5CBF0BAD-1756-4F16-9711-93DC239D102B";
paths = (
{
closed = 1;
nodes = (
"526 0 OFFCURVE",
"633 20 OFFCURVE",
"633 63 CURVE SMOOTH",
"633 93 OFFCURVE",
"607 124 OFFCURVE",
"574 161 CURVE SMOOTH",
"535 205 OFFCURVE",
"512 261.333 OFFCURVE",
"512 440 CURVE SMOOTH",
"512 529.333 OFFCURVE",
"517.667 583.333 OFFCURVE",
"529 602 CURVE SMOOTH",
"545.667 628.667 OFFCURVE",
"602 642 OFFCURVE",
"794 642 CURVE SMOOTH",
"949 642 OFFCURVE",
"1030.167 632.167 OFFCURVE",
"1054.5 612.5 CURVE SMOOTH",
"1078.833 592.833 OFFCURVE",
"1091 542.333 OFFCURVE",
"1091 461 CURVE SMOOTH",
"1091 362 OFFCURVE",
"1079 255 OFFCURVE",
"1048 197 CURVE SMOOTH",
"1025 154 OFFCURVE",
"980 98 OFFCURVE",
"980 55 CURVE SMOOTH",
"980 -3 OFFCURVE",
"1050 -9 OFFCURVE",
"1283 -9 CURVE SMOOTH",
"1449 -9 OFFCURVE",
"1509 6 OFFCURVE",
"1509 35 CURVE SMOOTH",
"1509 89 OFFCURVE",
"1439 124 OFFCURVE",
"1405 153 CURVE SMOOTH",
"1377 177 OFFCURVE",
"1372 271 OFFCURVE",
"1376 776 CURVE SMOOTH",
"1378 999 OFFCURVE",
"1382 1125.667 OFFCURVE",
"1394 1157 CURVE SMOOTH",
"1408 1191 OFFCURVE",
"1507 1262 OFFCURVE",
"1507 1295 CURVE SMOOTH",
"1507 1389 OFFCURVE",
"1409 1380 OFFCURVE",
"1241 1380 CURVE SMOOTH",
"1016 1380 OFFCURVE",
"966 1361 OFFCURVE",
"966 1316 CURVE SMOOTH",
"966 1291 OFFCURVE",
"1043 1182 OFFCURVE",
"1060.5 1131.5 CURVE SMOOTH",
"1073 1096 OFFCURVE",
"1075 1038.167 OFFCURVE",
"1075 958.5 CURVE SMOOTH",
"1075 889 OFFCURVE",
"1071 840 OFFCURVE",
"1054 827 CURVE SMOOTH",
"1023 803 OFFCURVE",
"959 797 OFFCURVE",
"799.5 797 CURVE SMOOTH",
"658.5 797 OFFCURVE",
"580.667 802.667 OFFCURVE",
"566 814 CURVE SMOOTH",
"541.333 833.333 OFFCURVE",
"525 899 OFFCURVE",
"525 1031 CURVE SMOOTH",
"525 1102 OFFCURVE",
"540 1142.167 OFFCURVE",
"588 1241.5 CURVE SMOOTH",
"612 1291.167 OFFCURVE",
"624 1324 OFFCURVE",
"624 1340 CURVE SMOOTH",
"624 1374 OFFCURVE",
"581 1391 OFFCURVE",
"387 1391 CURVE SMOOTH",
"160 1391 OFFCURVE",
"81 1370 OFFCURVE",
"81 1341 CURVE SMOOTH",
"81 1262 OFFCURVE",
"196 1229 OFFCURVE",
"210.5 1172.5 CURVE SMOOTH",
"218 1143 OFFCURVE",
"224 985.5 OFFCURVE",
"224 698.5 CURVE SMOOTH",
"224 411.5 OFFCURVE",
"223 291 OFFCURVE",
"212 225 CURVE SMOOTH",
"202 167 OFFCURVE",
"99 119 OFFCURVE",
"99 81 CURVE SMOOTH",
"99 19 OFFCURVE",
"115 0 OFFCURVE",
"294 0 CURVE SMOOTH"
);
}
);
width = 1601;
},
{
layerId = "20E01B96-53C8-4C50-A66A-A7047371F4F1";
paths = (
{
closed = 1;
nodes = (
"1018 642 OFFCURVE",
"1091 583 OFFCURVE",
"1091 339 OFFCURVE",
"1064 226 OFFCURVE",
"980 84 OFFCURVE",
"980 48 QCURVE",
"992 26 LINE",
"1026 -7 OFFCURVE",
"1225 -7 QCURVE SMOOTH",
"1320 -8 LINE",
"1366 -9 LINE SMOOTH",
"1509 -9 OFFCURVE",
"1509 35 QCURVE SMOOTH",
"1509 87 OFFCURVE",
"1404 146 OFFCURVE",
"1395 163 QCURVE SMOOTH",
"1372 205 OFFCURVE",
"1372 388 QCURVE SMOOTH",
"1372 485 LINE",
"1373 533 LINE",
"1376 776 LINE SMOOTH",
"1376 1110 OFFCURVE",
"1394 1157 QCURVE SMOOTH",
"1402 1177 OFFCURVE",
"1507 1274 OFFCURVE",
"1507 1295 QCURVE SMOOTH",
"1507 1357 OFFCURVE",
"1451 1370 QCURVE SMOOTH",
"1408 1380 OFFCURVE",
"1074 1380 OFFCURVE",
"1036 1371 QCURVE SMOOTH",
"966 1354 OFFCURVE",
"966 1316 QCURVE SMOOTH",
"966 1303 OFFCURVE",
"1046 1185 OFFCURVE",
"1075 1078 OFFCURVE",
"1075 839 OFFCURVE",
"1011 797 OFFCURVE",
"588 797 OFFCURVE",
"566 814 QCURVE SMOOTH",
"529 843 OFFCURVE",
"529 921 QCURVE SMOOTH",
"529 1076 OFFCURVE",
"552 1167 OFFCURVE",
"624 1316 OFFCURVE",
"624 1340 QCURVE SMOOTH",
"624 1391 OFFCURVE",
"472 1391 QCURVE SMOOTH",
"145 1391 OFFCURVE",
"104 1369 QCURVE",
"81 1348 LINE",
"81 1289 OFFCURVE",
"128 1259 QCURVE SMOOTH",
"197 1216 OFFCURVE",
"224 1129 OFFCURVE",
"224 268 OFFCURVE",
"200 182 OFFCURVE",
"99 99 OFFCURVE",
"99 81 QCURVE SMOOTH",
"99 32 OFFCURVE",
"136 1 OFFCURVE",
"194 1 QCURVE SMOOTH",
"475 1 OFFCURVE",
"630 28 OFFCURVE",
"630 89 OFFCURVE",
"545 195 OFFCURVE",
"512 306 OFFCURVE",
"512 574 OFFCURVE",
"529 602 QCURVE SMOOTH",
"554 642 OFFCURVE",
"681 642 QCURVE SMOOTH"
);
}
);
width = 1601;
},
{
layerId = "C2CE44A8-31E7-41E3-9ADA-B2F909F658BE";
paths = (
{
closed = 1;
nodes = (
"1494 57 OFFCURVE",
"1400 109 OFFCURVE",
"1387 127 QCURVE SMOOTH",
"1356 169 OFFCURVE",
"1356 298 QCURVE SMOOTH",
"1363 842 LINE SMOOTH",
"1363 1188 OFFCURVE",
"1383 1250 OFFCURVE",
"1460 1295 QCURVE SMOOTH",
"1500 1318 OFFCURVE",
"1500 1345 QCURVE SMOOTH",
"1500 1385 OFFCURVE",
"1361 1385 QCURVE SMOOTH",
"1031 1385 OFFCURVE",
"1031 1348 QCURVE SMOOTH",
"1031 1332 OFFCURVE",
"1058 1304 QCURVE SMOOTH",
"1104 1258 LINE",
"1136 1216 OFFCURVE",
"1136 1085 OFFCURVE",
"1135 1054 QCURVE SMOOTH",
"1133 1007 LINE",
"1132 960 LINE SMOOTH",
"1132 827 OFFCURVE",
"1065 779 OFFCURVE",
"562 779 OFFCURVE",
"477 833 OFFCURVE",
"477 1196 OFFCURVE",
"495 1258 OFFCURVE",
"554 1306 QCURVE SMOOTH",
"578 1325 OFFCURVE",
"578 1351 QCURVE SMOOTH",
"578 1387 OFFCURVE",
"408 1387 QCURVE SMOOTH",
"115 1387 OFFCURVE",
"115 1346 QCURVE SMOOTH",
"115 1333 OFFCURVE",
"192 1288 QCURVE SMOOTH",
"236 1263 OFFCURVE",
"263 1124 OFFCURVE",
"263 226 OFFCURVE",
"233 131 OFFCURVE",
"112 69 OFFCURVE",
"112 45 QCURVE SMOOTH",
"112 -5 OFFCURVE",
"292 -5 QCURVE SMOOTH",
"340 -5 LINE",
"388 -6 LINE SMOOTH",
"577 -6 OFFCURVE",
"577 25 QCURVE SMOOTH",
"577 40 OFFCURVE",
"502 118 OFFCURVE",
"480 174 OFFCURVE",
"480 610 OFFCURVE",
"510 631 QCURVE SMOOTH",
"561 667 OFFCURVE",
"1055 667 OFFCURVE",
"1145 610 OFFCURVE",
"1145 194 OFFCURVE",
"1128 142 OFFCURVE",
"1068 85 QCURVE SMOOTH",
"1046 64 OFFCURVE",
"1046 38 QCURVE SMOOTH",
"1046 -3 OFFCURVE",
"1494 -3 OFFCURVE",
"1494 40 QCURVE SMOOTH"
);
}
);
width = 1608;
}
);
note = uni0048;
unicode = 0048;
},
{
color = 5;
glyphname = I;
layers = (
{
anchors = (
{
name = top;
position = "{344, 1388}";
}
);
layerId = "92A672BF-229C-4BEC-8D25-4DDBB2A38145";
paths = (
{
closed = 1;
nodes = (
"618 -5 OFFCURVE",
"645 4 OFFCURVE",
"645 38 CURVE SMOOTH",
"645 78 OFFCURVE",
"552 90 OFFCURVE",
"522 127 CURVE SMOOTH",
"506 147 OFFCURVE",
"494 303 OFFCURVE",
"494 710 CURVE SMOOTH",
"494 1142 OFFCURVE",
"494 1177 OFFCURVE",
"519 1243 CURVE SMOOTH",
"538 1293 OFFCURVE",
"633 1323 OFFCURVE",
"633 1354 CURVE SMOOTH",
"633 1382 OFFCURVE",
"611 1387 OFFCURVE",
"379 1387 CURVE SMOOTH",
"136 1387 OFFCURVE",
"112 1373.667 OFFCURVE",
"112 1347 CURVE SMOOTH",
"112 1317 OFFCURVE",
"197 1301 OFFCURVE",
"230 1267 CURVE SMOOTH",
"267 1228 OFFCURVE",
"275 1127 OFFCURVE",
"275 713 CURVE SMOOTH",
"275 317 OFFCURVE",
"270 213 OFFCURVE",
"248 151 CURVE SMOOTH",
"231 104 OFFCURVE",
"117 79 OFFCURVE",
"117 34 CURVE SMOOTH",
"117 4 OFFCURVE",
"189 -5 OFFCURVE",
"379 -5 CURVE SMOOTH"
);
}
);
width = 756;
},
{
anchors = (
{
name = top;
position = "{423, 1416}";
}
);
layerId = "5CBF0BAD-1756-4F16-9711-93DC239D102B";
paths = (
{
closed = 1;
nodes = (
"665 0 OFFCURVE",
"695 11 OFFCURVE",
"695 58 CURVE SMOOTH",
"695 97 OFFCURVE",
"575 160 OFFCURVE",
"558 228 CURVE SMOOTH",
"551 258 OFFCURVE",
"547 427 OFFCURVE",
"547 700 CURVE SMOOTH",
"547 1121 OFFCURVE",
"556 1177 OFFCURVE",
"593 1224 CURVE SMOOTH",
"620 1258 OFFCURVE",
"689 1311 OFFCURVE",
"689 1345 CURVE SMOOTH",
"689 1388 OFFCURVE",
"668 1394 OFFCURVE",
"421 1394 CURVE SMOOTH",
"120 1394 OFFCURVE",
"92 1382 OFFCURVE",
"92 1342 CURVE SMOOTH",
"92 1318 OFFCURVE",
"131 1284 OFFCURVE",
"183 1242 CURVE SMOOTH",
"254 1185 OFFCURVE",
"259 1146 OFFCURVE",
"259 704.5 CURVE SMOOTH",
"259 438 OFFCURVE",
"257 284 OFFCURVE",
"244 246 CURVE SMOOTH",
"215 160 OFFCURVE",
"97 108 OFFCURVE",
"97 58 CURVE SMOOTH",
"97 11 OFFCURVE",
"185 0 OFFCURVE",
"405 0 CURVE SMOOTH"
);
}
);
width = 791;
},
{
layerId = "20E01B96-53C8-4C50-A66A-A7047371F4F1";
paths = (
{
closed = 1;
nodes = (
"247 13 OFFCURVE",
"269 12 QCURVE SMOOTH",
"313 10 LINE",
"403 8 LINE",
"471 6 LINE",
"518 6 LINE",
"541 5 LINE",
"611 5 LINE SMOOTH",
"691 5 OFFCURVE",
"691 45 QCURVE SMOOTH",
"691 79 OFFCURVE",
"569 183 OFFCURVE",
"547 273 OFFCURVE",
"547 1093 OFFCURVE",
"575 1215 OFFCURVE",
"615 1248 QCURVE SMOOTH",
"689 1308 OFFCURVE",
"689 1334 QCURVE SMOOTH",
"689 1377 OFFCURVE",
"640 1394 OFFCURVE",
"526 1394 QCURVE SMOOTH",
"503 1394 LINE",
"480 1395 LINE",
"412 1395 LINE",
"344 1392 LINE",
"92 1392 OFFCURVE",
"92 1356 QCURVE SMOOTH",
"92 1342 LINE SMOOTH",
"92 1306 OFFCURVE",
"183 1242 QCURVE SMOOTH",
"233 1207 OFFCURVE",
"251 1136 QCURVE SMOOTH",
"259 1105 OFFCURVE",
"259 304 OFFCURVE",
"229 188 OFFCURVE",
"96 95 OFFCURVE",
"96 13 OFFCURVE",
"224 13 QCURVE SMOOTH"
);
}
);
width = 791;
},
{
layerId = "C2CE44A8-31E7-41E3-9ADA-B2F909F658BE";
paths = (
{
closed = 1;
nodes = (
"524 1389 LINE",
"395 1385 LINE",
"331 1385 LINE",
"309 1386 LINE",
"266 1387 LINE SMOOTH",
"112 1387 OFFCURVE",
"112 1347 QCURVE SMOOTH",
"112 1322 OFFCURVE",
"189 1295 QCURVE SMOOTH",
"232 1280 OFFCURVE",
"248 1240 QCURVE SMOOTH",
"275 1171 OFFCURVE",
"275 990 QCURVE SMOOTH",
"276 922 LINE",
"277 899 LINE",
"278 854 LINE SMOOTH",
"278 809 OFFCURVE",
"277 786 QCURVE SMOOTH",
"275 741 LINE",
"275 718 OFFCURVE",
"274 695 QCURVE SMOOTH",
"273 673 LINE",
"273 650 OFFCURVE",
"273 627 QCURVE SMOOTH",
"274 560 LINE",
"274 515 LINE SMOOTH",
"274 223 OFFCURVE",
"248 151 QCURVE SMOOTH",
"235 115 OFFCURVE",
"117 61 OFFCURVE",
"117 34 QCURVE SMOOTH",
"117 -1 OFFCURVE",
"290 -1 QCURVE SMOOTH",
"379 1 LINE SMOOTH",
"402 1 OFFCURVE",
"424 0 QCURVE SMOOTH",
"469 -2 LINE",
"492 -2 OFFCURVE",
"514 -3 QCURVE SMOOTH",
"537 -4 LINE",
"581 -4 LINE SMOOTH",
"645 -4 OFFCURVE",
"645 38 QCURVE SMOOTH",
"645 63 OFFCURVE",
"542 99 OFFCURVE",
"526 120 QCURVE SMOOTH",
"496 159 OFFCURVE",
"496 273 QCURVE SMOOTH",
"496 294 OFFCURVE",
"495 317 QCURVE SMOOTH",
"493 362 LINE",
"491 453 LINE",
"490 522 LINE",
"490 613 LINE",
"491 659 LINE",
"493 704 LINE",
"493 727 OFFCURVE",
"494 750 QCURVE SMOOTH",
"495 772 LINE",
"495 817 LINE",
"494 862 LINE",
"494 907 LINE SMOOTH",
"494 1196 OFFCURVE",
"526 1280 OFFCURVE",
"633 1332 OFFCURVE",
"633 1357 QCURVE SMOOTH",
"633 1389 OFFCURVE",
"568 1389 QCURVE SMOOTH"
);
}
);
width = 756;
}
);
note = uni0049;
unicode = 0049;
},
{
color = 5;
glyphname = Iacute;
layers = (
{
components = (
{
name = I;
},
{
name = acutecomb;
transform = "{1, 0, 0, 1, 346, 341}";
}
);
layerId = "92A672BF-229C-4BEC-8D25-4DDBB2A38145";
width = 756;
},
{
components = (
{
name = I;
},
{
name = acutecomb;
transform = "{1, 0, 0, 1, 422, 382}";
}
);
layerId = "5CBF0BAD-1756-4F16-9711-93DC239D102B";
width = 791;
},
{
layerId = "20E01B96-53C8-4C50-A66A-A7047371F4F1";
paths = (
{
closed = 1;
nodes = (
"381 1471 OFFCURVE",
"520 1572 QCURVE SMOOTH",
"711 1711 OFFCURVE",
"711 1770 QCURVE SMOOTH",
"711 1775 LINE SMOOTH",
"711 1789 OFFCURVE",
"694 1799 QCURVE SMOOTH",
"639 1832 OFFCURVE",
"583 1832 QCURVE SMOOTH",
"559 1832 LINE SMOOTH",
"494 1832 OFFCURVE",
"444 1776 QCURVE SMOOTH",
"268 1578 OFFCURVE",
"268 1513 QCURVE SMOOTH",
"268 1498 LINE SMOOTH",
"268 1471 OFFCURVE",
"312 1471 QCURVE SMOOTH",
"335 1471 LINE SMOOTH"
);
},
{
closed = 1;
nodes = (
"104 -18 OFFCURVE",
"189 -18 QCURVE SMOOTH",
"372 -18 LINE SMOOTH",
"633 -18 OFFCURVE",
"729 -6 OFFCURVE",
"729 66 OFFCURVE",
"646 128 QCURVE SMOOTH",
"593 168 OFFCURVE",
"565 276 OFFCURVE",
"565 1038 OFFCURVE",
"589 1145 OFFCURVE",
"722 1249 OFFCURVE",
"722 1324 OFFCURVE",
"682 1345 OFFCURVE",
"543 1345 QCURVE SMOOTH",
"431 1345 LINE SMOOTH",
"201 1345 OFFCURVE",
"139 1337 QCURVE SMOOTH",
"99 1332 OFFCURVE",
"99 1260 OFFCURVE",
"233 1159 OFFCURVE",
"259 1049 OFFCURVE",
"259 285 OFFCURVE",
"236 182 OFFCURVE",
"104 74 OFFCURVE",
"104 31 QCURVE SMOOTH"
);
}
);
width = 808;
},
{
layerId = "C2CE44A8-31E7-41E3-9ADA-B2F909F658BE";
paths = (
{
closed = 1;
nodes = (
"256 1477 OFFCURVE",
"284 1477 QCURVE SMOOTH",
"299 1477 LINE SMOOTH",
"332 1477 OFFCURVE",
"548 1628 QCURVE SMOOTH",
"656 1704 OFFCURVE",
"656 1741 QCURVE SMOOTH",
"656 1751 LINE SMOOTH",
"656 1778 OFFCURVE",
"602 1820 OFFCURVE",
"571 1820 QCURVE",
"566 1821 LINE",
"565 1821 LINE SMOOTH",
"479 1821 OFFCURVE",
"324 1622 QCURVE SMOOTH",
"256 1536 OFFCURVE",
"256 1522 QCURVE SMOOTH",
"256 1508 LINE SMOOTH"
);
},
{
closed = 1;
nodes = (
"480 1144 OFFCURVE",
"500 1222 QCURVE SMOOTH",
"512 1270 OFFCURVE",
"632 1324 OFFCURVE",
"632 1339 QCURVE SMOOTH",
"632 1388 OFFCURVE",
"557 1388 QCURVE SMOOTH",
"513 1388 LINE",
"381 1386 LINE SMOOTH",
"155 1386 OFFCURVE",
"142 1384 QCURVE SMOOTH",
"100 1377 OFFCURVE",
"100 1346 QCURVE SMOOTH",
"100 1325 OFFCURVE",
"178 1293 QCURVE SMOOTH",
"229 1272 OFFCURVE",
"256 1142 OFFCURVE",
"256 735 QCURVE SMOOTH",
"255 625 LINE",
"255 493 LINE",
"254 471 LINE",
"254 426 LINE",
"253 383 LINE",
"251 339 LINE",
"251 189 OFFCURVE",
"223 143 QCURVE SMOOTH",
"210 122 OFFCURVE",
"102 76 OFFCURVE",
"102 58 QCURVE SMOOTH",
"102 11 OFFCURVE",
"179 11 QCURVE SMOOTH",
"223 11 LINE",
"356 13 LINE",
"443 13 LINE",
"509 12 LINE",
"532 11 LINE",
"554 11 LINE SMOOTH",
"637 11 OFFCURVE",
"637 54 QCURVE SMOOTH",
"637 80 OFFCURVE",
"520 116 OFFCURVE",
"482 186 OFFCURVE",
"482 326 OFFCURVE",
"481 348 QCURVE SMOOTH",
"480 370 LINE",
"480 392 OFFCURVE",
"480 414 QCURVE",
"479 458 LINE",
"479 615 LINE",
"480 660 LINE SMOOTH",
"480 682 OFFCURVE",
"480 704 QCURVE SMOOTH"
);
}
);
width = 755;
}
);
unicode = 00CD;
},
{
color = 5;
glyphname = Icircumflex;
layers = (
{
components = (
{
name = I;
},
{
name = circumflexcomb;
transform = "{1, 0, 0, 1, 344, 285}";
}
);
layerId = "92A672BF-229C-4BEC-8D25-4DDBB2A38145";
width = 756;
},
{
components = (
{
name = I;
},
{
name = circumflexcomb;
transform = "{1, 0, 0, 1, 423, 351}";
}
);
layerId = "5CBF0BAD-1756-4F16-9711-93DC239D102B";
width = 791;
},
{
layerId = "20E01B96-53C8-4C50-A66A-A7047371F4F1";
paths = (
{
closed = 1;
nodes = (
"349 1815 OFFCURVE",
"309 1778 QCURVE SMOOTH",
"296 1766 OFFCURVE",
"263 1724 QCURVE SMOOTH",
"201 1648 LINE",
"196 1641 LINE",
"174 1615 LINE SMOOTH",
"155 1591 OFFCURVE",
"96 1522 OFFCURVE",
"96 1512 QCURVE SMOOTH",
"96 1505 LINE SMOOTH",
"96 1468 OFFCURVE",
"158 1468 QCURVE SMOOTH",
"166 1468 LINE SMOOTH",
"228 1468 OFFCURVE",
"401 1627 OFFCURVE",
"419 1627 OFFCURVE",
"465 1588 OFFCURVE",
"503 1556 QCURVE SMOOTH",
"603 1470 OFFCURVE",
"738 1470 OFFCURVE",
"738 1506 QCURVE SMOOTH",
"738 1513 LINE SMOOTH",
"738 1565 OFFCURVE",
"525 1778 QCURVE SMOOTH",
"489 1814 OFFCURVE",
"435 1814 QCURVE",
"426 1815 LINE",
"408 1815 LINE SMOOTH"
);
},
{
closed = 1;
nodes = (
"241 1156 OFFCURVE",
"257 1076 QCURVE SMOOTH",
"264 1041 OFFCURVE",
"264 285 OFFCURVE",
"241 185 OFFCURVE",
"109 72 OFFCURVE",
"109 31 QCURVE SMOOTH",
"109 -18 OFFCURVE",
"193 -18 QCURVE SMOOTH",
"376 -18 LINE SMOOTH",
"637 -18 OFFCURVE",
"733 -6 OFFCURVE",
"733 69 OFFCURVE",
"597 167 OFFCURVE",
"570 280 OFFCURVE",
"570 1039 OFFCURVE",
"594 1143 OFFCURVE",
"726 1251 OFFCURVE",
"726 1324 OFFCURVE",
"687 1345 OFFCURVE",
"570 1345 QCURVE SMOOTH",
"414 1345 LINE SMOOTH",
"103 1345 OFFCURVE",
"103 1260 OFFCURVE",
"185 1198 QCURVE SMOOTH"
);
}
);
width = 808;
},
{
layerId = "C2CE44A8-31E7-41E3-9ADA-B2F909F658BE";
paths = (
{
closed = 1;
nodes = (
"147 1498 OFFCURVE",
"363 1664 OFFCURVE",
"377 1664 OFFCURVE",
"592 1498 OFFCURVE",
"622 1498 QCURVE SMOOTH",
"630 1498 LINE SMOOTH",
"671 1498 OFFCURVE",
"671 1525 QCURVE SMOOTH",
"671 1541 OFFCURVE",
"416 1818 OFFCURVE",
"379 1818 QCURVE SMOOTH",
"364 1818 LINE SMOOTH",
"315 1818 OFFCURVE",
"206 1689 QCURVE SMOOTH",
"162 1637 OFFCURVE",
"68 1543 OFFCURVE",
"68 1528 QCURVE SMOOTH",
"68 1498 OFFCURVE",
"100 1498 QCURVE SMOOTH",
"114 1498 LINE SMOOTH"
);
},
{
closed = 1;
nodes = (
"636 1384 OFFCURVE",
"562 1384 QCURVE SMOOTH",
"494 1384 LINE",
"384 1382 LINE SMOOTH",
"155 1382 OFFCURVE",
"142 1380 QCURVE SMOOTH",
"99 1373 OFFCURVE",
"99 1341 QCURVE SMOOTH",
"99 1321 OFFCURVE",
"178 1288 QCURVE SMOOTH",
"225 1269 OFFCURVE",
"257 1164 OFFCURVE",
"257 725 QCURVE SMOOTH",
"257 480 LINE",
"256 435 LINE SMOOTH",
"256 413 OFFCURVE",
"256 391 QCURVE",
"254 347 LINE",
"254 170 OFFCURVE",
"227 126 QCURVE SMOOTH",
"213 102 OFFCURVE",
"102 58 OFFCURVE",
"102 -9 OFFCURVE",
"179 -9 QCURVE SMOOTH",
"246 -9 LINE",
"357 -7 LINE",
"445 -7 LINE",
"490 -8 LINE",
"512 -9 LINE",
"557 -9 LINE SMOOTH",
"641 -9 OFFCURVE",
"641 34 QCURVE SMOOTH",
"641 57 OFFCURVE",
"562 86 QCURVE SMOOTH",
"513 104 OFFCURVE",
"482 205 OFFCURVE",
"482 1139 OFFCURVE",
"514 1266 OFFCURVE",
"636 1318 OFFCURVE",
"636 1348 QCURVE SMOOTH"
);
}
);
width = 757;
}
);
unicode = 00CE;
},
{
color = 5;
glyphname = Idieresis;
layers = (
{
components = (
{
name = I;
},
{
name = dieresiscomb;
transform = "{1, 0, 0, 1, 335, 405}";
}
);
layerId = "92A672BF-229C-4BEC-8D25-4DDBB2A38145";
width = 756;
},
{
components = (
{
name = I;
},
{
name = dieresiscomb;
transform = "{1, 0, 0, 1, 418, 400}";
}
);
layerId = "5CBF0BAD-1756-4F16-9711-93DC239D102B";
width = 791;
},
{
layerId = "20E01B96-53C8-4C50-A66A-A7047371F4F1";
paths = (
{
closed = 1;
nodes = (
"355 1704 OFFCURVE",
"278 1768 OFFCURVE",
"228 1768 QCURVE SMOOTH",
"200 1768 LINE SMOOTH",
"142 1768 OFFCURVE",
"72 1687 OFFCURVE",
"72 1639 QCURVE SMOOTH",
"72 1620 LINE",
"75 1597 LINE",
"75 1555 OFFCURVE",
"149 1492 OFFCURVE",
"208 1492 QCURVE SMOOTH",
"218 1492 LINE SMOOTH",
"274 1492 OFFCURVE",
"355 1561 OFFCURVE",
"355 1621 QCURVE SMOOTH",
"355 1645 LINE SMOOTH"
);
},
{
closed = 1;
nodes = (
"571 1768 OFFCURVE",
"502 1687 OFFCURVE",
"502 1636 QCURVE SMOOTH",
"502 1622 LINE",
"505 1599 LINE",
"505 1549 OFFCURVE",
"585 1492 OFFCURVE",
"636 1492 QCURVE SMOOTH",
"646 1492 LINE",
"665 1494 LINE",
"670 1494 OFFCURVE",
"678 1496 QCURVE",
"720 1496 OFFCURVE",
"782 1568 OFFCURVE",
"782 1604 OFFCURVE",
"785 1619 QCURVE",
"785 1647 LINE SMOOTH",
"785 1697 OFFCURVE",
"717 1765 OFFCURVE",
"673 1765 OFFCURVE",
"661 1768 QCURVE",
"632 1768 LINE SMOOTH"
);
},
{
closed = 1;
nodes = (
"341 -14 LINE",
"387 -13 LINE SMOOTH",
"656 -13 OFFCURVE",
"744 -2 OFFCURVE",
"744 70 OFFCURVE",
"608 171 OFFCURVE",
"580 280 OFFCURVE",
"580 1043 OFFCURVE",
"589 1082 QCURVE SMOOTH",
"605 1152 OFFCURVE",
"737 1251 OFFCURVE",
"737 1329 OFFCURVE",
"699 1349 OFFCURVE",
"603 1349 QCURVE SMOOTH",
"401 1349 LINE SMOOTH",
"114 1349 OFFCURVE",
"114 1261 OFFCURVE",
"242 1172 OFFCURVE",
"274 1063 OFFCURVE",
"274 288 OFFCURVE",
"251 187 OFFCURVE",
"119 79 OFFCURVE",
"119 -14 OFFCURVE",
"226 -14 QCURVE SMOOTH"
);
}
);
width = 808;
},
{
layerId = "C2CE44A8-31E7-41E3-9ADA-B2F909F658BE";
paths = (
{
closed = 1;
nodes = (
"222 1527 OFFCURVE",
"284 1589 OFFCURVE",
"284 1635 QCURVE SMOOTH",
"284 1638 LINE",
"282 1657 LINE",
"282 1660 OFFCURVE",
"280 1668 QCURVE",
"280 1694 OFFCURVE",
"229 1745 OFFCURVE",
"209 1745 QCURVE",
"187 1749 LINE",
"158 1749 LINE SMOOTH",
"122 1749 OFFCURVE",
"60 1687 OFFCURVE",
"60 1645 QCURVE SMOOTH",
"60 1630 LINE SMOOTH",
"60 1586 OFFCURVE",
"119 1527 OFFCURVE",
"156 1527 QCURVE SMOOTH",
"182 1527 LINE SMOOTH"
);
},
{
closed = 1;
nodes = (
"565 1527 LINE",
"587 1530 LINE",
"614 1530 OFFCURVE",
"669 1585 OFFCURVE",
"669 1607 QCURVE",
"673 1632 LINE",
"673 1647 LINE SMOOTH",
"673 1690 OFFCURVE",
"613 1750 OFFCURVE",
"568 1750 QCURVE SMOOTH",
"557 1750 LINE",
"528 1745 LINE",
"506 1745 OFFCURVE",
"453 1692 OFFCURVE",
"453 1670 QCURVE",
"449 1645 LINE",
"449 1630 LINE SMOOTH",
"449 1587 OFFCURVE",
"509 1527 OFFCURVE",
"550 1527 QCURVE SMOOTH"
);
},
{
closed = 1;
nodes = (
"484 1381 LINE",
"377 1379 LINE SMOOTH",
"155 1379 OFFCURVE",
"143 1377 QCURVE SMOOTH",
"104 1371 OFFCURVE",
"104 1338 QCURVE SMOOTH",
"104 1314 OFFCURVE",
"185 1284 QCURVE SMOOTH",
"236 1265 OFFCURVE",
"260 1148 OFFCURVE",
"260 744 QCURVE SMOOTH",
"260 476 LINE",
"258 409 LINE SMOOTH",
"258 387 OFFCURVE",
"258 365 QCURVE",
"256 320 LINE",
"256 162 OFFCURVE",
"232 122 QCURVE SMOOTH",
"220 103 OFFCURVE",
"109 54 OFFCURVE",
"109 -12 OFFCURVE",
"182 -12 QCURVE SMOOTH",
"247 -12 LINE",
"354 -10 LINE",
"440 -10 LINE",
"483 -11 LINE",
"505 -12 LINE",
"548 -12 LINE SMOOTH",
"628 -12 OFFCURVE",
"628 31 QCURVE SMOOTH",
"628 53 OFFCURVE",
"545 83 QCURVE SMOOTH",
"493 102 OFFCURVE",
"469 218 OFFCURVE",
"469 1122 OFFCURVE",
"494 1261 OFFCURVE",
"620 1313 OFFCURVE",
"620 1381 OFFCURVE",
"549 1381 QCURVE SMOOTH"
);
}
);
width = 753;
}
);
unicode = 00CF;
},
{
color = 5;
glyphname = Igrave;
layers = (
{
components = (
{
name = I;
},
{
name = gravecomb;
transform = "{1, 0, 0, 1, 344, 381}";
}
);
layerId = "92A672BF-229C-4BEC-8D25-4DDBB2A38145";
width = 756;
},
{
components = (
{
name = I;
},
{
name = gravecomb;
transform = "{1, 0, 0, 1, 423, 409}";
}
);
layerId = "5CBF0BAD-1756-4F16-9711-93DC239D102B";
width = 791;
},
{
layerId = "20E01B96-53C8-4C50-A66A-A7047371F4F1";
paths = (
{
closed = 1;
nodes = (
"558 1524 OFFCURVE",
"516 1584 OFFCURVE",
"498 1613 OFFCURVE",
"490 1624 OFFCURVE",
"442 1691 OFFCURVE",
"394 1767 OFFCURVE",
"379 1784 QCURVE SMOOTH",
"335 1833 OFFCURVE",
"269 1833 QCURVE SMOOTH",
"251 1833 LINE SMOOTH",
"194 1833 OFFCURVE",
"118 1787 OFFCURVE",
"118 1778 QCURVE SMOOTH",
"118 1763 LINE SMOOTH",
"118 1703 OFFCURVE",
"375 1516 QCURVE SMOOTH",
"437 1471 OFFCURVE",
"492 1471 QCURVE",
"498 1470 LINE",
"509 1470 LINE SMOOTH",
"558 1470 OFFCURVE",
"558 1498 QCURVE SMOOTH",
"558 1513 LINE SMOOTH"
);
},
{
closed = 1;
nodes = (
"108 -18 OFFCURVE",
"193 -18 QCURVE SMOOTH",
"376 -18 LINE SMOOTH",
"637 -18 OFFCURVE",
"732 -6 OFFCURVE",
"732 66 OFFCURVE",
"595 169 OFFCURVE",
"569 280 OFFCURVE",
"569 1039 OFFCURVE",
"594 1145 OFFCURVE",
"726 1249 OFFCURVE",
"726 1324 OFFCURVE",
"686 1345 OFFCURVE",
"569 1345 QCURVE SMOOTH",
"413 1345 LINE SMOOTH",
"103 1345 OFFCURVE",
"103 1261 OFFCURVE",
"237 1156 OFFCURVE",
"263 1049 OFFCURVE",
"263 285 OFFCURVE",
"240 182 OFFCURVE",
"108 74 OFFCURVE",
"108 31 QCURVE SMOOTH"
);
}
);
width = 808;
},
{
layerId = "C2CE44A8-31E7-41E3-9ADA-B2F909F658BE";
paths = (
{
closed = 1;
nodes = (
"78 1713 OFFCURVE",
"180 1645 QCURVE SMOOTH",
"399 1499 OFFCURVE",
"445 1499 QCURVE SMOOTH",
"460 1499 LINE SMOOTH",
"490 1499 OFFCURVE",
"490 1524 QCURVE SMOOTH",
"490 1539 LINE SMOOTH",
"490 1588 OFFCURVE",
"296 1760 QCURVE SMOOTH",
"225 1823 OFFCURVE",
"180 1823 QCURVE SMOOTH",
"164 1823 LINE SMOOTH",
"129 1823 OFFCURVE",
"78 1783 OFFCURVE",
"78 1764 QCURVE SMOOTH",
"78 1749 LINE SMOOTH"
);
},
{
closed = 1;
nodes = (
"625 1383 OFFCURVE",
"575 1383 QCURVE SMOOTH",
"489 1383 LINE",
"403 1382 LINE SMOOTH",
"167 1382 OFFCURVE",
"148 1379 QCURVE SMOOTH",
"108 1373 OFFCURVE",
"108 1340 QCURVE SMOOTH",
"108 1317 OFFCURVE",
"190 1287 QCURVE SMOOTH",
"241 1268 OFFCURVE",
"265 1150 OFFCURVE",
"265 221 OFFCURVE",
"237 107 OFFCURVE",
"113 57 OFFCURVE",
"113 -10 OFFCURVE",
"186 -10 QCURVE SMOOTH",
"230 -10 LINE",
"316 -8 LINE",
"444 -8 LINE",
"509 -9 LINE",
"531 -10 LINE",
"553 -10 LINE SMOOTH",
"632 -10 OFFCURVE",
"632 33 QCURVE SMOOTH",
"632 55 OFFCURVE",
"550 85 QCURVE SMOOTH",
"501 103 OFFCURVE",
"474 201 OFFCURVE",
"474 1151 OFFCURVE",
"502 1262 OFFCURVE",
"625 1318 OFFCURVE",
"625 1348 QCURVE SMOOTH"
);
}
);
width = 755;
}
);
unicode = 00CC;
},
{
color = 5;
glyphname = J;
layers = (
{
layerId = "92A672BF-229C-4BEC-8D25-4DDBB2A38145";
paths = (
{
closed = 1;
nodes = (
"445 -236 OFFCURVE",
"577 45 OFFCURVE",
"577 461 CURVE SMOOTH",
"577 1009 OFFCURVE",
"584 1223 OFFCURVE",
"591 1248 CURVE SMOOTH",
"606 1303 OFFCURVE",
"688 1316 OFFCURVE",
"688 1354 CURVE SMOOTH",
"688 1384 OFFCURVE",
"664 1393 OFFCURVE",
"601 1393 CURVE SMOOTH",
"343.667 1393 OFFCURVE",
"215 1378 OFFCURVE",
"215 1348 CURVE SMOOTH",
"215 1309 OFFCURVE",
"321 1273 OFFCURVE",
"341 1226 CURVE SMOOTH",
"364 1172 OFFCURVE",
"374 1062 OFFCURVE",
"374 654 CURVE SMOOTH",
"374 58 OFFCURVE",
"314 -114 OFFCURVE",
"119 -61 CURVE SMOOTH",
"56 -44 OFFCURVE",
"-10 -103.333 OFFCURVE",
"-10 -158 CURVE SMOOTH",
"-10 -210 OFFCURVE",
"45 -236 OFFCURVE",
"154 -236 CURVE SMOOTH"
);
}
);
width = 811;
},
{
layerId = "5CBF0BAD-1756-4F16-9711-93DC239D102B";
paths = (
{
closed = 1;
nodes = (
"615 -244 OFFCURVE",
"664 113 OFFCURVE",
"661 844 CURVE SMOOTH",
"660 968 OFFCURVE",
"664 1057 OFFCURVE",
"674 1110.5 CURVE SMOOTH",
"688 1187 OFFCURVE",
"765 1312 OFFCURVE",
"765 1347 CURVE SMOOTH",
"765 1377 OFFCURVE",
"715 1396 OFFCURVE",
"615 1394 CURVE SMOOTH",
"229 1386 OFFCURVE",
"205 1377 OFFCURVE",
"205 1333 CURVE SMOOTH",
"205 1302 OFFCURVE",
"254 1261 OFFCURVE",
"311 1194 CURVE SMOOTH",
"358 1139 OFFCURVE",
"370 1070 OFFCURVE",
"352 404 CURVE SMOOTH",
"346 171 OFFCURVE",
"311 25 OFFCURVE",
"162 1 CURVE SMOOTH",
"62 -15 OFFCURVE",
"11 -58.667 OFFCURVE",
"11 -130 CURVE SMOOTH",
"11 -217 OFFCURVE",
"61 -244 OFFCURVE",
"192 -244 CURVE SMOOTH"
);
}
);
width = 859;
},
{
layerId = "20E01B96-53C8-4C50-A66A-A7047371F4F1";
paths = (
{
closed = 1;
nodes = (
"205 1325 OFFCURVE",
"243 1298 QCURVE",
"254 1287 OFFCURVE",
"277 1254 QCURVE",
"313 1207 LINE SMOOTH",
"335 1178 OFFCURVE",
"344 1157 QCURVE SMOOTH",
"374 1086 OFFCURVE",
"374 948 QCURVE",
"352 404 LINE",
"352 172 OFFCURVE",
"295 82 QCURVE SMOOTH",
"267 38 OFFCURVE",
"225 11 OFFCURVE",
"162 1 QCURVE SMOOTH",
"11 -23 OFFCURVE",
"11 -130 QCURVE SMOOTH",
"11 -192 OFFCURVE",
"89 -244 OFFCURVE",
"168 -244 QCURVE SMOOTH",
"192 -244 LINE SMOOTH",
"281 -244 OFFCURVE",
"377 -197 QCURVE SMOOTH",
"658 -59 OFFCURVE",
"658 385 QCURVE SMOOTH",
"658 412 OFFCURVE",
"659 438 QCURVE SMOOTH",
"660 464 LINE",
"660 503 OFFCURVE",
"660 542 QCURVE SMOOTH",
"661 621 LINE",
"661 844 LINE SMOOTH",
"661 1030 OFFCURVE",
"687 1191 OFFCURVE",
"765 1311 OFFCURVE",
"765 1347 QCURVE SMOOTH",
"765 1394 OFFCURVE",
"666 1394 QCURVE SMOOTH",
"615 1394 LINE SMOOTH",
"422 1394 OFFCURVE",
"286 1377 QCURVE SMOOTH",
"205 1367 OFFCURVE",
"205 1333 QCURVE SMOOTH"
);
}
);
width = 859;
},
{
layerId = "C2CE44A8-31E7-41E3-9ADA-B2F909F658BE";
paths = (
{
closed = 1;
nodes = (
"59 -61 OFFCURVE",
"-10 -117 OFFCURVE",
"-10 -158 QCURVE SMOOTH",
"-10 -236 OFFCURVE",
"154 -236 QCURVE SMOOTH",
"238 -236 OFFCURVE",
"328 -184 QCURVE SMOOTH",
"523 -71 OFFCURVE",
"560 186 QCURVE SMOOTH",
"577 304 OFFCURVE",
"577 551 QCURVE SMOOTH",
"582 962 LINE SMOOTH",
"582 1218 OFFCURVE",
"600 1275 OFFCURVE",
"688 1337 OFFCURVE",
"688 1352 QCURVE SMOOTH",
"688 1393 OFFCURVE",
"625 1393 QCURVE SMOOTH",
"601 1393 LINE SMOOTH",
"215 1393 OFFCURVE",
"215 1348 QCURVE SMOOTH",
"215 1324 OFFCURVE",
"328 1256 OFFCURVE",
"341 1226 QCURVE SMOOTH",
"368 1162 OFFCURVE",
"368 932 QCURVE SMOOTH",
"372 781 LINE",
"374 654 LINE SMOOTH",
"374 -74 OFFCURVE",
"207 -74 QCURVE",
"119 -61 LINE"
);
}
);
width = 811;
}
);
note = uni004A;
unicode = 004A;
},
{
color = 5;
glyphname = K;
layers = (
{
layerId = "92A672BF-229C-4BEC-8D25-4DDBB2A38145";
paths = (
{
closed = 1;
nodes = (
"1315.333 -1 OFFCURVE",
"1375 13.667 OFFCURVE",
"1375 43 CURVE SMOOTH",
"1375 69 OFFCURVE",
"1248 134 OFFCURVE",
"1140 278 CURVE SMOOTH",
"910 585 OFFCURVE",
"785 743 OFFCURVE",
"785 777 CURVE SMOOTH",
"785 819 OFFCURVE",
"847 909 OFFCURVE",
"930 1012 CURVE SMOOTH",
"1111 1237 OFFCURVE",
"1294 1324 OFFCURVE",
"1294 1358 CURVE SMOOTH",
"1294 1387 OFFCURVE",
"1239 1396 OFFCURVE",
"1125 1396 CURVE SMOOTH",
"985 1396 OFFCURVE",
"956 1375 OFFCURVE",
"956 1341 CURVE SMOOTH",
"956 1314 OFFCURVE",
"962 1305 OFFCURVE",
"962 1284 CURVE SMOOTH",
"962 1241 OFFCURVE",
"917 1154 OFFCURVE",
"873 1098 CURVE SMOOTH",
"794 996 OFFCURVE",
"597 768 OFFCURVE",
"537 768 CURVE SMOOTH",
"505.667 768 OFFCURVE",
"490 798 OFFCURVE",
"490 858 CURVE SMOOTH",
"490 1032 OFFCURVE",
"494 1128 OFFCURVE",
"500 1175 CURVE SMOOTH",
"516 1294 OFFCURVE",
"574 1327 OFFCURVE",
"574 1349 CURVE SMOOTH",
"574 1380 OFFCURVE",
"542 1396 OFFCURVE",
"408 1396 CURVE SMOOTH",
"174 1396 OFFCURVE",
"122 1387 OFFCURVE",
"122 1344 CURVE SMOOTH",
"122 1317 OFFCURVE",
"211 1278 OFFCURVE",
"224 1248 CURVE SMOOTH",
"252 1185 OFFCURVE",
"261 1132 OFFCURVE",
"261 695 CURVE SMOOTH",
"261 417.667 OFFCURVE",
"253 231 OFFCURVE",
"240 182 CURVE SMOOTH",
"221 108 OFFCURVE",
"122 78 OFFCURVE",
"122 37 CURVE SMOOTH",
"122 14 OFFCURVE",
"178.333 0 OFFCURVE",
"291 0 CURVE SMOOTH",
"483 0 OFFCURVE",
"579 17 OFFCURVE",
"579 43 CURVE SMOOTH",
"579 82 OFFCURVE",
"503 134 OFFCURVE",
"493 197.5 CURVE SMOOTH",
"487 234 OFFCURVE",
"482 304.333 OFFCURVE",
"482 409 CURVE SMOOTH",
"482 559.667 OFFCURVE",
"511 635 OFFCURVE",
"569 635 CURVE SMOOTH",
"627 635 OFFCURVE",
"733 516.333 OFFCURVE",
"887 279 CURVE SMOOTH",
"897 263 OFFCURVE",
"1003 59 OFFCURVE",
"1019 43 CURVE SMOOTH",
"1056 6 OFFCURVE",
"1096 -1 OFFCURVE",
"1196 -1 CURVE SMOOTH"
);
}
);
width = 1442;
},
{
layerId = "5CBF0BAD-1756-4F16-9711-93DC239D102B";
paths = (
{
closed = 1;
nodes = (
"1369 0 OFFCURVE",
"1427 14 OFFCURVE",
"1427 60 CURVE SMOOTH",
"1427 84 OFFCURVE",
"1374.667 113.667 OFFCURVE",
"1270 215 CURVE SMOOTH",
"1207.333 275 OFFCURVE",
"835 744 OFFCURVE",
"835 773 CURVE SMOOTH",
"835 809.667 OFFCURVE",
"942 967 OFFCURVE",
"1135 1133 CURVE SMOOTH",
"1266 1246 OFFCURVE",
"1369 1318 OFFCURVE",
"1369 1354 CURVE SMOOTH",
"1369 1387 OFFCURVE",
"1322 1411 OFFCURVE",
"1214 1411 CURVE SMOOTH",
"1103 1411 OFFCURVE",
"921 1411 OFFCURVE",
"921 1340 CURVE SMOOTH",
"921 1308 OFFCURVE",
"955 1256 OFFCURVE",
"955 1225 CURVE SMOOTH",
"955 1191.667 OFFCURVE",
"907.333 1124.333 OFFCURVE",
"812 1023 CURVE SMOOTH",
"656.667 857.667 OFFCURVE",
"563 775 OFFCURVE",
"531 775 CURVE SMOOTH",
"512 775 OFFCURVE",
"510 871 OFFCURVE",
"513 967 CURVE SMOOTH",
"515 1023 OFFCURVE",
"524 1132 OFFCURVE",
"526 1162 CURVE SMOOTH",
"530 1234 OFFCURVE",
"629 1298 OFFCURVE",
"629 1340 CURVE SMOOTH",
"629 1380 OFFCURVE",
"540 1400 OFFCURVE",
"463 1402 CURVE SMOOTH",
"189 1409 OFFCURVE",
"101 1394 OFFCURVE",
"101 1352 CURVE SMOOTH",
"101 1302 OFFCURVE",
"201 1208 OFFCURVE",
"217.5 1139 CURVE SMOOTH",
"225.833 1103.667 OFFCURVE",
"230 956.333 OFFCURVE",
"230 697 CURVE SMOOTH",
"230 437.667 OFFCURVE",
"225 289 OFFCURVE",
"219 249.5 CURVE SMOOTH",
"210 185 OFFCURVE",
"105 102 OFFCURVE",
"105 61 CURVE SMOOTH",
"105 18 OFFCURVE",
"199 1 OFFCURVE",
"290 1 CURVE SMOOTH",
"548 0 OFFCURVE",
"607 17 OFFCURVE",
"606 74 CURVE SMOOTH",
"605 112 OFFCURVE",
"563 202 OFFCURVE",
"548 239 CURVE SMOOTH",
"531 282 OFFCURVE",
"513 344 OFFCURVE",
"513 400 CURVE SMOOTH",
"513 514 OFFCURVE",
"533 588 OFFCURVE",
"595 588 CURVE SMOOTH",
"688.333 588 OFFCURVE",
"819.667 395.333 OFFCURVE",
"901 222 CURVE SMOOTH",
"941.667 135.333 OFFCURVE",
"968.667 84 OFFCURVE",
"982 68 CURVE SMOOTH",
"1020 21.333 OFFCURVE",
"1064 -2 OFFCURVE",
"1114 -2 CURVE SMOOTH"
);
}
);
width = 1488;
},
{
layerId = "20E01B96-53C8-4C50-A66A-A7047371F4F1";
paths = (
{
closed = 1;
nodes = (
"101 1342 OFFCURVE",
"205 1192 OFFCURVE",
"230 1086 OFFCURVE",
"230 308 OFFCURVE",
"208 191 OFFCURVE",
"105 67 OFFCURVE",
"105 61 QCURVE SMOOTH",
"105 24 OFFCURVE",
"163 10 QCURVE SMOOTH",
"200 1 OFFCURVE",
"290 1 QCURVE SMOOTH",
"548 1 OFFCURVE",
"596 36 QCURVE",
"606 48 LINE",
"606 78 OFFCURVE",
"587 123 QCURVE SMOOTH",
"513 301 OFFCURVE",
"513 499 OFFCURVE",
"560 588 OFFCURVE",
"595 588 QCURVE SMOOTH",
"665 588 OFFCURVE",
"840 352 OFFCURVE",
"962 92 OFFCURVE",
"982 68 QCURVE SMOOTH",
"1039 -2 OFFCURVE",
"1114 -2 QCURVE SMOOTH",
"1158 -2 LINE SMOOTH",
"1296 -2 OFFCURVE",
"1427 21 OFFCURVE",
"1427 60 QCURVE SMOOTH",
"1427 63 OFFCURVE",
"1270 215 QCURVE SMOOTH",
"1223 260 OFFCURVE",
"835 766 OFFCURVE",
"835 773 QCURVE SMOOTH",
"835 828 OFFCURVE",
"910 908 QCURVE SMOOTH",
"1122 1134 OFFCURVE",
"1165 1171 QCURVE SMOOTH",
"1362 1342 LINE",
"1362 1374 OFFCURVE",
"1257 1399 OFFCURVE",
"1000 1399 OFFCURVE",
"970 1391 QCURVE SMOOTH",
"921 1378 OFFCURVE",
"921 1340 QCURVE SMOOTH",
"921 1321 OFFCURVE",
"955 1243 OFFCURVE",
"955 1225 QCURVE SMOOTH",
"955 1175 OFFCURVE",
"812 1023 QCURVE SMOOTH",
"579 775 OFFCURVE",
"531 775 QCURVE SMOOTH",
"508 775 OFFCURVE",
"508 1093 OFFCURVE",
"544 1231 OFFCURVE",
"629 1316 OFFCURVE",
"629 1350 QCURVE",
"613 1374 LINE",
"584 1402 OFFCURVE",
"462 1402 QCURVE SMOOTH",
"420 1402 LINE SMOOTH",
"101 1402 OFFCURVE",
"101 1370 QCURVE SMOOTH",
"101 1345 LINE SMOOTH"
);
}
);
width = 1488;
},
{
layerId = "C2CE44A8-31E7-41E3-9ADA-B2F909F658BE";
paths = (
{
closed = 1;
nodes = (
"482 635 OFFCURVE",
"656 635 OFFCURVE",
"887 279 QCURVE SMOOTH",
"957 171 OFFCURVE",
"1004 58 OFFCURVE",
"1019 43 QCURVE SMOOTH",
"1063 -1 OFFCURVE",
"1152 -1 QCURVE SMOOTH",
"1196 -1 LINE SMOOTH",
"1375 -1 OFFCURVE",
"1375 43 QCURVE SMOOTH",
"1375 50 OFFCURVE",
"1260 146 QCURVE SMOOTH",
"1215 184 OFFCURVE",
"1140 278 QCURVE SMOOTH",
"785 726 OFFCURVE",
"785 777 QCURVE SMOOTH",
"785 850 OFFCURVE",
"1078 1182 OFFCURVE",
"1150 1236 QCURVE SMOOTH",
"1294 1345 OFFCURVE",
"1294 1358 QCURVE SMOOTH",
"1294 1391 OFFCURVE",
"1022 1391 OFFCURVE",
"956 1371 OFFCURVE",
"956 1341 QCURVE",
"962 1292 LINE",
"962 1212 OFFCURVE",
"873 1098 QCURVE SMOOTH",
"714 894 OFFCURVE",
"597 805 QCURVE SMOOTH",
"548 768 OFFCURVE",
"537 768 QCURVE SMOOTH",
"490 768 OFFCURVE",
"490 858 QCURVE SMOOTH",
"490 1119 OFFCURVE",
"513 1260 OFFCURVE",
"574 1341 OFFCURVE",
"574 1349 QCURVE SMOOTH",
"574 1396 OFFCURVE",
"448 1396 QCURVE SMOOTH",
"266 1396 LINE SMOOTH",
"122 1396 OFFCURVE",
"122 1344 QCURVE SMOOTH",
"122 1339 OFFCURVE",
"194 1283 QCURVE SMOOTH",
"234 1252 OFFCURVE",
"261 1111 OFFCURVE",
"261 279 OFFCURVE",
"229 133 OFFCURVE",
"122 61 OFFCURVE",
"122 37 QCURVE SMOOTH",
"122 0 OFFCURVE",
"291 0 QCURVE SMOOTH",
"579 0 OFFCURVE",
"579 43 QCURVE SMOOTH",
"579 71 OFFCURVE",
"504 143 OFFCURVE",
"482 252 OFFCURVE",
"482 409 QCURVE SMOOTH"
);
}
);
width = 1442;
}
);
note = uni004B;
unicode = 004B;
},
{
color = 5;
glyphname = L;
layers = (
{
layerId = "92A672BF-229C-4BEC-8D25-4DDBB2A38145";
paths = (
{
closed = 1;
nodes = (
"947 -2 OFFCURVE",
"1076 1 OFFCURVE",
"1106 27 CURVE SMOOTH",
"1144 59 OFFCURVE",
"1163 147 OFFCURVE",
"1163 291 CURVE SMOOTH",
"1163 332.333 OFFCURVE",
"1150.667 353 OFFCURVE",
"1126 353 CURVE SMOOTH",
"1106 353 OFFCURVE",
"963 165 OFFCURVE",
"931.5 148 CURVE SMOOTH",
"897 129 OFFCURVE",
"822 122 OFFCURVE",
"742 120 CURVE SMOOTH",
"633 117 OFFCURVE",
"516 130 OFFCURVE",
"496 165 CURVE SMOOTH",
"484 185.667 OFFCURVE",
"478 347.667 OFFCURVE",
"478 651 CURVE SMOOTH",
"478 954.333 OFFCURVE",
"485 1183 OFFCURVE",
"510 1237 CURVE SMOOTH",
"535 1291 OFFCURVE",
"632 1309 OFFCURVE",
"632 1346 CURVE SMOOTH",
"632 1378 OFFCURVE",
"593 1388 OFFCURVE",
"376 1393 CURVE SMOOTH",
"181 1397 OFFCURVE",
"112 1401 OFFCURVE",
"114 1354 CURVE SMOOTH",
"117 1308 OFFCURVE",
"221 1308 OFFCURVE",
"245 1256 CURVE SMOOTH",
"268 1205 OFFCURVE",
"260 1112 OFFCURVE",
"256 583 CURVE SMOOTH",
"256 361.667 OFFCURVE",
"249 230 OFFCURVE",
"238 189 CURVE SMOOTH",
"221 127 OFFCURVE",
"115 68 OFFCURVE",
"115 39 CURVE SMOOTH",
"115 14 OFFCURVE",
"275 -1 OFFCURVE",
"595 -1 CURVE SMOOTH"
);
}
);
width = 1213;
},
{
layerId = "5CBF0BAD-1756-4F16-9711-93DC239D102B";
paths = (
{
closed = 1;
nodes = (
"997 0 OFFCURVE",
"1094 0 OFFCURVE",
"1124 28 CURVE SMOOTH",
"1143 45 OFFCURVE",
"1186 199 OFFCURVE",
"1186 299 CURVE SMOOTH",
"1186 355 OFFCURVE",
"1181 379 OFFCURVE",
"1143 379 CURVE SMOOTH",
"1060 379 OFFCURVE",
"979 240 OFFCURVE",
"863.5 176 CURVE SMOOTH",
"818 151 OFFCURVE",
"754 142 OFFCURVE",
"656 142 CURVE SMOOTH",
"568 142 OFFCURVE",
"538.167 188.333 OFFCURVE",
"530.5 217 CURVE SMOOTH",
"522.833 245.667 OFFCURVE",
"519 396.833 OFFCURVE",
"519 670.5 CURVE SMOOTH",
"519 944.167 OFFCURVE",
"526 1097 OFFCURVE",
"530.5 1129 CURVE SMOOTH",
"544 1222 OFFCURVE",
"665 1277 OFFCURVE",
"665 1340 CURVE SMOOTH",
"665 1378 OFFCURVE",
"623 1389 OFFCURVE",
"538 1389 CURVE SMOOTH",
"129 1389 OFFCURVE",
"78 1374 OFFCURVE",
"78 1333 CURVE SMOOTH",
"78 1277 OFFCURVE",
"179 1239 OFFCURVE",
"205 1193 CURVE SMOOTH",
"233 1143 OFFCURVE",
"238 894 OFFCURVE",
"236 688 CURVE SMOOTH",
"235 505 OFFCURVE",
"225 276 OFFCURVE",
"213 219 CURVE SMOOTH",
"204 176 OFFCURVE",
"98 106 OFFCURVE",
"98 58 CURVE SMOOTH",
"98 7 OFFCURVE",
"119 -2 OFFCURVE",
"437 -1 CURVE SMOOTH"
);
}
);
width = 1230;
},
{
layerId = "20E01B96-53C8-4C50-A66A-A7047371F4F1";
paths = (
{
closed = 1;
nodes = (
"665 1366 OFFCURVE",
"616 1389 OFFCURVE",
"538 1389 QCURVE SMOOTH",
"273 1389 LINE SMOOTH",
"78 1389 OFFCURVE",
"78 1348 QCURVE SMOOTH",
"78 1297 OFFCURVE",
"208 1215 OFFCURVE",
"232 1135 OFFCURVE",
"232 307 OFFCURVE",
"224 273 QCURVE SMOOTH",
"204 188 OFFCURVE",
"98 82 OFFCURVE",
"98 58 QCURVE SMOOTH",
"98 13 OFFCURVE",
"146 4 QCURVE SMOOTH",
"174 -1 OFFCURVE",
"437 -1 QCURVE SMOOTH",
"974 -1 LINE SMOOTH",
"1093 -1 OFFCURVE",
"1124 28 QCURVE SMOOTH",
"1138 41 OFFCURVE",
"1186 224 OFFCURVE",
"1186 299 QCURVE SMOOTH",
"1186 325 LINE SMOOTH",
"1186 379 OFFCURVE",
"1143 379 QCURVE SMOOTH",
"1087 379 OFFCURVE",
"931 209 OFFCURVE",
"796 143 OFFCURVE",
"616 143 OFFCURVE",
"542 174 OFFCURVE",
"519 260 OFFCURVE",
"519 1081 OFFCURVE",
"542 1177 OFFCURVE",
"665 1316 OFFCURVE",
"665 1329 QCURVE SMOOTH"
);
}
);
width = 1230;
},
{
layerId = "C2CE44A8-31E7-41E3-9ADA-B2F909F658BE";
paths = (
{
closed = 1;
nodes = (
"256 583 LINE SMOOTH",
"256 251 OFFCURVE",
"220 127 OFFCURVE",
"115 65 OFFCURVE",
"115 39 QCURVE SMOOTH",
"115 -1 OFFCURVE",
"595 -1 QCURVE SMOOTH",
"654 -1 LINE",
"684 -2 LINE",
"773 -2 LINE SMOOTH",
"1072 -2 OFFCURVE",
"1106 27 QCURVE SMOOTH",
"1163 75 OFFCURVE",
"1163 291 QCURVE SMOOTH",
"1163 353 OFFCURVE",
"1126 353 QCURVE SMOOTH",
"1103 353 OFFCURVE",
"990 176 OFFCURVE",
"873 120 OFFCURVE",
"522 120 OFFCURVE",
"496 165 QCURVE SMOOTH",
"478 196 OFFCURVE",
"478 1106 OFFCURVE",
"501 1214 QCURVE SMOOTH",
"512 1267 OFFCURVE",
"632 1326 OFFCURVE",
"632 1346 QCURVE SMOOTH",
"632 1376 OFFCURVE",
"558 1393 OFFCURVE",
"376 1393 QCURVE SMOOTH",
"287 1394 LINE",
"257 1395 LINE",
"198 1395 LINE SMOOTH",
"115 1395 OFFCURVE",
"115 1326 OFFCURVE",
"230 1289 OFFCURVE",
"260 1223 OFFCURVE",
"260 1004 QCURVE SMOOTH"
);
}
);
width = 1213;
}
);
note = uni004C;
unicode = 004C;
},
{
color = 5;
glyphname = Lslash;
layers = (
{
layerId = "92A672BF-229C-4BEC-8D25-4DDBB2A38145";
paths = (
{
closed = 1;
nodes = (
"926 5 LINE SMOOTH",
"1140.667 5 OFFCURVE",
"1187 61 OFFCURVE",
"1187 269 CURVE SMOOTH",
"1187 322 OFFCURVE",
"1176 347 OFFCURVE",
"1155 345 CURVE SMOOTH",
"1135 343 OFFCURVE",
"1106 316 OFFCURVE",
"1071 266.5 CURVE SMOOTH",
"996.333 161.833 OFFCURVE",
"937.5 104 OFFCURVE",
"739.5 104 CURVE SMOOTH",
"541.5 104 OFFCURVE",
"492 146.833 OFFCURVE",
"492 363.5 CURVE SMOOTH",
"492 439 OFFCURVE",
"505 559 OFFCURVE",
"552 608 CURVE SMOOTH",
"640 700 OFFCURVE",
"807 798 OFFCURVE",
"807 857 CURVE SMOOTH",
"807 879 OFFCURVE",
"795 886 OFFCURVE",
"775 884 CURVE SMOOTH",
"720 879 OFFCURVE",
"607 814 OFFCURVE",
"552 814 CURVE SMOOTH",
"513 814 OFFCURVE",
"498 903 OFFCURVE",
"497 994 CURVE SMOOTH",
"495 1064 OFFCURVE",
"503 1136 OFFCURVE",
"511.5 1169.5 CURVE SMOOTH",
"525 1220 OFFCURVE",
"618 1295 OFFCURVE",
"618 1326 CURVE SMOOTH",
"618 1370 OFFCURVE",
"533 1372 OFFCURVE",
"257 1372 CURVE SMOOTH",
"178.333 1372 OFFCURVE",
"139 1356.333 OFFCURVE",
"139 1325 CURVE SMOOTH",
"139 1295 OFFCURVE",
"234 1254 OFFCURVE",
"256.5 1195 CURVE SMOOTH",
"267 1168 OFFCURVE",
"271 1094.333 OFFCURVE",
"271 975 CURVE SMOOTH",
"271 855.667 OFFCURVE",
"265 779 OFFCURVE",
"257 742.5 CURVE SMOOTH",
"237 651 OFFCURVE",
"135 595 OFFCURVE",
"135 546 CURVE SMOOTH",
"135 499 OFFCURVE",
"224 505 OFFCURVE",
"247 476 CURVE SMOOTH",
"263 454 OFFCURVE",
"270 396 OFFCURVE",
"270 335 CURVE SMOOTH",
"271 274 OFFCURVE",
"264 211 OFFCURVE",
"252 177.5 CURVE SMOOTH",
"229 112 OFFCURVE",
"135 55 OFFCURVE",
"135 31 CURVE SMOOTH",
"135 9 OFFCURVE",
"175 -2 OFFCURVE",
"255 -2 CURVE SMOOTH"
);
}
);
width = 1252;
},
{
layerId = "5CBF0BAD-1756-4F16-9711-93DC239D102B";
paths = (
{
closed = 1;
nodes = (
"961 0 LINE SMOOTH",
"1136 0 OFFCURVE",
"1175 32 OFFCURVE",
"1175 287 CURVE SMOOTH",
"1175 341 OFFCURVE",
"1172 364 OFFCURVE",
"1139 364 CURVE SMOOTH",
"1066 364 OFFCURVE",
"968 227 OFFCURVE",
"911 189 CURVE SMOOTH",
"854 151 OFFCURVE",
"799 132 OFFCURVE",
"746 132 CURVE SMOOTH",
"582 132 OFFCURVE",
"509 188.667 OFFCURVE",
"509 354 CURVE SMOOTH",
"509 607 OFFCURVE",
"555.167 658 OFFCURVE",
"694.5 762 CURVE SMOOTH",
"764.167 814 OFFCURVE",
"799 852.333 OFFCURVE",
"799 877 CURVE SMOOTH",
"799 927 OFFCURVE",
"783 948 OFFCURVE",
"753 947 CURVE SMOOTH",
"695 945 OFFCURVE",
"602 859 OFFCURVE",
"552 859 CURVE SMOOTH",
"525.333 859 OFFCURVE",
"512 890.167 OFFCURVE",
"512 952.5 CURVE SMOOTH",
"512 1015 OFFCURVE",
"520 1076 OFFCURVE",
"550 1125 CURVE SMOOTH",
"593 1195 OFFCURVE",
"644 1238 OFFCURVE",
"644 1259 CURVE SMOOTH",
"644 1298 OFFCURVE",
"591 1317 OFFCURVE",
"486 1317 CURVE SMOOTH",
"137 1317 OFFCURVE",
"110 1310 OFFCURVE",
"110 1273 CURVE SMOOTH",
"110 1230.278 OFFCURVE",
"223.501 1174.33 OFFCURVE",
"245.5 1121 CURVE SMOOTH",
"256 1096 OFFCURVE",
"262 1001 OFFCURVE",
"263 919 CURVE SMOOTH",
"265 790 OFFCURVE",
"255 710 OFFCURVE",
"241 692 CURVE SMOOTH",
"166 598 OFFCURVE",
"111 525 OFFCURVE",
"111 476 CURVE SMOOTH",
"111 444 OFFCURVE",
"137 429 OFFCURVE",
"202 429 CURVE SMOOTH",
"248 429 OFFCURVE",
"263 405 OFFCURVE",
"263 330 CURVE SMOOTH",
"263 279 OFFCURVE",
"256 221 OFFCURVE",
"236 190 CURVE SMOOTH",
"169 87 OFFCURVE",
"104 64 OFFCURVE",
"104 30 CURVE SMOOTH",
"104 10 OFFCURVE",
"136.667 0 OFFCURVE",
"202 0 CURVE SMOOTH"
);
}
);
width = 1253;
},
{
layerId = "20E01B96-53C8-4C50-A66A-A7047371F4F1";
paths = (
{
closed = 1;
nodes = (
"553 1131 OFFCURVE",
"609 1214 QCURVE",
"623 1232 LINE",
"637 1245 LINE",
"644 1259 LINE",
"644 1317 OFFCURVE",
"486 1317 QCURVE SMOOTH",
"256 1317 LINE SMOOTH",
"110 1317 OFFCURVE",
"110 1273 QCURVE SMOOTH",
"110 1242 OFFCURVE",
"229 1161 OFFCURVE",
"262 1081 OFFCURVE",
"262 747 OFFCURVE",
"250 697 OFFCURVE",
"112 523 OFFCURVE",
"112 434 OFFCURVE",
"233 434 OFFCURVE",
"240 429 QCURVE SMOOTH",
"261 414 OFFCURVE",
"261 239 OFFCURVE",
"211 141 OFFCURVE",
"104 39 OFFCURVE",
"104 30 QCURVE SMOOTH",
"104 0 OFFCURVE",
"202 0 QCURVE SMOOTH",
"716 1 LINE",
"752 0 LINE",
"961 0 LINE SMOOTH",
"1092 0 OFFCURVE",
"1175 96 OFFCURVE",
"1175 287 QCURVE SMOOTH",
"1175 314 LINE SMOOTH",
"1175 364 OFFCURVE",
"1139 364 QCURVE SMOOTH",
"1098 364 OFFCURVE",
"1013 289 QCURVE",
"954 225 LINE",
"932 203 OFFCURVE",
"911 189 QCURVE SMOOTH",
"825 132 OFFCURVE",
"746 132 QCURVE SMOOTH",
"623 132 OFFCURVE",
"509 230 OFFCURVE",
"509 354 QCURVE SMOOTH",
"509 555 OFFCURVE",
"590 684 OFFCURVE",
"799 840 OFFCURVE",
"799 877 QCURVE SMOOTH",
"799 947 OFFCURVE",
"720 947 OFFCURVE",
"579 859 OFFCURVE",
"552 859 QCURVE SMOOTH",
"512 859 OFFCURVE",
"512 1046 OFFCURVE",
"550 1125 QCURVE SMOOTH"
);
}
);
width = 1253;
},
{
layerId = "C2CE44A8-31E7-41E3-9ADA-B2F909F658BE";
paths = (
{
closed = 1;
nodes = (
"618 1372 OFFCURVE",
"435 1372 QCURVE SMOOTH",
"257 1372 LINE SMOOTH",
"139 1372 OFFCURVE",
"139 1325 QCURVE SMOOTH",
"139 1307 OFFCURVE",
"242 1236 OFFCURVE",
"271 1154 OFFCURVE",
"271 796 OFFCURVE",
"243 689 OFFCURVE",
"135 567 OFFCURVE",
"135 546 QCURVE SMOOTH",
"135 517 OFFCURVE",
"240 485 OFFCURVE",
"247 476 QCURVE",
"270 444 OFFCURVE",
"270 227 OFFCURVE",
"234 128 OFFCURVE",
"135 44 OFFCURVE",
"135 31 QCURVE SMOOTH",
"135 -2 OFFCURVE",
"255 -2 QCURVE SMOOTH",
"326 0 LINE",
"856 3 LINE",
"926 5 LINE SMOOTH",
"1087 5 OFFCURVE",
"1187 113 OFFCURVE",
"1187 269 QCURVE SMOOTH",
"1187 345 OFFCURVE",
"1127 345 OFFCURVE",
"1015 188 OFFCURVE",
"888 104 OFFCURVE",
"591 104 OFFCURVE",
"492 201 OFFCURVE",
"492 526 OFFCURVE",
"588 667 OFFCURVE",
"807 808 OFFCURVE",
"807 867 QCURVE SMOOTH",
"807 885 OFFCURVE",
"749 885 OFFCURVE",
"578 814 OFFCURVE",
"552 814 QCURVE SMOOTH",
"498 814 OFFCURVE",
"498 1121 OFFCURVE",
"525 1218 OFFCURVE",
"618 1302 OFFCURVE",
"618 1326 QCURVE SMOOTH"
);
}
);
width = 1252;
}
);
note = uni0141;
unicode = 0141;
},
{
color = 5;
glyphname = M;
layers = (
{
layerId = "92A672BF-229C-4BEC-8D25-4DDBB2A38145";
paths = (
{
closed = 1;
nodes = (
"368 6 OFFCURVE",
"439 34 OFFCURVE",
"439 58 CURVE SMOOTH",
"439 106 OFFCURVE",
"422 129 OFFCURVE",
"403 216 CURVE SMOOTH",
"383 303 OFFCURVE",
"378 354.333 OFFCURVE",
"378 417 CURVE SMOOTH",
"378 836 OFFCURVE",
"399 1065 OFFCURVE",
"422 1067 CURVE SMOOTH",
"442 1069 OFFCURVE",
"509.833 927.833 OFFCURVE",
"623.5 649.5 CURVE SMOOTH",
"766 301 OFFCURVE",
"842 81 OFFCURVE",
"903 81 CURVE SMOOTH",
"961 81 OFFCURVE",
"985 136 OFFCURVE",
"1222 693 CURVE SMOOTH",
"1334.667 947.667 OFFCURVE",
"1389 1075 OFFCURVE",
"1404 1075 CURVE SMOOTH",
"1419 1075 OFFCURVE",
"1444 899 OFFCURVE",
"1448 644 CURVE SMOOTH",
"1449 571 OFFCURVE",
"1449 467 OFFCURVE",
"1449 369 CURVE SMOOTH",
"1449 228 OFFCURVE",
"1400 158 OFFCURVE",
"1396 100 CURVE SMOOTH",
"1390 10 OFFCURVE",
"1456 16 OFFCURVE",
"1567 17 CURVE SMOOTH",
"1687 18 OFFCURVE",
"1784 24 OFFCURVE",
"1784 55 CURVE SMOOTH",
"1784 79 OFFCURVE",
"1680 131 OFFCURVE",
"1663 216 CURVE SMOOTH",
"1640 330 OFFCURVE",
"1630 408 OFFCURVE",
"1630 865 CURVE SMOOTH",
"1630 1124 OFFCURVE",
"1638 1195 OFFCURVE",
"1659 1230 CURVE SMOOTH",
"1677 1260 OFFCURVE",
"1736 1289 OFFCURVE",
"1736 1326 CURVE SMOOTH",
"1736 1360 OFFCURVE",
"1695.667 1377 OFFCURVE",
"1615 1377 CURVE SMOOTH",
"1487 1377 OFFCURVE",
"1435 1365 OFFCURVE",
"1377 1270 CURVE SMOOTH",
"1354.333 1232.667 OFFCURVE",
"962 403 OFFCURVE",
"936 403 CURVE SMOOTH",
"907 403 OFFCURVE",
"686 982 OFFCURVE",
"558.5 1218 CURVE SMOOTH",
"495 1335 OFFCURVE",
"445 1374 OFFCURVE",
"320 1374 CURVE SMOOTH",
"213.333 1374 OFFCURVE",
"160 1361 OFFCURVE",
"160 1335 CURVE SMOOTH",
"160 1319 OFFCURVE",
"248 1236 OFFCURVE",
"262 1207 CURVE SMOOTH",
"279.333 1170.333 OFFCURVE",
"288 1089 OFFCURVE",
"288 879 CURVE SMOOTH",
"288 824 OFFCURVE",
"267 383 OFFCURVE",
"242 220 CURVE SMOOTH",
"229 136 OFFCURVE",
"118 106 OFFCURVE",
"118 69 CURVE SMOOTH",
"118 24 OFFCURVE",
"200 6 OFFCURVE",
"283 6 CURVE SMOOTH"
);
}
);
width = 1902;
},
{
layerId = "5CBF0BAD-1756-4F16-9711-93DC239D102B";
paths = (
{
closed = 1;
nodes = (
"389 21 OFFCURVE",
"462 42 OFFCURVE",
"462 74 CURVE SMOOTH",
"462 113 OFFCURVE",
"454 167 OFFCURVE",
"450 230 CURVE SMOOTH",
"441 358 OFFCURVE",
"428 523 OFFCURVE",
"428 674 CURVE SMOOTH",
"428 857.333 OFFCURVE",
"438.167 949 OFFCURVE",
"458.5 949 CURVE SMOOTH",
"478.833 949 OFFCURVE",
"570 741 OFFCURVE",
"666 500 CURVE SMOOTH",
"824 101 OFFCURVE",
"854 59 OFFCURVE",
"917.5 59 CURVE SMOOTH",
"979 59 OFFCURVE",
"1017 83 OFFCURVE",
"1228 625 CURVE SMOOTH",
"1315 848 OFFCURVE",
"1361.667 959 OFFCURVE",
"1379 959 CURVE SMOOTH",
"1401 959 OFFCURVE",
"1388 716 OFFCURVE",
"1401 607 CURVE SMOOTH",
"1414 499 OFFCURVE",
"1416 375 OFFCURVE",
"1416 318.5 CURVE SMOOTH",
"1416 230 OFFCURVE",
"1371 174 OFFCURVE",
"1372 115 CURVE SMOOTH",
"1373 38 OFFCURVE",
"1548 30 OFFCURVE",
"1705 30 CURVE SMOOTH",
"1785 30 OFFCURVE",
"1825 49 OFFCURVE",
"1825 87 CURVE SMOOTH",
"1825 116 OFFCURVE",
"1750 143 OFFCURVE",
"1715.5 207.5 CURVE SMOOTH",
"1685 264 OFFCURVE",
"1703 512 OFFCURVE",
"1697 660 CURVE SMOOTH",
"1679 1016 OFFCURVE",
"1677 1097 OFFCURVE",
"1707 1174 CURVE SMOOTH",
"1725 1222 OFFCURVE",
"1793 1262 OFFCURVE",
"1793 1321 CURVE SMOOTH",
"1793 1347 OFFCURVE",
"1719 1368 OFFCURVE",
"1574.5 1368 CURVE SMOOTH",
"1344 1368 OFFCURVE",
"1285 1222 OFFCURVE",
"1148.5 890 CURVE SMOOTH",
"1049 649 OFFCURVE",
"997 537 OFFCURVE",
"956 537 CURVE SMOOTH",
"925 537 OFFCURVE",
"790 841.333 OFFCURVE",
"726 1008 CURVE SMOOTH",
"609 1312 OFFCURVE",
"505 1381 OFFCURVE",
"249 1381 CURVE SMOOTH",
"179 1381 OFFCURVE",
"140 1363 OFFCURVE",
"140 1326 CURVE SMOOTH",
"140 1289 OFFCURVE",
"228.36 1149.814 OFFCURVE",
"241.5 1092 CURVE SMOOTH",
"264 995 OFFCURVE",
"252 800 OFFCURVE",
"240 569 CURVE SMOOTH",
"234 352 OFFCURVE",
"223 271 OFFCURVE",
"219 241.5 CURVE SMOOTH",
"213 195 OFFCURVE",
"127 115 OFFCURVE",
"127 68 CURVE SMOOTH",
"127 36.667 OFFCURVE",
"189.333 21 OFFCURVE",
"314 21 CURVE SMOOTH"
);
}
);
width = 1928;
},
{
layerId = "20E01B96-53C8-4C50-A66A-A7047371F4F1";
paths = (
{
closed = 1;
nodes = (
"1313 1243 OFFCURVE",
"984 537 OFFCURVE",
"956 537 QCURVE",
"930 570 LINE",
"882 649 OFFCURVE",
"748 950 OFFCURVE",
"678 1133 OFFCURVE",
"644 1194 QCURVE",
"616 1240 LINE",
"572 1304 OFFCURVE",
"402 1381 OFFCURVE",
"303 1381 QCURVE SMOOTH",
"249 1381 LINE SMOOTH",
"203 1381 OFFCURVE",
"161 1350 QCURVE",
"140 1326 LINE",
"140 1294 OFFCURVE",
"229 1147 OFFCURVE",
"254 1037 OFFCURVE",
"254 849 OFFCURVE",
"240 569 QCURVE SMOOTH",
"236 509 LINE",
"234 450 LINE SMOOTH",
"234 289 OFFCURVE",
"204 194 OFFCURVE",
"127 88 OFFCURVE",
"127 68 QCURVE SMOOTH",
"127 21 OFFCURVE",
"314 21 QCURVE SMOOTH",
"394 21 OFFCURVE",
"440 54 QCURVE",
"457 74 LINE",
"457 125 OFFCURVE",
"454 156 QCURVE SMOOTH",
"449 196 LINE",
"445 244 LINE",
"445 295 OFFCURVE",
"441 346 QCURVE SMOOTH",
"433 451 LINE SMOOTH",
"428 543 OFFCURVE",
"428 674 QCURVE SMOOTH",
"428 949 OFFCURVE",
"489 949 OFFCURVE",
"631 591 QCURVE SMOOTH",
"720 366 LINE SMOOTH",
"775 225 OFFCURVE",
"786 197 QCURVE SMOOTH",
"809 142 LINE",
"850 59 OFFCURVE",
"985 59 OFFCURVE",
"1055 197 QCURVE SMOOTH",
"1103 291 OFFCURVE",
"1353 959 OFFCURVE",
"1379 959 QCURVE SMOOTH",
"1389 959 OFFCURVE",
"1389 701 OFFCURVE",
"1416 377 OFFCURVE",
"1416 260 OFFCURVE",
"1379 143 QCURVE",
"1372 115 LINE",
"1372 68 OFFCURVE",
"1441 52 QCURVE SMOOTH",
"1538 30 OFFCURVE",
"1705 30 QCURVE SMOOTH",
"1825 30 OFFCURVE",
"1825 87 QCURVE",
"1768 137 LINE SMOOTH",
"1729 170 OFFCURVE",
"1702 245 OFFCURVE",
"1702 541 OFFCURVE",
"1697 660 QCURVE SMOOTH",
"1687 837 LINE SMOOTH",
"1684 908 OFFCURVE",
"1684 1116 OFFCURVE",
"1707 1174 QCURVE SMOOTH",
"1713 1190 OFFCURVE",
"1793 1285 OFFCURVE",
"1793 1321 QCURVE",
"1766 1346 LINE",
"1726 1368 OFFCURVE",
"1423 1368 OFFCURVE",
"1348 1283 QCURVE SMOOTH"
);
}
);
width = 1928;
},
{
layerId = "C2CE44A8-31E7-41E3-9ADA-B2F909F658BE";
paths = (
{
closed = 1;
nodes = (
"910 437 LINE",
"886 490 LINE SMOOTH",
"867 534 OFFCURVE",
"599 1161 OFFCURVE",
"497 1315 OFFCURVE",
"472 1334 QCURVE SMOOTH",
"419 1374 OFFCURVE",
"320 1374 QCURVE SMOOTH",
"160 1374 OFFCURVE",
"160 1335 QCURVE SMOOTH",
"160 1323 OFFCURVE",
"251 1230 OFFCURVE",
"262 1207 QCURVE SMOOTH",
"288 1152 OFFCURVE",
"288 852 OFFCURVE",
"268 544 QCURVE SMOOTH",
"261 423 LINE SMOOTH",
"256 342 OFFCURVE",
"253 304 QCURVE SMOOTH",
"247 247 LINE",
"235 168 OFFCURVE",
"118 77 OFFCURVE",
"118 69 QCURVE SMOOTH",
"118 38 OFFCURVE",
"193 15 OFFCURVE",
"387 15 OFFCURVE",
"422 43 QCURVE",
"437 61 LINE",
"437 63 OFFCURVE",
"378 323 OFFCURVE",
"378 417 QCURVE SMOOTH",
"378 978 OFFCURVE",
"410 1053 QCURVE",
"422 1067 LINE",
"453 1067 OFFCURVE",
"794 232 OFFCURVE",
"810 198 QCURVE SMOOTH",
"866 81 OFFCURVE",
"903 81 QCURVE SMOOTH",
"948 81 OFFCURVE",
"1001 185 QCURVE SMOOTH",
"1027 240 LINE SMOOTH",
"1041 270 OFFCURVE",
"1075 352 QCURVE SMOOTH",
"1222 693 LINE SMOOTH",
"1391 1075 OFFCURVE",
"1404 1075 QCURVE",
"1415 1065 LINE",
"1449 977 OFFCURVE",
"1449 389 QCURVE SMOOTH",
"1449 283 OFFCURVE",
"1409 143 OFFCURVE",
"1396 100 QCURVE SMOOTH",
"1388 73 LINE",
"1396 52 LINE",
"1425 17 OFFCURVE",
"1709 17 OFFCURVE",
"1763 41 QCURVE",
"1784 55 LINE",
"1784 61 OFFCURVE",
"1708 129 QCURVE SMOOTH",
"1674 160 OFFCURVE",
"1663 216 QCURVE SMOOTH",
"1630 386 OFFCURVE",
"1630 1071 QCURVE SMOOTH",
"1630 1175 OFFCURVE",
"1659 1230 QCURVE SMOOTH",
"1669 1248 OFFCURVE",
"1714 1299 QCURVE",
"1736 1326 LINE",
"1736 1377 OFFCURVE",
"1494 1377 OFFCURVE",
"1411 1326 OFFCURVE",
"1343 1214 OFFCURVE",
"959 403 OFFCURVE",
"936 403 QCURVE"
);
}
);
width = 1902;
}
);
note = uni004D;
unicode = 004D;
},
{
color = 5;
glyphname = N;
layers = (
{
anchors = (
{
name = top;
position = "{772, 1405}";
}
);
layerId = "92A672BF-229C-4BEC-8D25-4DDBB2A38145";
paths = (
{
closed = 1;
nodes = (
"447 0 OFFCURVE",
"492 19 OFFCURVE",
"492 56 CURVE SMOOTH",
"492 81 OFFCURVE",
"428 134 OFFCURVE",
"413 190 CURVE SMOOTH",
"391 271 OFFCURVE",
"383 510 OFFCURVE",
"383 710 CURVE SMOOTH",
"383 904 OFFCURVE",
"389.667 1101 OFFCURVE",
"403 1101 CURVE SMOOTH",
"427.667 1101 OFFCURVE",
"544.167 952.833 OFFCURVE",
"752.5 656.5 CURVE SMOOTH",
"960.833 360.167 OFFCURVE",
"1080.667 192.667 OFFCURVE",
"1112 154 CURVE SMOOTH",
"1184 64.667 OFFCURVE",
"1242 16 OFFCURVE",
"1283 16 CURVE SMOOTH",
"1337 16 OFFCURVE",
"1347 44 OFFCURVE",
"1349 267 CURVE SMOOTH",
"1352 710 LINE SMOOTH",
"1353 902 OFFCURVE",
"1362 1106 OFFCURVE",
"1375 1192 CURVE SMOOTH",
"1382 1239 OFFCURVE",
"1496 1302 OFFCURVE",
"1496 1342 CURVE SMOOTH",
"1496 1364 OFFCURVE",
"1432 1386 OFFCURVE",
"1303 1386 CURVE SMOOTH",
"1168 1386 OFFCURVE",
"1107 1369 OFFCURVE",
"1108 1346 CURVE SMOOTH",
"1110 1309 OFFCURVE",
"1173 1313 OFFCURVE",
"1218.5 1207 CURVE SMOOTH",
"1233 1174 OFFCURVE",
"1233 1088 OFFCURVE",
"1232 710 CURVE SMOOTH",
"1232 459 OFFCURVE",
"1221 366 OFFCURVE",
"1200 366 CURVE SMOOTH",
"1156 366 OFFCURVE",
"640.697 1139.418 OFFCURVE",
"486.5 1290.5 CURVE SMOOTH",
"420.5 1355.167 OFFCURVE",
"358.333 1382 OFFCURVE",
"201 1382 CURVE SMOOTH",
"152.333 1382 OFFCURVE",
"128 1372 OFFCURVE",
"128 1338 CURVE SMOOTH",
"128 1304 OFFCURVE",
"239 1277 OFFCURVE",
"261.5 1157 CURVE SMOOTH",
"271 1108 OFFCURVE",
"275 970 OFFCURVE",
"272 710 CURVE SMOOTH",
"270 511 OFFCURVE",
"274 296 OFFCURVE",
"251 195 CURVE SMOOTH",
"231 107 OFFCURVE",
"115 85 OFFCURVE",
"115 40 CURVE SMOOTH",
"115 12 OFFCURVE",
"189 5 OFFCURVE",
"284 3 CURVE SMOOTH"
);
}
);
width = 1592;
},
{
anchors = (
{
name = top;
position = "{804, 1374}";
}
);
layerId = "5CBF0BAD-1756-4F16-9711-93DC239D102B";
paths = (
{
closed = 1;
nodes = (
"459 7 OFFCURVE",
"521 25 OFFCURVE",
"521 64 CURVE SMOOTH",
"521 106 OFFCURVE",
"464 148 OFFCURVE",
"455 226 CURVE SMOOTH",
"438 371 OFFCURVE",
"416 533.5 OFFCURVE",
"416 714.5 CURVE SMOOTH",
"416 895.5 OFFCURVE",
"422.667 986 OFFCURVE",
"436 986 CURVE SMOOTH",
"468.667 986 OFFCURVE",
"576 853 OFFCURVE",
"758 587 CURVE SMOOTH",
"940 321 OFFCURVE",
"1039 179 OFFCURVE",
"1054 160 CURVE SMOOTH",
"1127 70 OFFCURVE",
"1188 17 OFFCURVE",
"1262 17 CURVE SMOOTH",
"1315 17 OFFCURVE",
"1338 37 OFFCURVE",
"1341 163 CURVE SMOOTH",
"1356 872 LINE SMOOTH",
"1359 1011 OFFCURVE",
"1358 1071 OFFCURVE",
"1362 1104.5 CURVE SMOOTH",
"1371 1180 OFFCURVE",
"1487 1206 OFFCURVE",
"1487 1279 CURVE SMOOTH",
"1487 1335 OFFCURVE",
"1409 1359 OFFCURVE",
"1168 1359 CURVE SMOOTH",
"1107.333 1359 OFFCURVE",
"1077 1344 OFFCURVE",
"1077 1314 CURVE SMOOTH",
"1077 1302.667 OFFCURVE",
"1089.333 1282.333 OFFCURVE",
"1114 1253 CURVE SMOOTH",
"1157.333 1202.333 OFFCURVE",
"1180 1079 OFFCURVE",
"1179 884 CURVE SMOOTH",
"1178 534 OFFCURVE",
"1148 498 OFFCURVE",
"1124 498 CURVE SMOOTH",
"1094 498 OFFCURVE",
"610 1189 OFFCURVE",
"562 1239 CURVE SMOOTH",
"474 1330 OFFCURVE",
"382 1376 OFFCURVE",
"274 1376 CURVE SMOOTH",
"136 1376 OFFCURVE",
"90 1364 OFFCURVE",
"90 1300.5 CURVE SMOOTH",
"90 1240 OFFCURVE",
"202 1200 OFFCURVE",
"223.5 1128.5 CURVE SMOOTH",
"258 1010 OFFCURVE",
"239 794 OFFCURVE",
"234 574 CURVE SMOOTH",
"229 282 OFFCURVE",
"223 239 OFFCURVE",
"215 204 CURVE SMOOTH",
"205 157 OFFCURVE",
"101 121 OFFCURVE",
"101 83 CURVE SMOOTH",
"101 7 OFFCURVE",
"165 7 OFFCURVE",
"278 7 CURVE SMOOTH"
);
}
);
width = 1562;
},
{
layerId = "20E01B96-53C8-4C50-A66A-A7047371F4F1";
paths = (
{
closed = 1;
nodes = (
"1342 364 LINE",
"1343 408 LINE",
"1356 872 LINE SMOOTH",
"1356 1080 OFFCURVE",
"1368 1129 OFFCURVE",
"1487 1250 OFFCURVE",
"1487 1279 QCURVE SMOOTH",
"1487 1328 OFFCURVE",
"1350 1359 OFFCURVE",
"1168 1359 QCURVE SMOOTH",
"1077 1359 OFFCURVE",
"1077 1314 QCURVE SMOOTH",
"1077 1297 OFFCURVE",
"1114 1253 QCURVE SMOOTH",
"1179 1177 OFFCURVE",
"1179 884 QCURVE SMOOTH",
"1179 490 OFFCURVE",
"1141 490 QCURVE SMOOTH",
"1109 490 OFFCURVE",
"688 1102 OFFCURVE",
"436 1376 OFFCURVE",
"274 1376 QCURVE SMOOTH",
"229 1376 LINE SMOOTH",
"147 1376 OFFCURVE",
"90 1337 OFFCURVE",
"90 1264 OFFCURVE",
"210 1175 OFFCURVE",
"237 1082 OFFCURVE",
"237 717 OFFCURVE",
"234 574 QCURVE SMOOTH",
"231 430 LINE",
"229 382 LINE",
"229 222 OFFCURVE",
"223 204 QCURVE SMOOTH",
"212 171 OFFCURVE",
"101 104 OFFCURVE",
"101 83 QCURVE SMOOTH",
"101 45 OFFCURVE",
"149 7 OFFCURVE",
"278 7 QCURVE SMOOTH",
"321 7 LINE SMOOTH",
"484 7 OFFCURVE",
"513 41 QCURVE",
"521 64 LINE",
"521 89 OFFCURVE",
"466 165 OFFCURVE",
"455 226 QCURVE SMOOTH",
"416 443 OFFCURVE",
"416 986 OFFCURVE",
"436 986 QCURVE SMOOTH",
"485 986 OFFCURVE",
"1031 188 OFFCURVE",
"1054 160 QCURVE SMOOTH",
"1109 92 OFFCURVE",
"1245 17 OFFCURVE",
"1262 17 QCURVE SMOOTH",
"1313 17 OFFCURVE",
"1338 54 OFFCURVE",
"1338 263 OFFCURVE",
"1340 320 QCURVE SMOOTH"
);
}
);
width = 1562;
},
{
layerId = "C2CE44A8-31E7-41E3-9ADA-B2F909F658BE";
paths = (
{
closed = 1;
nodes = (
"492 63 OFFCURVE",
"463 100 QCURVE SMOOTH",
"444 125 LINE",
"422 158 OFFCURVE",
"413 190 QCURVE SMOOTH",
"385 293 OFFCURVE",
"385 563 QCURVE",
"383 810 LINE",
"383 1101 OFFCURVE",
"403 1101 QCURVE SMOOTH",
"440 1101 OFFCURVE",
"1065 212 OFFCURVE",
"1112 154 QCURVE SMOOTH",
"1220 20 OFFCURVE",
"1283 20 QCURVE SMOOTH",
"1325 20 OFFCURVE",
"1353 76 OFFCURVE",
"1353 175 QCURVE",
"1350 271 LINE SMOOTH",
"1349 319 OFFCURVE",
"1349 367 QCURVE SMOOTH",
"1349 728 LINE SMOOTH",
"1349 1016 OFFCURVE",
"1368 1145 QCURVE SMOOTH",
"1381 1232 OFFCURVE",
"1496 1319 OFFCURVE",
"1496 1386 OFFCURVE",
"1303 1386 QCURVE SMOOTH",
"1255 1386 LINE SMOOTH",
"1108 1386 OFFCURVE",
"1108 1357 QCURVE SMOOTH",
"1108 1322 OFFCURVE",
"1204 1256 OFFCURVE",
"1233 1158 OFFCURVE",
"1233 936 QCURVE SMOOTH",
"1234 839 LINE",
"1232 743 LINE SMOOTH",
"1232 366 OFFCURVE",
"1200 366 QCURVE SMOOTH",
"1187 366 OFFCURVE",
"536 1242 OFFCURVE",
"437 1339 OFFCURVE",
"319 1382 OFFCURVE",
"201 1382 QCURVE SMOOTH",
"128 1382 OFFCURVE",
"128 1338 QCURVE SMOOTH",
"128 1336 OFFCURVE",
"201 1272 QCURVE SMOOTH",
"246 1233 OFFCURVE",
"277 1081 OFFCURVE",
"277 299 OFFCURVE",
"251 195 QCURVE SMOOTH",
"236 136 OFFCURVE",
"115 64 OFFCURVE",
"115 40 QCURVE SMOOTH",
"115 8 OFFCURVE",
"258 8 QCURVE SMOOTH",
"393 8 LINE SMOOTH",
"492 8 OFFCURVE",
"492 56 QCURVE SMOOTH"
);
}
);
width = 1592;
}
);
note = uni004E;
unicode = 004E;
},
{
color = 5;
glyphname = Nacute;
layers = (
{
components = (
{
name = N;
},
{
name = acutecomb;
transform = "{1, 0, 0, 1, 774, 358}";
}
);
layerId = "92A672BF-229C-4BEC-8D25-4DDBB2A38145";
width = 1592;
},
{
components = (
{
name = N;
},
{
name = acutecomb;
transform = "{1, 0, 0, 1, 803, 340}";
}
);
layerId = "5CBF0BAD-1756-4F16-9711-93DC239D102B";
width = 1562;
},
{
layerId = "20E01B96-53C8-4C50-A66A-A7047371F4F1";
paths = (
{
closed = 1;
nodes = (
"768 1420 OFFCURVE",
"821 1463 QCURVE SMOOTH",
"1091 1684 OFFCURVE",
"1091 1730 QCURVE SMOOTH",
"1091 1734 LINE SMOOTH",
"1091 1742 OFFCURVE",
"1079 1749 QCURVE SMOOTH",
"1025 1779 OFFCURVE",
"967 1779 OFFCURVE",
"946 1782 QCURVE",
"928 1782 LINE SMOOTH",
"866 1782 OFFCURVE",
"785 1691 OFFCURVE",
"644 1470 OFFCURVE",
"644 1456 QCURVE",
"643 1450 LINE",
"643 1445 LINE SMOOTH",
"643 1420 OFFCURVE",
"679 1420 QCURVE SMOOTH",
"703 1420 LINE SMOOTH"
);
},
{
closed = 1;
nodes = (
"462 62 LINE",
"459 73 OFFCURVE",
"448 148 OFFCURVE",
"383 446 OFFCURVE",
"383 869 OFFCURVE",
"400 869 QCURVE SMOOTH",
"424 869 OFFCURVE",
"940 154 OFFCURVE",
"1034 47 OFFCURVE",
"1177 -33 OFFCURVE",
"1278 -33 OFFCURVE",
"1288 38 QCURVE",
"1289 82 LINE",
"1289 645 LINE SMOOTH",
"1289 1006 OFFCURVE",
"1295 1037 QCURVE SMOOTH",
"1306 1095 OFFCURVE",
"1440 1203 OFFCURVE",
"1440 1269 OFFCURVE",
"1304 1291 OFFCURVE",
"996 1291 OFFCURVE",
"996 1250 QCURVE SMOOTH",
"996 1231 OFFCURVE",
"1057 1159 OFFCURVE",
"1069 1104 QCURVE SMOOTH",
"1117 885 OFFCURVE",
"1117 433 OFFCURVE",
"1097 433 OFFCURVE",
"518 1204 OFFCURVE",
"492 1226 QCURVE SMOOTH",
"415 1291 OFFCURVE",
"165 1291 QCURVE SMOOTH",
"48 1291 OFFCURVE",
"48 1236 QCURVE SMOOTH",
"48 1189 OFFCURVE",
"134 1133 QCURVE SMOOTH",
"186 1099 OFFCURVE",
"206 1005 OFFCURVE",
"206 221 OFFCURVE",
"181 136 OFFCURVE",
"46 69 OFFCURVE",
"46 37 QCURVE SMOOTH",
"46 -5 OFFCURVE",
"160 -32 OFFCURVE",
"479 -32 OFFCURVE",
"479 11 QCURVE"
);
}
);
width = 1517;
},
{
layerId = "C2CE44A8-31E7-41E3-9ADA-B2F909F658BE";
paths = (
{
closed = 1;
nodes = (
"953 1810 OFFCURVE",
"752 1634 QCURVE SMOOTH",
"677 1568 OFFCURVE",
"677 1511 QCURVE",
"675 1489 LINE",
"674 1485 LINE",
"674 1476 LINE SMOOTH",
"674 1460 OFFCURVE",
"686 1460 QCURVE",
"691 1461 LINE",
"727 1461 OFFCURVE",
"769 1494 QCURVE SMOOTH",
"886 1585 OFFCURVE",
"900 1590 QCURVE SMOOTH",
"1014 1631 OFFCURVE",
"1034 1647 QCURVE SMOOTH",
"1089 1690 OFFCURVE",
"1089 1729 QCURVE SMOOTH",
"1089 1753 LINE SMOOTH",
"1089 1810 OFFCURVE",
"1017 1810 QCURVE SMOOTH",
"1006 1810 LINE SMOOTH"
);
},
{
closed = 1;
nodes = (
"1317 691 LINE",
"1319 928 LINE SMOOTH",
"1319 1141 OFFCURVE",
"1355 1244 OFFCURVE",
"1463 1324 OFFCURVE",
"1463 1334 QCURVE SMOOTH",
"1463 1384 OFFCURVE",
"1326 1384 QCURVE SMOOTH",
"1231 1384 LINE SMOOTH",
"1077 1384 OFFCURVE",
"1077 1335 QCURVE SMOOTH",
"1077 1331 OFFCURVE",
"1145 1272 QCURVE SMOOTH",
"1187 1236 OFFCURVE",
"1220 1081 OFFCURVE",
"1220 385 OFFCURVE",
"1189 385 QCURVE SMOOTH",
"1182 385 OFFCURVE",
"902 745 OFFCURVE",
"813 855 OFFCURVE",
"544 1212 OFFCURVE",
"423 1333 OFFCURVE",
"302 1368 OFFCURVE",
"95 1368 OFFCURVE",
"95 1324 QCURVE SMOOTH",
"95 1317 OFFCURVE",
"212 1223 OFFCURVE",
"226 1190 QCURVE SMOOTH",
"255 1120 OFFCURVE",
"255 915 QCURVE SMOOTH",
"255 301 OFFCURVE",
"226 198 QCURVE SMOOTH",
"212 149 OFFCURVE",
"82 85 OFFCURVE",
"82 32 OFFCURVE",
"140 32 QCURVE SMOOTH",
"187 32 LINE SMOOTH",
"420 32 OFFCURVE",
"466 65 QCURVE",
"478 82 LINE",
"478 89 OFFCURVE",
"389 227 OFFCURVE",
"349 439 OFFCURVE",
"349 1085 OFFCURVE",
"368 1085 QCURVE SMOOTH",
"406 1085 OFFCURVE",
"974 312 OFFCURVE",
"1197 45 OFFCURVE",
"1243 45 QCURVE SMOOTH",
"1301 45 OFFCURVE",
"1311 108 QCURVE SMOOTH",
"1317 146 OFFCURVE",
"1317 357 QCURVE SMOOTH"
);
}
);
width = 1592;
}
);
unicode = 0143;
},
{
color = 5;
glyphname = Ntilde;
layers = (
{
components = (
{
name = N;
},
{
name = tildecomb;
transform = "{1, 0, 0, 1, 772, 338}";
}
);
layerId = "92A672BF-229C-4BEC-8D25-4DDBB2A38145";
width = 1592;
},
{
components = (
{
name = N;
},
{
name = tildecomb;
transform = "{1, 0, 0, 1, 804, 306}";
}
);
layerId = "5CBF0BAD-1756-4F16-9711-93DC239D102B";
width = 1562;
},
{
layerId = "20E01B96-53C8-4C50-A66A-A7047371F4F1";
paths = (
{
closed = 1;
nodes = (
"1010 1485 OFFCURVE",
"1154 1629 OFFCURVE",
"1154 1702 QCURVE SMOOTH",
"1154 1750 OFFCURVE",
"1103 1750 QCURVE SMOOTH",
"1079 1750 OFFCURVE",
"984 1669 OFFCURVE",
"900 1669 OFFCURVE",
"710 1764 OFFCURVE",
"648 1764 QCURVE SMOOTH",
"639 1764 LINE SMOOTH",
"559 1764 OFFCURVE",
"413 1618 OFFCURVE",
"413 1554 QCURVE SMOOTH",
"413 1545 LINE SMOOTH",
"413 1498 OFFCURVE",
"464 1498 QCURVE SMOOTH",
"489 1498 OFFCURVE",
"586 1581 OFFCURVE",
"668 1581 OFFCURVE",
"858 1486 OFFCURVE",
"910 1486 QCURVE",
"919 1485 LINE",
"938 1485 LINE SMOOTH"
);
},
{
closed = 1;
nodes = (
"1016 1245 OFFCURVE",
"1086 1171 OFFCURVE",
"1096 1140 QCURVE SMOOTH",
"1141 1007 OFFCURVE",
"1141 875 QCURVE SMOOTH",
"1141 491 OFFCURVE",
"1108 491 QCURVE SMOOTH",
"1084 491 OFFCURVE",
"618 1147 OFFCURVE",
"468 1299 OFFCURVE",
"374 1333 OFFCURVE",
"291 1333 QCURVE SMOOTH",
"248 1333 LINE SMOOTH",
"69 1333 OFFCURVE",
"69 1286 QCURVE SMOOTH",
"69 1226 OFFCURVE",
"197 1128 OFFCURVE",
"221 1060 OFFCURVE",
"221 210 OFFCURVE",
"210 186 QCURVE SMOOTH",
"207 180 OFFCURVE",
"85 92 OFFCURVE",
"85 73 QCURVE SMOOTH",
"85 13 OFFCURVE",
"169 -12 OFFCURVE",
"420 -12 OFFCURVE",
"510 13 OFFCURVE",
"510 50 QCURVE SMOOTH",
"510 56 OFFCURVE",
"492 93 QCURVE SMOOTH",
"479 120 LINE",
"474 133 OFFCURVE",
"425 323 OFFCURVE",
"423 335 QCURVE SMOOTH",
"402 447 OFFCURVE",
"402 928 OFFCURVE",
"418 928 QCURVE SMOOTH",
"465 928 OFFCURVE",
"882 313 QCURVE SMOOTH",
"981 167 OFFCURVE",
"1077 59 OFFCURVE",
"1208 1 OFFCURVE",
"1225 1 QCURVE SMOOTH",
"1287 1 OFFCURVE",
"1298 52 QCURVE SMOOTH",
"1302 71 OFFCURVE",
"1302 397 OFFCURVE",
"1319 912 OFFCURVE",
"1319 1040 OFFCURVE",
"1329 1072 OFFCURVE",
"1448 1211 OFFCURVE",
"1448 1229 QCURVE SMOOTH",
"1448 1257 LINE",
"1431 1281 LINE",
"1394 1310 OFFCURVE",
"1016 1310 OFFCURVE",
"1016 1260 QCURVE SMOOTH"
);
}
);
width = 1530;
},
{
layerId = "C2CE44A8-31E7-41E3-9ADA-B2F909F658BE";
paths = (
{
closed = 1;
nodes = (
"585 1755 OFFCURVE",
"533 1711 QCURVE SMOOTH",
"449 1640 OFFCURVE",
"449 1583 QCURVE SMOOTH",
"449 1568 LINE SMOOTH",
"449 1540 OFFCURVE",
"482 1540 QCURVE SMOOTH",
"491 1540 OFFCURVE",
"588 1621 OFFCURVE",
"676 1621 OFFCURVE",
"854 1532 OFFCURVE",
"904 1532 QCURVE SMOOTH",
"937 1532 LINE SMOOTH",
"994 1532 OFFCURVE",
"1123 1651 OFFCURVE",
"1123 1711 QCURVE SMOOTH",
"1123 1719 LINE SMOOTH",
"1123 1746 OFFCURVE",
"1091 1746 QCURVE SMOOTH",
"1085 1746 OFFCURVE",
"983 1667 OFFCURVE",
"894 1667 OFFCURVE",
"718 1755 OFFCURVE",
"669 1755 QCURVE SMOOTH",
"646 1755 LINE SMOOTH"
);
},
{
closed = 1;
nodes = (
"487 63 OFFCURVE",
"468 85 QCURVE",
"446 107 LINE",
"425 133 LINE",
"398 173 OFFCURVE",
"360 354 OFFCURVE",
"360 577 QCURVE",
"357 822 LINE",
"357 1086 OFFCURVE",
"414 1086 OFFCURVE",
"1034 210 OFFCURVE",
"1098 130 QCURVE SMOOTH",
"1191 14 OFFCURVE",
"1274 14 QCURVE SMOOTH",
"1325 14 OFFCURVE",
"1325 142 QCURVE",
"1323 190 LINE",
"1322 286 LINE",
"1322 384 OFFCURVE",
"1322 482 QCURVE SMOOTH",
"1323 532 LINE SMOOTH",
"1323 581 OFFCURVE",
"1324 630 QCURVE SMOOTH",
"1325 679 LINE SMOOTH",
"1325 1088 OFFCURVE",
"1352 1222 OFFCURVE",
"1397 1257 QCURVE SMOOTH",
"1468 1313 OFFCURVE",
"1468 1328 QCURVE SMOOTH",
"1468 1372 OFFCURVE",
"1298 1372 QCURVE SMOOTH",
"1250 1372 LINE",
"1202 1373 LINE SMOOTH",
"1069 1373 OFFCURVE",
"1069 1332 QCURVE SMOOTH",
"1069 1318 OFFCURVE",
"1187 1240 OFFCURVE",
"1217 1109 OFFCURVE",
"1217 361 OFFCURVE",
"1194 361 QCURVE SMOOTH",
"1191 361 OFFCURVE",
"739 942 OFFCURVE",
"525 1236 OFFCURVE",
"430 1338 OFFCURVE",
"316 1371 OFFCURVE",
"99 1371 OFFCURVE",
"99 1335 QCURVE SMOOTH",
"99 1313 OFFCURVE",
"218 1223 OFFCURVE",
"248 1102 OFFCURVE",
"248 289 OFFCURVE",
"222 131 OFFCURVE",
"173 101 QCURVE SMOOTH",
"94 52 OFFCURVE",
"94 39 QCURVE SMOOTH",
"94 -2 OFFCURVE",
"224 -2 QCURVE SMOOTH",
"318 -2 LINE SMOOTH",
"487 -2 OFFCURVE",
"487 41 QCURVE SMOOTH"
);
}
);
width = 1581;
}
);
unicode = 00D1;
},
{
color = 5;
glyphname = O;
layers = (
{
anchors = (
{
name = bottom;
position = "{739, -29}";
},
{
name = top;
position = "{738, 1396}";
}
);
layerId = "92A672BF-229C-4BEC-8D25-4DDBB2A38145";
paths = (
{
closed = 1;
nodes = (
"1147 -28 OFFCURVE",
"1411 299 OFFCURVE",
"1411 690 CURVE SMOOTH",
"1411 1124 OFFCURVE",
"1159 1412 OFFCURVE",
"788 1412 CURVE SMOOTH",
"365 1412 OFFCURVE",
"99 1126 OFFCURVE",
"99 699 CURVE SMOOTH",
"99 245 OFFCURVE",
"339 -28 OFFCURVE",
"764 -28 CURVE SMOOTH"
);
},
{
closed = 1;
nodes = (
"489 66 OFFCURVE",
"322 317 OFFCURVE",
"322 702 CURVE SMOOTH",
"322 1087 OFFCURVE",
"480 1320 OFFCURVE",
"742 1320 CURVE SMOOTH",
"1002 1320 OFFCURVE",
"1169 1070.333 OFFCURVE",
"1169 685 CURVE SMOOTH",
"1169 356 OFFCURVE",
"1046 66 OFFCURVE",
"763 66 CURVE SMOOTH"
);
}
);
width = 1533;
},
{
anchors = (
{
name = bottom;
position = "{709, -33}";
},
{
name = top;
position = "{749, 1405}";
}
);
layerId = "5CBF0BAD-1756-4F16-9711-93DC239D102B";
paths = (
{
closed = 1;
nodes = (
"1173 -33 OFFCURVE",
"1444 263 OFFCURVE",
"1444 713 CURVE SMOOTH",
"1444 1089 OFFCURVE",
"1174 1406 OFFCURVE",
"809 1406 CURVE SMOOTH",
"364 1409 OFFCURVE",
"98 1123 OFFCURVE",
"98 682 CURVE SMOOTH",
"98 275 OFFCURVE",
"348 -34 OFFCURVE",
"739 -34 CURVE SMOOTH"
);
},
{
closed = 1;
nodes = (
"522 108 OFFCURVE",
"386 409 OFFCURVE",
"386 687 CURVE SMOOTH",
"386 1056 OFFCURVE",
"518 1267 OFFCURVE",
"746 1267 CURVE SMOOTH",
"979 1267 OFFCURVE",
"1103 982 OFFCURVE",
"1103 706 CURVE SMOOTH",
"1103 308 OFFCURVE",
"986 108 OFFCURVE",
"746 108 CURVE SMOOTH"
);
}
);
width = 1533;
},
{
layerId = "20E01B96-53C8-4C50-A66A-A7047371F4F1";
paths = (
{
closed = 1;
nodes = (
"1103 409 OFFCURVE",
"1010 254 QCURVE SMOOTH",
"970 187 OFFCURVE",
"844 108 OFFCURVE",
"776 108 QCURVE SMOOTH",
"746 108 LINE SMOOTH",
"682 108 OFFCURVE",
"622 144 QCURVE SMOOTH",
"476 231 OFFCURVE",
"416 456 QCURVE SMOOTH",
"386 570 OFFCURVE",
"386 687 QCURVE SMOOTH",
"386 721 LINE SMOOTH",
"386 840 OFFCURVE",
"417 960 QCURVE SMOOTH",
"466 1152 OFFCURVE",
"598 1228 QCURVE SMOOTH",
"666 1267 OFFCURVE",
"731 1267 QCURVE SMOOTH",
"746 1267 LINE SMOOTH",
"825 1267 OFFCURVE",
"886 1229 QCURVE SMOOTH",
"1022 1143 OFFCURVE",
"1076 920 QCURVE SMOOTH",
"1103 808 OFFCURVE",
"1103 706 QCURVE SMOOTH",
"1103 639 LINE SMOOTH"
);
},
{
closed = 1;
nodes = (
"98 364 OFFCURVE",
"287 154 QCURVE SMOOTH",
"368 65 OFFCURVE",
"609 -34 OFFCURVE",
"739 -34 QCURVE SMOOTH",
"1056 -33 OFFCURVE",
"1248 166 QCURVE SMOOTH",
"1343 264 OFFCURVE",
"1444 539 OFFCURVE",
"1444 690 QCURVE SMOOTH",
"1444 713 LINE SMOOTH",
"1444 846 OFFCURVE",
"1352 1105 OFFCURVE",
"1175 1300 OFFCURVE",
"925 1406 OFFCURVE",
"809 1406 QCURVE SMOOTH",
"786 1406 LINE",
"762 1407 LINE",
"618 1407 OFFCURVE",
"480 1347 QCURVE SMOOTH",
"242 1244 OFFCURVE",
"147 978 QCURVE SMOOTH",
"98 842 OFFCURVE",
"98 682 QCURVE SMOOTH"
);
}
);
width = 1533;
},
{
layerId = "C2CE44A8-31E7-41E3-9ADA-B2F909F658BE";
paths = (
{
closed = 1;
nodes = (
"643 66 OFFCURVE",
"479 175 OFFCURVE",
"426 263 QCURVE SMOOTH",
"322 433 OFFCURVE",
"322 702 QCURVE SMOOTH",
"322 720 LINE SMOOTH",
"322 856 OFFCURVE",
"385 1085 OFFCURVE",
"432 1153 QCURVE SMOOTH",
"548 1320 OFFCURVE",
"742 1320 QCURVE SMOOTH",
"937 1320 OFFCURVE",
"1169 974 OFFCURVE",
"1169 685 QCURVE SMOOTH",
"1169 666 LINE SMOOTH",
"1169 405 OFFCURVE",
"1061 235 QCURVE SMOOTH",
"951 66 OFFCURVE",
"763 66 QCURVE SMOOTH",
"729 66 LINE SMOOTH"
);
},
{
closed = 1;
nodes = (
"1411 714 LINE SMOOTH",
"1411 842 OFFCURVE",
"1375 958 QCURVE SMOOTH",
"1283 1257 OFFCURVE",
"1041 1360 QCURVE SMOOTH",
"920 1412 OFFCURVE",
"788 1412 QCURVE SMOOTH",
"765 1412 LINE SMOOTH",
"614 1412 OFFCURVE",
"486 1356 QCURVE SMOOTH",
"249 1254 OFFCURVE",
"150 986 QCURVE SMOOTH",
"99 848 OFFCURVE",
"99 699 QCURVE SMOOTH",
"99 651 LINE SMOOTH",
"99 518 OFFCURVE",
"199 245 OFFCURVE",
"274 165 QCURVE SMOOTH",
"455 -28 OFFCURVE",
"718 -28 QCURVE SMOOTH",
"764 -28 LINE SMOOTH",
"882 -28 OFFCURVE",
"1002 20 QCURVE SMOOTH",
"1257 123 OFFCURVE",
"1360 404 QCURVE SMOOTH",
"1411 544 OFFCURVE",
"1411 690 QCURVE SMOOTH"
);
}
);
width = 1533;
}
);
note = uni004F;
unicode = 004F;
},
{
color = 5;
glyphname = Oacute;
layers = (
{
components = (
{
name = O;
},
{
name = acutecomb;
transform = "{1, 0, 0, 1, 740, 349}";
}
);
layerId = "92A672BF-229C-4BEC-8D25-4DDBB2A38145";
width = 1533;
},
{
components = (
{
name = O;
},
{
name = acutecomb;
transform = "{1, 0, 0, 1, 748, 371}";
}
);
layerId = "5CBF0BAD-1756-4F16-9711-93DC239D102B";
width = 1533;
},
{
layerId = "20E01B96-53C8-4C50-A66A-A7047371F4F1";
paths = (
{
closed = 1;
nodes = (
"419 730 LINE",
"421 761 LINE",
"421 861 OFFCURVE",
"452 966 QCURVE SMOOTH",
"505 1148 OFFCURVE",
"618 1204 QCURVE SMOOTH",
"677 1234 OFFCURVE",
"727 1234 QCURVE SMOOTH",
"773 1234 LINE SMOOTH",
"835 1234 OFFCURVE",
"953 1163 OFFCURVE",
"989 1107 QCURVE SMOOTH",
"1083 963 OFFCURVE",
"1083 746 QCURVE SMOOTH",
"1083 653 LINE SMOOTH",
"1083 438 OFFCURVE",
"993 294 QCURVE SMOOTH",
"955 233 OFFCURVE",
"834 159 OFFCURVE",
"762 159 QCURVE SMOOTH",
"747 159 LINE SMOOTH",
"675 159 OFFCURVE",
"612 193 QCURVE SMOOTH",
"507 249 OFFCURVE",
"451 436 QCURVE SMOOTH",
"419 544 OFFCURVE",
"419 668 QCURVE SMOOTH"
);
},
{
closed = 1;
nodes = (
"756 1415 OFFCURVE",
"794 1449 QCURVE SMOOTH",
"1050 1679 OFFCURVE",
"1050 1742 QCURVE SMOOTH",
"1050 1748 LINE SMOOTH",
"1050 1764 OFFCURVE",
"1030 1776 QCURVE SMOOTH",
"970 1812 OFFCURVE",
"931 1812 QCURVE SMOOTH",
"904 1812 LINE SMOOTH",
"842 1812 OFFCURVE",
"786 1756 QCURVE SMOOTH",
"776 1746 OFFCURVE",
"614 1491 OFFCURVE",
"614 1475 QCURVE SMOOTH",
"614 1452 LINE SMOOTH",
"614 1415 OFFCURVE",
"668 1415 QCURVE SMOOTH",
"686 1415 LINE SMOOTH"
);
},
{
closed = 1;
nodes = (
"109 493 OFFCURVE",
"160 354 QCURVE SMOOTH",
"250 108 OFFCURVE",
"474 7 QCURVE SMOOTH",
"592 -46 OFFCURVE",
"731 -46 QCURVE SMOOTH",
"755 -46 LINE SMOOTH",
"903 -46 OFFCURVE",
"1035 10 QCURVE SMOOTH",
"1282 115 OFFCURVE",
"1378 378 QCURVE SMOOTH",
"1426 510 OFFCURVE",
"1427 660 QCURVE SMOOTH",
"1427 683 LINE SMOOTH",
"1427 835 OFFCURVE",
"1375 965 QCURVE SMOOTH",
"1277 1213 OFFCURVE",
"1040 1314 QCURVE SMOOTH",
"922 1364 OFFCURVE",
"782 1365 QCURVE SMOOTH",
"734 1365 LINE SMOOTH",
"600 1365 OFFCURVE",
"461 1301 QCURVE SMOOTH",
"247 1203 OFFCURVE",
"156 953 QCURVE SMOOTH",
"109 824 OFFCURVE",
"109 685 QCURVE SMOOTH",
"109 637 LINE SMOOTH"
);
}
);
width = 1511;
},
{
layerId = "C2CE44A8-31E7-41E3-9ADA-B2F909F658BE";
paths = (
{
closed = 1;
nodes = (
"315 878 OFFCURVE",
"351 993 QCURVE SMOOTH",
"414 1197 OFFCURVE",
"561 1276 QCURVE SMOOTH",
"640 1318 OFFCURVE",
"717 1319 QCURVE SMOOTH",
"770 1319 LINE SMOOTH",
"856 1319 OFFCURVE",
"942 1268 QCURVE SMOOTH",
"1080 1186 OFFCURVE",
"1138 980 QCURVE SMOOTH",
"1171 862 OFFCURVE",
"1171 746 QCURVE SMOOTH",
"1171 672 LINE SMOOTH",
"1171 550 OFFCURVE",
"1104 330 OFFCURVE",
"1060 269 QCURVE SMOOTH",
"940 103 OFFCURVE",
"752 103 QCURVE SMOOTH",
"734 103 LINE SMOOTH",
"650 103 OFFCURVE",
"573 140 QCURVE SMOOTH",
"413 217 OFFCURVE",
"348 448 QCURVE SMOOTH",
"316 564 OFFCURVE",
"315 680 QCURVE",
"315 753 LINE SMOOTH"
);
},
{
closed = 1;
nodes = (
"618 1458 OFFCURVE",
"657 1458 QCURVE SMOOTH",
"662 1458 LINE SMOOTH",
"723 1458 OFFCURVE",
"1033 1675 OFFCURVE",
"1033 1725 QCURVE",
"1034 1730 LINE",
"1034 1741 LINE SMOOTH",
"1034 1766 OFFCURVE",
"980 1808 OFFCURVE",
"947 1808 QCURVE",
"941 1809 LINE",
"930 1809 LINE SMOOTH",
"880 1809 OFFCURVE",
"722 1669 OFFCURVE",
"618 1520 OFFCURVE",
"618 1507 QCURVE SMOOTH",
"618 1496 LINE SMOOTH"
);
},
{
closed = 1;
nodes = (
"1398 853 OFFCURVE",
"1299 1125 OFFCURVE",
"1226 1205 QCURVE SMOOTH",
"1051 1399 OFFCURVE",
"762 1399 QCURVE SMOOTH",
"739 1399 LINE SMOOTH",
"601 1399 OFFCURVE",
"484 1348 QCURVE SMOOTH",
"243 1243 OFFCURVE",
"145 976 QCURVE SMOOTH",
"96 842 OFFCURVE",
"96 698 QCURVE SMOOTH",
"96 651 LINE SMOOTH",
"96 523 OFFCURVE",
"142 388 QCURVE SMOOTH",
"233 123 OFFCURVE",
"469 18 QCURVE SMOOTH",
"582 -32 OFFCURVE",
"704 -32 QCURVE SMOOTH",
"751 -32 LINE SMOOTH",
"886 -32 OFFCURVE",
"1008 20 QCURVE SMOOTH",
"1250 124 OFFCURVE",
"1348 391 QCURVE SMOOTH",
"1398 528 OFFCURVE",
"1398 674 QCURVE SMOOTH",
"1398 697 LINE SMOOTH"
);
}
);
width = 1531;
}
);
unicode = 00D3;
},
{
color = 5;
glyphname = Ocircumflex;
layers = (
{
components = (
{
name = O;
},
{
name = circumflexcomb;
transform = "{1, 0, 0, 1, 738, 293}";
}
);
layerId = "92A672BF-229C-4BEC-8D25-4DDBB2A38145";
width = 1533;
},
{
components = (
{
name = O;
},
{
name = circumflexcomb;
transform = "{1, 0, 0, 1, 749, 340}";
}
);
layerId = "5CBF0BAD-1756-4F16-9711-93DC239D102B";
width = 1533;
},
{
layerId = "20E01B96-53C8-4C50-A66A-A7047371F4F1";
paths = (
{
closed = 1;
nodes = (
"409 963 OFFCURVE",
"500 1103 QCURVE SMOOTH",
"537 1160 OFFCURVE",
"652 1235 OFFCURVE",
"717 1235 QCURVE SMOOTH",
"732 1235 LINE",
"748 1236 LINE",
"826 1236 OFFCURVE",
"897 1190 QCURVE SMOOTH",
"1014 1114 OFFCURVE",
"1066 908 QCURVE SMOOTH",
"1094 794 OFFCURVE",
"1094 722 QCURVE SMOOTH",
"1094 661 LINE",
"1092 631 LINE",
"1092 550 OFFCURVE",
"1040 350 OFFCURVE",
"995 288 QCURVE SMOOTH",
"909 171 OFFCURVE",
"770 171 QCURVE SMOOTH",
"755 171 LINE SMOOTH",
"684 171 OFFCURVE",
"618 207 QCURVE SMOOTH",
"490 275 OFFCURVE",
"436 490 QCURVE SMOOTH",
"409 596 OFFCURVE",
"409 693 QCURVE SMOOTH",
"409 697 OFFCURVE",
"409 700 QCURVE SMOOTH",
"409 761 LINE SMOOTH"
);
},
{
closed = 1;
nodes = (
"545 1428 OFFCURVE",
"634 1487 QCURVE SMOOTH",
"690 1527 LINE SMOOTH",
"740 1563 OFFCURVE",
"759 1563 OFFCURVE",
"861 1478 QCURVE SMOOTH",
"921 1428 OFFCURVE",
"972 1428 QCURVE SMOOTH",
"987 1428 LINE SMOOTH",
"1055 1428 OFFCURVE",
"1055 1478 QCURVE SMOOTH",
"1055 1487 OFFCURVE",
"971 1593 OFFCURVE",
"877 1735 OFFCURVE",
"815 1797 OFFCURVE",
"767 1797 QCURVE SMOOTH",
"739 1797 LINE SMOOTH",
"679 1797 OFFCURVE",
"629 1751 QCURVE SMOOTH",
"613 1736 OFFCURVE",
"419 1489 OFFCURVE",
"419 1479 QCURVE SMOOTH",
"419 1471 LINE SMOOTH",
"419 1428 OFFCURVE",
"480 1428 QCURVE SMOOTH",
"504 1428 LINE SMOOTH"
);
},
{
closed = 1;
nodes = (
"109 495 OFFCURVE",
"160 356 QCURVE SMOOTH",
"249 111 OFFCURVE",
"470 10 QCURVE SMOOTH",
"585 -43 OFFCURVE",
"704 -43 QCURVE SMOOTH",
"706 -43 OFFCURVE",
"708 -43 QCURVE SMOOTH",
"779 -43 LINE SMOOTH",
"924 -43 OFFCURVE",
"1055 21 QCURVE SMOOTH",
"1296 138 OFFCURVE",
"1383 393 QCURVE SMOOTH",
"1427 522 OFFCURVE",
"1427 662 QCURVE SMOOTH",
"1427 686 LINE SMOOTH",
"1427 834 OFFCURVE",
"1375 967 QCURVE SMOOTH",
"1282 1207 OFFCURVE",
"1054 1312 QCURVE SMOOTH",
"936 1367 OFFCURVE",
"787 1367 QCURVE SMOOTH",
"782 1367 LINE",
"734 1367 LINE SMOOTH",
"616 1367 OFFCURVE",
"374 1268 OFFCURVE",
"208 1096 OFFCURVE",
"109 826 OFFCURVE",
"109 687 QCURVE SMOOTH",
"109 639 LINE SMOOTH"
);
}
);
width = 1511;
},
{
layerId = "C2CE44A8-31E7-41E3-9ADA-B2F909F658BE";
paths = (
{
closed = 1;
nodes = (
"1179 561 OFFCURVE",
"1115 332 OFFCURVE",
"1057 260 QCURVE SMOOTH",
"941 114 OFFCURVE",
"757 114 QCURVE SMOOTH",
"739 114 LINE SMOOTH",
"648 114 OFFCURVE",
"487 200 OFFCURVE",
"431 277 QCURVE SMOOTH",
"306 448 OFFCURVE",
"306 738 QCURVE SMOOTH",
"306 756 LINE SMOOTH",
"306 863 OFFCURVE",
"338 977 QCURVE SMOOTH",
"399 1197 OFFCURVE",
"560 1280 QCURVE SMOOTH",
"638 1320 OFFCURVE",
"728 1320 QCURVE SMOOTH",
"746 1320 LINE SMOOTH",
"833 1320 OFFCURVE",
"923 1272 QCURVE SMOOTH",
"1068 1194 OFFCURVE",
"1141 969 QCURVE SMOOTH",
"1179 851 OFFCURVE",
"1179 739 QCURVE SMOOTH",
"1179 666 LINE SMOOTH"
);
},
{
closed = 1;
nodes = (
"1041 1468 OFFCURVE",
"1041 1494 QCURVE SMOOTH",
"1041 1500 LINE SMOOTH",
"1041 1514 OFFCURVE",
"795 1805 OFFCURVE",
"752 1805 QCURVE SMOOTH",
"735 1805 LINE SMOOTH",
"683 1805 OFFCURVE",
"434 1510 OFFCURVE",
"434 1502 QCURVE SMOOTH",
"434 1469 OFFCURVE",
"521 1469 OFFCURVE",
"692 1588 QCURVE SMOOTH",
"735 1618 OFFCURVE",
"745 1618 OFFCURVE",
"962 1468 OFFCURVE",
"988 1468 QCURVE SMOOTH",
"1002 1468 LINE SMOOTH"
);
},
{
closed = 1;
nodes = (
"1401 704 LINE SMOOTH",
"1401 854 OFFCURVE",
"1351 991 QCURVE SMOOTH",
"1258 1245 OFFCURVE",
"1030 1350 QCURVE SMOOTH",
"914 1404 OFFCURVE",
"774 1404 QCURVE SMOOTH",
"728 1404 LINE SMOOTH",
"600 1404 OFFCURVE",
"474 1349 QCURVE SMOOTH",
"240 1247 OFFCURVE",
"142 980 QCURVE SMOOTH",
"93 847 OFFCURVE",
"93 697 QCURVE SMOOTH",
"93 694 OFFCURVE",
"93 691 QCURVE SMOOTH",
"93 668 LINE SMOOTH",
"93 535 OFFCURVE",
"183 252 OFFCURVE",
"269 160 QCURVE SMOOTH",
"451 -33 OFFCURVE",
"746 -33 QCURVE SMOOTH",
"896 -33 OFFCURVE",
"1014 22 QCURVE SMOOTH",
"1256 132 OFFCURVE",
"1352 396 QCURVE SMOOTH",
"1401 529 OFFCURVE",
"1401 675 QCURVE SMOOTH",
"1401 681 OFFCURVE",
"1401 681 QCURVE"
);
}
);
width = 1535;
}
);
unicode = 00D4;
},
{
color = 5;
glyphname = Odieresis;
layers = (
{
components = (
{
name = O;
},
{
name = dieresiscomb;
transform = "{1, 0, 0, 1, 729, 413}";
}
);
layerId = "92A672BF-229C-4BEC-8D25-4DDBB2A38145";
width = 1533;
},
{
components = (
{
name = O;
},
{
name = dieresiscomb;
transform = "{1, 0, 0, 1, 744, 389}";
}
);
layerId = "5CBF0BAD-1756-4F16-9711-93DC239D102B";
width = 1533;
},
{
layerId = "20E01B96-53C8-4C50-A66A-A7047371F4F1";
paths = (
{
closed = 1;
nodes = (
"420 984 OFFCURVE",
"581 1249 OFFCURVE",
"728 1249 QCURVE SMOOTH",
"966 1248 OFFCURVE",
"1042 942 QCURVE SMOOTH",
"1068 836 OFFCURVE",
"1069 794 QCURVE SMOOTH",
"1069 752 OFFCURVE",
"1071 721 QCURVE",
"1071 658 LINE SMOOTH",
"1071 430 OFFCURVE",
"980 290 QCURVE SMOOTH",
"943 234 OFFCURVE",
"829 169 OFFCURVE",
"763 169 QCURVE SMOOTH",
"748 169 LINE SMOOTH",
"677 169 OFFCURVE",
"552 245 OFFCURVE",
"513 312 QCURVE SMOOTH",
"420 471 OFFCURVE",
"420 699 QCURVE SMOOTH",
"420 762 LINE SMOOTH"
);
},
{
closed = 1;
nodes = (
"586 1495 OFFCURVE",
"596 1497 QCURVE",
"643 1497 OFFCURVE",
"710 1577 OFFCURVE",
"710 1692 OFFCURVE",
"643 1770 OFFCURVE",
"583 1770 QCURVE SMOOTH",
"554 1770 LINE SMOOTH",
"496 1770 OFFCURVE",
"426 1689 OFFCURVE",
"426 1632 QCURVE SMOOTH",
"426 1627 LINE SMOOTH",
"426 1554 OFFCURVE",
"508 1495 OFFCURVE",
"558 1495 QCURVE",
"563 1494 LINE",
"572 1495 LINE",
"582 1495 LINE SMOOTH"
);
},
{
closed = 1;
nodes = (
"960 1756 LINE",
"934 1753 LINE",
"882 1753 OFFCURVE",
"805 1665 OFFCURVE",
"805 1607 QCURVE SMOOTH",
"805 1581 LINE SMOOTH",
"805 1513 OFFCURVE",
"893 1438 OFFCURVE",
"958 1438 QCURVE",
"963 1437 LINE",
"1020 1437 OFFCURVE",
"1091 1520 OFFCURVE",
"1091 1591 QCURVE SMOOTH",
"1091 1612 LINE SMOOTH",
"1091 1670 OFFCURVE",
"1030 1756 OFFCURVE",
"981 1756 QCURVE SMOOTH"
);
},
{
closed = 1;
nodes = (
"115 504 OFFCURVE",
"165 367 QCURVE SMOOTH",
"257 112 OFFCURVE",
"486 16 QCURVE SMOOTH",
"602 -33 OFFCURVE",
"709 -33 QCURVE SMOOTH",
"711 -33 OFFCURVE",
"713 -33 QCURVE SMOOTH",
"784 -33 LINE SMOOTH",
"904 -33 OFFCURVE",
"1041 23 QCURVE SMOOTH",
"1285 124 OFFCURVE",
"1382 384 QCURVE SMOOTH",
"1432 516 OFFCURVE",
"1432 649 QCURVE SMOOTH",
"1432 696 LINE SMOOTH",
"1432 853 OFFCURVE",
"1372 998 QCURVE SMOOTH",
"1271 1241 OFFCURVE",
"1030 1332 QCURVE SMOOTH",
"912 1376 OFFCURVE",
"787 1377 QCURVE SMOOTH",
"740 1377 LINE SMOOTH",
"605 1377 OFFCURVE",
"358 1264 OFFCURVE",
"209 1093 OFFCURVE",
"115 842 OFFCURVE",
"115 697 QCURVE SMOOTH",
"115 626 LINE SMOOTH"
);
}
);
width = 1511;
},
{
layerId = "C2CE44A8-31E7-41E3-9ADA-B2F909F658BE";
paths = (
{
closed = 1;
nodes = (
"313 879 OFFCURVE",
"375 1098 OFFCURVE",
"427 1170 QCURVE SMOOTH",
"534 1319 OFFCURVE",
"719 1319 QCURVE SMOOTH",
"736 1319 LINE SMOOTH",
"837 1319 OFFCURVE",
"1004 1216 OFFCURVE",
"1048 1140 QCURVE SMOOTH",
"1153 964 OFFCURVE",
"1153 707 QCURVE SMOOTH",
"1153 702 OFFCURVE",
"1153 702 QCURVE",
"1154 683 LINE",
"1154 417 OFFCURVE",
"936 101 OFFCURVE",
"747 101 QCURVE SMOOTH",
"713 101 LINE SMOOTH",
"629 101 OFFCURVE",
"543 155 QCURVE SMOOTH",
"407 241 OFFCURVE",
"344 464 QCURVE SMOOTH",
"313 574 OFFCURVE",
"313 701 QCURVE SMOOTH",
"313 774 LINE SMOOTH"
);
},
{
closed = 1;
nodes = (
"448 1592 OFFCURVE",
"499 1531 OFFCURVE",
"526 1531 QCURVE",
"555 1527 LINE",
"558 1527 LINE",
"577 1529 LINE",
"581 1529 OFFCURVE",
"587 1531 QCURVE",
"613 1531 OFFCURVE",
"671 1589 OFFCURVE",
"671 1627 QCURVE SMOOTH",
"671 1653 LINE SMOOTH",
"671 1657 OFFCURVE",
"667 1671 QCURVE",
"667 1695 OFFCURVE",
"612 1750 OFFCURVE",
"572 1750 QCURVE SMOOTH",
"550 1750 LINE SMOOTH",
"510 1750 OFFCURVE",
"452 1692 OFFCURVE",
"452 1671 QCURVE",
"448 1650 LINE",
"448 1628 LINE SMOOTH"
);
},
{
closed = 1;
nodes = (
"1042 1590 OFFCURVE",
"1044 1598 QCURVE",
"1044 1632 LINE",
"1042 1640 LINE",
"1042 1678 OFFCURVE",
"980 1740 OFFCURVE",
"941 1740 QCURVE SMOOTH",
"925 1740 LINE",
"904 1737 LINE",
"879 1737 OFFCURVE",
"805 1676 OFFCURVE",
"805 1620 QCURVE SMOOTH",
"805 1603 LINE SMOOTH",
"805 1555 OFFCURVE",
"871 1489 OFFCURVE",
"906 1489 OFFCURVE",
"918 1486 QCURVE",
"942 1486 LINE SMOOTH",
"978 1486 OFFCURVE",
"1042 1550 OFFCURVE",
"1042 1586 QCURVE SMOOTH"
);
},
{
closed = 1;
nodes = (
"1397 702 LINE SMOOTH",
"1397 852 OFFCURVE",
"1296 1128 OFFCURVE",
"1145 1295 OFFCURVE",
"918 1400 OFFCURVE",
"777 1400 QCURVE SMOOTH",
"730 1400 LINE SMOOTH",
"597 1400 OFFCURVE",
"475 1347 QCURVE SMOOTH",
"237 1243 OFFCURVE",
"140 978 QCURVE SMOOTH",
"91 844 OFFCURVE",
"91 715 QCURVE SMOOTH",
"91 692 LINE",
"90 668 LINE",
"90 514 OFFCURVE",
"190 241 OFFCURVE",
"265 158 QCURVE SMOOTH",
"440 -35 OFFCURVE",
"730 -35 QCURVE SMOOTH",
"753 -35 LINE SMOOTH",
"885 -35 OFFCURVE",
"1130 72 OFFCURVE",
"1308 268 OFFCURVE",
"1397 549 OFFCURVE",
"1397 679 QCURVE SMOOTH"
);
}
);
width = 1533;
}
);
unicode = 00D6;
},
{
color = 5;
glyphname = Ograve;
layers = (
{
components = (
{
name = O;
},
{
name = gravecomb;
transform = "{1, 0, 0, 1, 738, 389}";
}
);
layerId = "92A672BF-229C-4BEC-8D25-4DDBB2A38145";
width = 1533;
},
{
components = (
{
name = O;
},
{
name = gravecomb;
transform = "{1, 0, 0, 1, 749, 398}";
}
);
layerId = "5CBF0BAD-1756-4F16-9711-93DC239D102B";
width = 1533;
},
{
layerId = "20E01B96-53C8-4C50-A66A-A7047371F4F1";
paths = (
{
closed = 1;
nodes = (
"1084 302 OFFCURVE",
"910 194 QCURVE SMOOTH",
"853 159 OFFCURVE",
"794 159 QCURVE SMOOTH",
"793 159 OFFCURVE",
"791 159 QCURVE SMOOTH",
"761 159 LINE SMOOTH",
"689 159 OFFCURVE",
"563 233 OFFCURVE",
"482 362 OFFCURVE",
"419 583 OFFCURVE",
"419 723 QCURVE",
"418 738 LINE",
"418 754 LINE SMOOTH",
"418 989 OFFCURVE",
"505 1122 QCURVE SMOOTH",
"580 1235 OFFCURVE",
"724 1235 QCURVE SMOOTH",
"970 1234 OFFCURVE",
"1055 908 QCURVE SMOOTH",
"1084 796 OFFCURVE",
"1084 675 QCURVE SMOOTH",
"1084 644 LINE SMOOTH"
);
},
{
closed = 1;
nodes = (
"870 1519 OFFCURVE",
"704 1756 QCURVE SMOOTH",
"665 1812 OFFCURVE",
"595 1812 QCURVE",
"589 1813 LINE",
"582 1813 LINE SMOOTH",
"514 1813 OFFCURVE",
"434 1757 OFFCURVE",
"434 1744 QCURVE SMOOTH",
"434 1733 LINE SMOOTH",
"434 1667 OFFCURVE",
"745 1413 OFFCURVE",
"807 1413 QCURVE SMOOTH",
"812 1413 LINE SMOOTH",
"870 1413 OFFCURVE",
"870 1441 QCURVE SMOOTH",
"870 1457 LINE SMOOTH"
);
},
{
closed = 1;
nodes = (
"109 493 OFFCURVE",
"160 354 QCURVE SMOOTH",
"256 90 OFFCURVE",
"494 -2 QCURVE SMOOTH",
"609 -46 OFFCURVE",
"731 -46 QCURVE SMOOTH",
"755 -46 LINE SMOOTH",
"903 -46 OFFCURVE",
"1035 10 QCURVE SMOOTH",
"1284 116 OFFCURVE",
"1379 378 QCURVE SMOOTH",
"1427 510 OFFCURVE",
"1427 660 QCURVE SMOOTH",
"1427 683 LINE SMOOTH",
"1427 835 OFFCURVE",
"1375 965 QCURVE SMOOTH",
"1277 1213 OFFCURVE",
"1040 1314 QCURVE SMOOTH",
"922 1364 OFFCURVE",
"782 1365 QCURVE SMOOTH",
"734 1365 LINE SMOOTH",
"600 1365 OFFCURVE",
"461 1301 QCURVE SMOOTH",
"248 1204 OFFCURVE",
"156 952 QCURVE SMOOTH",
"109 825 OFFCURVE",
"109 691 QCURVE SMOOTH",
"109 688 OFFCURVE",
"109 685 QCURVE SMOOTH",
"109 637 LINE SMOOTH"
);
}
);
width = 1511;
},
{
layerId = "C2CE44A8-31E7-41E3-9ADA-B2F909F658BE";
paths = (
{
closed = 1;
nodes = (
"316 873 OFFCURVE",
"348 1001 QCURVE SMOOTH",
"396 1193 OFFCURVE",
"546 1276 QCURVE SMOOTH",
"621 1318 OFFCURVE",
"704 1318 QCURVE SMOOTH",
"739 1318 LINE SMOOTH",
"839 1318 OFFCURVE",
"930 1263 QCURVE SMOOTH",
"1073 1176 OFFCURVE",
"1135 956 QCURVE SMOOTH",
"1169 836 OFFCURVE",
"1169 701 QCURVE SMOOTH",
"1169 646 LINE SMOOTH",
"1169 535 OFFCURVE",
"1108 318 OFFCURVE",
"1057 251 QCURVE SMOOTH",
"946 105 OFFCURVE",
"781 105 QCURVE SMOOTH",
"745 105 LINE SMOOTH",
"654 105 OFFCURVE",
"569 152 QCURVE SMOOTH",
"417 235 OFFCURVE",
"350 473 QCURVE SMOOTH",
"316 592 OFFCURVE",
"316 725 QCURVE SMOOTH",
"316 761 LINE SMOOTH"
);
},
{
closed = 1;
nodes = (
"860 1459 OFFCURVE",
"860 1492 QCURVE SMOOTH",
"860 1507 LINE SMOOTH",
"860 1522 OFFCURVE",
"826 1566 QCURVE SMOOTH",
"710 1714 OFFCURVE",
"592 1807 OFFCURVE",
"550 1807 QCURVE SMOOTH",
"532 1807 LINE SMOOTH",
"498 1807 OFFCURVE",
"439 1761 OFFCURVE",
"439 1733 QCURVE SMOOTH",
"439 1727 LINE SMOOTH",
"439 1677 OFFCURVE",
"552 1598 QCURVE SMOOTH",
"751 1459 OFFCURVE",
"814 1459 QCURVE SMOOTH",
"824 1459 LINE SMOOTH"
);
},
{
closed = 1;
nodes = (
"1400 703 LINE SMOOTH",
"1400 830 OFFCURVE",
"1357 969 QCURVE SMOOTH",
"1270 1251 OFFCURVE",
"1028 1351 QCURVE SMOOTH",
"906 1401 OFFCURVE",
"780 1401 QCURVE SMOOTH",
"733 1401 LINE SMOOTH",
"590 1401 OFFCURVE",
"459 1339 QCURVE SMOOTH",
"230 1229 OFFCURVE",
"141 970 QCURVE SMOOTH",
"94 832 OFFCURVE",
"94 692 QCURVE SMOOTH",
"94 645 LINE SMOOTH",
"94 512 OFFCURVE",
"149 362 QCURVE SMOOTH",
"241 116 OFFCURVE",
"470 16 QCURVE SMOOTH",
"584 -34 OFFCURVE",
"710 -34 QCURVE SMOOTH",
"756 -34 LINE SMOOTH",
"879 -34 OFFCURVE",
"994 12 QCURVE SMOOTH",
"1248 115 OFFCURVE",
"1350 394 QCURVE SMOOTH",
"1400 530 OFFCURVE",
"1400 680 QCURVE SMOOTH"
);
}
);
width = 1533;
}
);
unicode = 00D2;
},
